<?xml version="1.0" standalone="no"?>
<!DOCTYPE svg PUBLIC "-//W3C//DTD SVG 20010904//EN"
 "http://www.w3.org/TR/2001/REC-SVG-20010904/DTD/svg10.dtd">
<svg version="1.0" xmlns="http://www.w3.org/2000/svg"
 width="30.000000pt" height="30.000000pt" viewBox="0 0 512.000000 512.000000"
 preserveAspectRatio="xMidYMid meet">

<g transform="translate(0.000000,512.000000) scale(0.100000,-0.100000)"
fill="#000000" stroke="none">
<path d="M1975 4935 c-28 -27 -33 -71 -11 -101 14 -18 35 -19 613 -25 502 -5
613 -8 693 -23 448 -80 823 -275 1131 -586 290 -294 483 -668 555 -1075 17
-100 3 -163 -48 -212 -71 -68 127 -63 -2348 -63 -2000 0 -2245 2 -2278 15 -48
20 -79 50 -104 100 -28 53 -20 159 21 318 178 682 697 1226 1366 1432 187 58
189 58 204 89 16 34 4 67 -34 92 -23 15 -33 15 -83 4 -275 -61 -619 -231 -862
-427 -98 -79 -289 -277 -364 -376 -212 -284 -353 -607 -416 -960 -28 -155 32
-308 148 -378 20 -12 38 -23 40 -24 1 -1 -7 -22 -18 -46 -24 -53 -26 -145 -5
-196 15 -36 9 -52 -18 -53 -4 0 -30 -20 -56 -45 -67 -63 -95 -129 -96 -225 0
-114 46 -203 135 -261 27 -18 50 -34 50 -36 0 -2 -7 -27 -16 -54 -24 -73 -15
-188 19 -256 l27 -52 -44 -20 c-57 -25 -116 -84 -146 -146 -20 -41 -24 -66
-24 -135 0 -73 4 -92 27 -136 14 -29 48 -71 76 -95 l49 -44 4 -140 c3 -121 8
-150 31 -215 65 -181 219 -332 399 -391 l73 -24 1895 0 1895 0 74 24 c181 59
333 210 398 392 23 63 27 95 31 214 l4 140 53 47 c73 66 100 129 99 233 0 63
-5 90 -24 130 -30 62 -89 121 -146 146 l-44 20 27 52 c34 68 43 183 19 256 -9
27 -16 52 -16 54 0 2 21 17 46 33 48 31 101 96 125 154 23 56 18 175 -10 237
-21 47 -107 143 -128 143 -27 1 -33 17 -18 53 21 51 19 143 -5 196 -11 24 -19
45 -18 46 2 1 20 12 41 25 57 34 113 111 137 187 24 78 25 113 5 216 -83 434
-274 807 -570 1116 -193 201 -386 343 -630 461 -163 80 -264 116 -436 159
-226 56 -303 61 -915 61 l-555 0 -24 -25z m1835 -2543 c0 -10 10 -28 23 -40
22 -21 27 -21 522 -24 559 -3 540 -1 586 -75 32 -51 32 -127 1 -171 -25 -34
-176 -138 -232 -158 -44 -16 -107 -17 -150 -3 -17 7 -70 36 -116 65 -160 99
-305 99 -458 -2 -154 -103 -208 -100 -399 19 -137 84 -281 76 -443 -27 -129
-82 -203 -86 -315 -15 -132 83 -164 94 -269 94 -105 0 -137 -11 -268 -94 -113
-71 -186 -68 -316 15 -162 103 -306 111 -443 27 -190 -119 -247 -122 -392 -24
l-63 43 4 107 c5 114 16 151 57 178 24 17 102 18 1246 23 671 3 1221 6 1223 8
2 1 10 18 18 37 l14 35 85 0 c76 0 85 -2 85 -18z m-3265 -76 c64 -27 75 -61
75 -227 l0 -146 -25 -11 c-39 -18 -99 -25 -148 -18 -42 7 -167 79 -243 140
-89 73 -53 233 60 265 52 15 242 13 281 -3z m1249 -420 c26 -8 76 -33 111 -56
94 -61 152 -80 243 -80 93 1 128 13 235 78 146 90 214 90 349 2 94 -61 150
-80 243 -80 88 0 148 20 241 81 35 23 81 47 102 55 40 14 102 18 101 7 -1 -10
-848 -768 -859 -768 -13 0 -859 763 -853 769 10 10 36 7 87 -8z m432 -673 c90
-80 164 -149 163 -152 -1 -16 -150 -101 -192 -111 -79 -17 -123 -5 -238 70
-86 55 -150 75 -186 58 -71 -34 -64 -115 13 -144 24 -9 79 -39 122 -66 100
-63 163 -82 261 -76 84 5 140 26 236 88 120 77 193 75 325 -9 105 -67 163 -84
264 -79 88 5 136 23 254 97 109 68 191 63 312 -19 83 -56 153 -80 238 -80 91
0 151 19 247 80 44 28 98 56 120 62 61 16 131 -2 217 -59 40 -26 96 -55 123
-65 67 -23 184 -23 254 1 l54 19 -6 -77 c-9 -129 -53 -225 -147 -318 -52 -51
-156 -107 -228 -122 -38 -8 -579 -11 -1875 -11 -1605 0 -1830 2 -1882 15 -210
55 -365 251 -365 461 l0 51 53 -18 c63 -22 176 -24 240 -5 26 8 83 37 127 66
94 60 163 79 225 62 22 -6 76 -34 120 -62 96 -61 156 -80 247 -80 79 0 174 29
201 61 27 33 22 83 -10 109 -30 23 -38 23 -133 -4 -73 -21 -138 -8 -219 44
-114 74 -139 83 -233 88 -108 5 -161 -10 -267 -78 -109 -70 -194 -84 -271 -45
-30 16 -156 97 -188 122 -32 25 -55 97 -47 145 8 46 47 95 90 114 24 11 203
13 923 14 l894 0 164 -147z m2647 133 c47 -19 85 -68 93 -121 10 -73 -23 -128
-116 -187 -108 -68 -140 -84 -182 -92 -57 -10 -126 11 -209 64 -106 68 -159
83 -267 78 -94 -5 -119 -14 -233 -88 -119 -77 -204 -73 -342 18 -91 59 -152
76 -258 70 -80 -4 -131 -24 -246 -96 -107 -67 -189 -63 -310 16 -39 26 -71 51
-70 55 2 5 74 73 162 152 l160 144 893 0 c732 1 899 -1 925 -13z"/>
<path d="M1268 4093 c-54 -54 -101 -107 -104 -119 -8 -31 22 -83 51 -90 45
-11 69 4 163 99 81 83 92 98 92 130 0 26 -7 41 -26 56 -48 38 -69 29 -176 -76z"/>
<path d="M2508 4092 c-85 -84 -99 -102 -100 -131 -1 -26 6 -40 26 -58 48 -41
69 -33 178 75 84 82 99 103 100 130 1 43 -35 82 -75 82 -25 0 -48 -18 -129
-98z"/>
<path d="M3748 4092 c-88 -88 -98 -102 -98 -134 0 -28 7 -42 26 -57 48 -38 69
-29 176 76 54 54 101 107 104 119 7 26 -19 79 -41 88 -48 18 -68 6 -167 -92z"/>
<path d="M1835 3590 c-27 -10 -42 -29 -50 -63 -7 -25 2 -37 96 -132 89 -91
107 -105 136 -105 20 0 41 8 53 20 12 12 20 33 20 53 0 29 -14 47 -104 135
-57 56 -109 102 -117 101 -8 0 -23 -4 -34 -9z"/>
<path d="M3073 3590 c-27 -11 -43 -40 -43 -77 0 -23 20 -48 98 -126 80 -80
103 -97 127 -97 63 0 99 55 71 108 -17 32 -161 175 -193 191 -25 13 -30 13
-60 1z"/>
</g>
</svg>
