<?xml version="1.0" standalone="no"?>
<!DOCTYPE svg PUBLIC "-//W3C//DTD SVG 20010904//EN"
 "http://www.w3.org/TR/2001/REC-SVG-20010904/DTD/svg10.dtd">
<svg version="1.0" xmlns="http://www.w3.org/2000/svg"
 width="60.000000pt" height="60.000000pt" viewBox="0 0 512.000000 512.000000"
 preserveAspectRatio="xMidYMid meet">

<g transform="translate(0.000000,512.000000) scale(0.100000,-0.100000)"
fill="#3E84D8" stroke="none">
<path d="M1975 4935 c-14 -13 -25 -36 -25 -50 0 -14 11 -37 25 -50 l24 -25
555 0 c608 0 672 -4 892 -60 653 -165 1181 -639 1418 -1272 42 -113 93 -315
102 -402 5 -54 3 -67 -23 -116 -21 -40 -42 -63 -78 -85 l-48 -30 -2256 0
-2256 0 -47 28 c-52 30 -95 93 -105 150 -3 18 5 84 16 146 61 317 223 656 437
912 257 309 638 555 1016 656 123 33 150 52 146 101 -2 24 -11 41 -30 55 -25
19 -31 19 -85 8 -276 -62 -619 -232 -863 -428 -98 -79 -289 -277 -364 -376
-212 -284 -353 -607 -416 -960 -28 -155 32 -308 148 -378 20 -12 38 -23 40
-24 1 -1 -7 -22 -18 -46 -24 -53 -26 -145 -5 -196 15 -36 9 -52 -18 -53 -4 0
-30 -20 -56 -45 -67 -63 -95 -129 -96 -225 0 -114 46 -203 135 -261 27 -18 50
-34 50 -36 0 -2 -7 -27 -16 -54 -24 -73 -15 -188 19 -256 l27 -52 -44 -20
c-57 -25 -116 -84 -146 -146 -20 -41 -24 -66 -24 -135 0 -73 4 -92 27 -136 14
-29 48 -71 76 -95 l49 -44 4 -140 c3 -121 8 -150 31 -215 65 -181 219 -332
399 -391 l73 -24 1895 0 1895 0 74 24 c181 59 333 210 398 392 23 63 27 95 31
214 l4 140 53 47 c73 66 100 129 99 233 0 63 -5 90 -24 130 -30 62 -89 121
-146 146 l-44 20 27 52 c34 68 43 183 19 256 -9 27 -16 52 -16 54 0 2 21 17
46 33 48 31 101 96 125 154 23 56 18 175 -10 237 -21 47 -107 143 -128 143
-27 1 -33 17 -18 53 21 51 19 143 -5 196 -11 24 -19 45 -18 46 2 1 20 12 41
25 57 34 113 111 137 187 24 78 25 113 5 216 -83 434 -274 807 -570 1116 -193
201 -386 343 -630 461 -163 80 -264 116 -436 159 -226 56 -303 61 -915 61
l-555 0 -24 -25z m2806 -2274 c48 -49 34 -142 -26 -169 -19 -9 -145 -12 -461
-12 l-435 0 -24 -25 c-30 -29 -32 -64 -6 -96 l19 -24 509 -5 508 -5 33 -23
c70 -50 92 -156 45 -221 -23 -31 -135 -110 -210 -147 -45 -22 -63 -26 -117
-22 -53 3 -74 10 -123 41 -32 21 -87 52 -123 70 -58 28 -74 31 -155 31 -81 0
-97 -3 -155 -31 -36 -18 -91 -49 -122 -69 -102 -65 -185 -61 -304 18 -43 27
-94 56 -114 63 -108 38 -233 26 -327 -33 -189 -117 -250 -121 -387 -29 -153
103 -314 112 -451 25 -27 -18 -74 -45 -104 -60 -92 -48 -173 -36 -286 42 -87
60 -131 74 -230 73 -105 0 -145 -13 -242 -76 -141 -91 -211 -91 -353 0 l-59
38 0 105 c-1 123 14 165 69 192 33 17 113 18 1234 18 l1200 0 23 22 c33 30 31
80 -3 107 -27 21 -28 21 -1229 21 -1332 0 -1262 3 -1343 -66 -24 -20 -55 -59
-70 -88 -27 -51 -27 -52 -30 -291 -3 -228 -5 -241 -24 -262 -27 -29 -77 -30
-109 -4 -24 19 -24 21 -29 268 -6 278 -6 281 -83 361 -55 57 -124 82 -225 82
-109 0 -151 30 -152 108 0 35 6 49 29 73 l29 29 2192 0 2192 0 29 -29z m-4220
-354 c53 -36 59 -56 59 -218 l0 -147 -40 -16 c-54 -22 -136 -20 -185 3 -65 31
-197 124 -219 154 -16 21 -21 44 -21 87 0 69 20 103 81 137 35 20 53 23 165
23 115 0 129 -2 160 -23z m1229 -407 c19 -5 71 -32 115 -60 103 -65 166 -84
264 -78 83 5 135 25 248 96 34 22 80 42 103 46 63 10 115 -3 183 -46 113 -71
165 -91 248 -96 98 -6 161 13 264 78 44 28 96 55 115 60 43 12 93 13 88 2 -5
-14 -848 -767 -858 -767 -9 0 -853 753 -858 767 -5 11 45 10 88 -2z m2491 -3
c24 -8 79 -37 121 -64 43 -29 100 -56 129 -63 60 -15 190 -8 232 11 39 18 49
1 45 -77 -4 -70 -30 -116 -86 -155 l-36 -24 -730 -2 -731 -2 41 37 c22 20 99
90 171 154 l130 118 62 -31 c50 -25 79 -32 145 -36 100 -7 167 11 246 63 126
83 175 97 261 71z m-3126 -102 c107 -51 257 -44 360 16 l35 21 132 -119 c72
-65 150 -135 172 -155 l41 -37 -731 2 -730 2 -36 24 c-56 39 -82 85 -86 155
-4 80 5 94 50 75 35 -15 180 -19 233 -7 29 6 31 4 49 -37 20 -49 72 -100 122
-121 46 -19 131 -17 179 5 73 33 134 117 135 184 0 16 3 27 8 25 4 -2 34 -17
67 -33z m1073 -571 c89 -80 162 -149 162 -152 0 -4 -36 -30 -81 -59 -129 -83
-203 -82 -339 7 -88 57 -118 70 -167 70 -48 0 -73 -24 -73 -70 0 -42 17 -61
70 -79 19 -6 61 -29 95 -51 180 -117 317 -119 493 -5 135 87 209 87 345 -1
182 -118 310 -112 525 26 60 38 136 50 197 30 20 -7 72 -34 114 -61 149 -95
290 -102 425 -23 140 82 168 94 220 94 56 0 111 -22 181 -70 68 -47 123 -68
195 -75 60 -6 148 7 203 30 15 6 17 0 17 -58 0 -185 -126 -366 -307 -439 l-58
-23 -1865 -3 c-1832 -2 -1866 -2 -1930 17 -68 21 -144 64 -194 110 -46 42
-105 139 -126 209 -17 54 -28 192 -16 192 2 0 19 -6 37 -14 99 -41 241 -27
336 32 32 20 82 48 112 64 91 48 173 36 286 -42 106 -73 212 -94 325 -66 104
26 148 73 122 131 -19 41 -55 49 -123 25 -100 -34 -144 -26 -264 50 -103 65
-166 84 -264 78 -83 -5 -134 -25 -250 -97 -116 -74 -185 -67 -340 34 -120 78
-136 99 -136 176 0 64 18 98 75 137 l33 22 901 0 901 0 163 -146z m2662 124
c57 -39 75 -73 75 -137 0 -77 -16 -98 -136 -176 -155 -101 -224 -108 -340 -34
-116 72 -167 92 -250 97 -98 6 -161 -13 -264 -78 -152 -96 -201 -94 -375 16
-70 44 -137 64 -215 64 -84 0 -141 -19 -234 -79 -141 -90 -210 -92 -340 -8
-45 29 -81 55 -81 59 0 3 73 72 163 152 l162 146 901 0 901 0 33 -22z"/>
<path d="M1365 4181 c-11 -5 -59 -49 -107 -99 -77 -78 -88 -94 -88 -125 0 -39
36 -77 73 -77 32 0 227 199 227 232 0 51 -58 89 -105 69z"/>
<path d="M2595 4171 c-16 -10 -65 -54 -107 -99 -88 -90 -98 -122 -53 -167 45
-46 79 -30 193 89 92 96 102 126 57 171 -29 30 -50 31 -90 6z"/>
<path d="M3754 4088 c-112 -110 -123 -133 -85 -179 13 -17 29 -23 56 -23 33 0
45 9 131 96 83 84 94 99 94 131 0 39 -36 77 -73 77 -12 0 -61 -41 -123 -102z"/>
<path d="M1810 3570 c-12 -12 -20 -33 -20 -53 0 -29 13 -46 99 -130 108 -107
137 -119 179 -74 42 45 31 71 -75 178 -84 86 -101 99 -130 99 -20 0 -41 -8
-53 -20z"/>
<path d="M3050 3570 c-12 -12 -20 -33 -20 -52 0 -27 15 -47 98 -130 81 -81
103 -98 128 -98 41 0 74 33 74 73 0 28 -14 47 -98 130 -83 83 -102 97 -130 97
-19 0 -40 -8 -52 -20z"/>
</g>
</svg>
