<?xml version="1.0" standalone="no"?>
<!DOCTYPE svg PUBLIC "-//W3C//DTD SVG 20010904//EN"
 "http://www.w3.org/TR/2001/REC-SVG-20010904/DTD/svg10.dtd">
<svg version="1.0" xmlns="http://www.w3.org/2000/svg"
 width="30.000000pt" height="30.000000pt" viewBox="0 0 512.000000 512.000000"
 preserveAspectRatio="xMidYMid meet">

<g transform="translate(0.000000,512.000000) scale(0.100000,-0.100000)"
fill="#000000" stroke="none">
<path d="M2295 5109 c-200 -18 -561 -92 -641 -130 -43 -21 -61 -59 -45 -96 21
-52 51 -57 150 -29 846 243 1792 83 2460 -417 409 -306 673 -753 697 -1182 8
-134 -4 -168 -64 -185 -26 -8 -703 -10 -2314 -8 l-2278 3 -27 28 c-27 27 -28
30 -26 135 4 244 94 502 261 753 193 287 447 501 811 684 105 52 131 70 139
92 17 50 -17 102 -66 103 -34 0 -284 -130 -410 -212 -407 -269 -695 -633 -825
-1044 -54 -171 -83 -428 -57 -510 27 -87 95 -152 182 -174 l43 -11 -3 -127
c-4 -151 5 -188 59 -247 l40 -43 -27 -54 c-16 -29 -31 -78 -35 -108 -4 -30
-14 -80 -23 -110 -12 -41 -16 -101 -16 -251 0 -223 9 -288 47 -337 21 -28 24
-38 15 -51 -42 -58 -56 -100 -60 -177 -4 -73 -1 -88 24 -144 22 -50 25 -65 14
-68 -26 -9 -102 -86 -123 -127 -20 -36 -22 -58 -25 -230 -4 -230 8 -300 72
-430 94 -189 240 -312 446 -377 l75 -23 1795 0 c1704 0 1798 1 1860 18 251 70
444 265 512 516 18 64 21 107 22 271 1 179 -1 199 -20 241 -21 45 -79 112
-122 139 l-22 15 24 48 c49 95 43 208 -15 301 l-30 49 20 21 c46 49 51 81 51
336 0 198 -3 247 -16 278 -9 20 -17 60 -18 87 -2 32 -14 72 -34 112 l-31 61
24 16 c13 9 37 37 52 63 27 46 28 53 28 190 l0 142 42 10 c62 16 124 68 156
131 28 54 29 57 24 190 -3 74 -12 171 -22 215 -38 182 -134 411 -242 580 -359
556 -1045 949 -1853 1060 -138 19 -515 27 -655 14z m614 -2203 c-24 -20 -816
-418 -851 -426 -34 -9 -60 -9 -96 -1 -29 6 -202 91 -436 215 -213 112 -390
207 -393 210 -4 3 396 6 887 6 491 0 891 -2 889 -4z m-1141 -513 l133 -68 103
0 103 0 137 68 137 67 1103 0 1103 0 32 -59 c46 -87 44 -93 -47 -138 -42 -22
-106 -56 -142 -76 -125 -69 -266 -69 -390 0 -36 20 -88 49 -116 64 -80 45
-164 62 -274 57 -113 -6 -180 -28 -283 -92 -102 -64 -147 -78 -247 -78 -100 0
-143 14 -245 77 -121 76 -170 89 -315 89 -144 0 -165 -6 -311 -90 -121 -69
-144 -76 -252 -76 -97 0 -68 -12 -317 118 -159 83 -354 72 -526 -29 -117 -68
-138 -78 -207 -87 -98 -14 -180 3 -278 60 -48 28 -112 61 -143 75 -32 14 -56
31 -56 40 0 8 14 44 32 80 l32 65 551 0 550 0 133 -67z m2838 -864 c115 -55
120 -214 9 -276 l-40 -23 -1104 0 c-1097 0 -1105 0 -1147 -21 -69 -33 -89 -75
-89 -187 0 -90 1 -95 28 -118 37 -32 62 -30 98 5 26 27 29 36 29 95 l0 66
1166 0 1166 0 39 -39 39 -39 0 -177 c0 -266 -32 -359 -169 -496 -86 -86 -167
-131 -279 -154 -102 -22 -3473 -22 -3577 0 -216 45 -389 213 -440 426 -10 43
-15 116 -15 222 0 171 6 197 56 236 25 20 39 21 259 21 l233 0 4 -102 c3 -82
9 -113 28 -153 117 -243 454 -248 572 -8 28 58 33 78 36 165 l4 98 119 0 118
0 3 -272 c3 -262 4 -275 26 -320 90 -181 319 -239 478 -119 87 66 152 213 124
281 -11 26 -46 50 -74 50 -28 0 -65 -41 -71 -78 -16 -102 -80 -162 -172 -162
-59 0 -107 28 -137 80 -19 32 -21 56 -26 317 -6 319 -5 317 -90 361 -40 20
-59 22 -182 22 -154 0 -184 -8 -232 -59 -29 -30 -30 -37 -37 -149 -7 -129 -19
-163 -69 -205 -57 -48 -144 -48 -201 0 -51 43 -69 94 -69 201 0 107 -11 137
-67 179 -36 28 -37 28 -232 33 -182 5 -198 7 -227 27 -64 46 -84 149 -41 214
12 19 42 44 67 57 l44 22 2000 0 2000 0 42 -21z"/>
<path d="M2050 4693 c-28 -10 -59 -45 -65 -74 -7 -32 16 -83 44 -99 81 -43
174 50 131 131 -19 34 -74 55 -110 42z"/>
<path d="M2983 4665 c-32 -32 -35 -40 -30 -73 13 -80 101 -109 158 -53 47 48
38 116 -21 146 -44 23 -69 18 -107 -20z"/>
<path d="M1340 4293 c-50 -19 -76 -70 -60 -119 22 -65 95 -84 149 -38 39 33
43 89 9 128 -23 26 -70 40 -98 29z"/>
<path d="M2524 4290 c-59 -24 -72 -104 -25 -151 52 -51 128 -34 151 35 24 74
-54 147 -126 116z"/>
<path d="M3711 4286 c-84 -47 -52 -176 44 -176 44 0 95 45 95 84 0 39 -21 76
-51 92 -34 17 -57 17 -88 0z"/>
</g>
</svg>
