<svg id="svg" version="1.1" xmlns="http://www.w3.org/2000/svg" xmlns:xlink="http://www.w3.org/1999/xlink" width="40" height="40" viewBox="0, 0, 400,400"><g id="svgg"><path id="path0" d="M125.400 128.799 C 124.960 128.988,124.169 129.156,123.642 129.172 C 120.362 129.268,113.877 134.051,112.107 137.680 C 110.726 140.512,110.817 139.890,109.619 154.800 C 108.673 166.578,108.041 167.976,103.100 169.217 L 101.200 169.695 101.200 171.847 C 101.200 174.353,101.338 174.407,104.773 173.250 C 105.998 172.837,107.990 172.309,109.200 172.076 C 110.410 171.843,112.359 171.460,113.531 171.226 C 117.911 170.350,128.176 170.768,133.300 172.030 C 136.966 172.934,138.246 173.302,138.895 173.639 C 139.277 173.838,139.864 174.000,140.200 174.000 C 140.536 174.000,141.123 174.162,141.505 174.359 C 141.887 174.557,143.820 175.498,145.800 176.451 C 151.224 179.061,155.625 182.027,160.544 186.386 C 161.174 186.944,162.836 188.773,164.238 190.451 C 166.780 193.493,166.796 193.504,169.094 193.734 C 170.362 193.861,172.300 194.163,173.400 194.405 C 174.500 194.647,175.987 194.944,176.704 195.066 C 177.421 195.188,178.106 195.449,178.227 195.644 C 178.348 195.840,178.766 196.000,179.155 196.000 C 180.081 196.000,184.205 197.677,188.141 199.653 C 194.957 203.076,199.692 206.904,206.330 214.356 C 216.017 225.229,222.427 246.985,220.024 260.833 C 219.817 262.025,219.427 264.350,219.157 266.000 C 218.488 270.091,216.327 276.621,214.127 281.200 C 213.123 283.290,212.139 285.720,211.940 286.600 C 211.413 288.935,210.814 292.667,210.541 295.315 L 210.302 297.629 214.416 297.515 L 218.530 297.400 218.965 296.126 C 219.507 294.538,220.591 293.233,222.400 291.989 C 224.282 290.695,224.606 290.355,225.679 288.550 L 226.599 287.000 226.834 258.600 C 227.095 227.107,226.851 229.880,229.909 223.600 C 231.861 219.591,236.647 214.790,240.628 212.848 C 245.830 210.310,246.097 210.256,253.400 210.256 C 259.054 210.256,260.692 210.420,262.600 211.178 C 273.778 215.618,279.947 224.810,279.986 237.085 C 280.012 245.222,283.143 249.565,289.000 249.589 C 295.059 249.614,298.400 245.675,298.400 238.509 C 298.400 224.045,305.052 214.729,318.428 210.456 C 319.214 210.205,320.990 210.000,322.375 210.000 L 324.893 210.000 324.648 207.300 C 324.391 204.468,323.868 198.146,323.208 189.900 C 322.992 187.205,322.639 182.840,322.424 180.200 C 322.209 177.560,321.851 173.060,321.628 170.200 C 321.405 167.340,321.044 162.840,320.827 160.200 C 320.610 157.560,320.253 153.060,320.034 150.200 C 319.394 141.830,319.152 140.323,318.071 138.000 C 316.238 134.059,311.323 130.328,306.304 129.065 C 304.200 128.536,126.615 128.274,125.400 128.799 M118.400 184.420 C 117.410 184.597,115.756 184.754,114.724 184.770 C 113.692 184.787,112.736 184.980,112.600 185.200 C 112.464 185.420,111.868 185.600,111.275 185.600 C 108.328 185.600,97.947 190.453,95.269 193.084 C 94.977 193.371,94.392 193.790,93.969 194.017 C 92.885 194.597,93.014 195.144,94.300 195.426 C 101.350 196.972,105.396 200.853,104.537 205.246 C 104.152 207.210,102.556 209.600,101.629 209.600 C 101.393 209.600,101.200 209.780,101.200 210.000 C 101.200 210.220,100.696 210.400,100.080 210.400 C 99.464 210.400,98.740 210.620,98.470 210.890 C 98.083 211.277,97.815 211.277,97.195 210.890 C 96.764 210.620,95.958 210.400,95.405 210.400 C 94.852 210.400,94.400 210.220,94.400 210.000 C 94.400 209.780,94.038 209.600,93.595 209.600 C 93.152 209.600,92.432 209.420,91.995 209.200 C 91.558 208.980,90.842 208.620,90.405 208.400 C 89.968 208.180,89.194 208.000,88.685 208.000 C 88.176 208.000,87.589 207.840,87.380 207.643 C 86.139 206.479,72.090 206.483,71.370 207.649 C 71.251 207.842,70.533 208.000,69.776 208.000 C 69.019 208.000,68.400 208.180,68.400 208.400 C 68.400 208.620,67.948 208.800,67.395 208.800 C 66.842 208.800,66.032 208.980,65.595 209.200 C 65.158 209.420,64.442 209.780,64.005 210.000 C 63.568 210.220,62.938 210.400,62.605 210.400 C 62.272 210.400,62.000 210.580,62.000 210.800 C 62.000 211.020,61.640 211.200,61.200 211.200 C 60.760 211.200,60.400 211.359,60.400 211.553 C 60.400 211.748,60.085 212.007,59.700 212.129 C 59.013 212.347,56.793 213.606,56.400 214.001 C 56.290 214.112,55.200 214.962,53.977 215.890 C 51.495 217.775,46.298 223.053,44.809 225.200 C 44.275 225.970,43.740 226.690,43.619 226.800 C 43.498 226.910,43.129 227.540,42.800 228.200 C 42.471 228.860,42.103 229.490,41.982 229.600 C 40.472 230.976,37.304 240.307,36.346 246.200 C 34.821 255.583,36.244 266.380,40.100 274.700 L 40.888 276.400 121.444 276.400 C 201.733 276.400,202.000 276.397,202.000 275.600 C 202.000 275.160,202.180 274.800,202.400 274.800 C 202.620 274.800,202.800 274.361,202.800 273.824 C 202.800 273.287,202.980 272.736,203.200 272.600 C 203.420 272.464,203.600 272.003,203.600 271.576 C 203.600 271.149,203.780 270.800,204.000 270.800 C 204.220 270.800,204.400 270.260,204.400 269.600 C 204.400 268.940,204.580 268.400,204.800 268.400 C 205.020 268.400,205.200 267.781,205.200 267.024 C 205.200 266.267,205.380 265.536,205.600 265.400 C 205.820 265.264,206.000 264.364,206.000 263.400 C 206.000 262.436,206.180 261.536,206.400 261.400 C 206.643 261.250,206.800 258.337,206.800 254.000 C 206.800 249.663,206.643 246.750,206.400 246.600 C 206.180 246.464,206.000 245.564,206.000 244.600 C 206.000 243.636,205.820 242.736,205.600 242.600 C 205.380 242.464,205.200 241.821,205.200 241.171 C 205.200 240.521,205.020 239.632,204.800 239.195 C 204.580 238.758,204.220 238.042,204.000 237.605 C 203.780 237.168,203.600 236.544,203.600 236.218 C 203.600 235.891,203.240 234.983,202.800 234.200 C 202.360 233.417,202.000 232.526,202.000 232.221 C 202.000 231.916,201.865 231.607,201.700 231.533 C 201.535 231.460,201.062 230.770,200.648 230.000 C 198.066 225.193,193.326 219.556,189.200 216.388 C 188.210 215.628,187.340 214.870,187.267 214.703 C 187.193 214.536,186.912 214.400,186.642 214.400 C 186.372 214.400,185.802 214.075,185.375 213.678 C 184.949 213.280,184.015 212.697,183.300 212.380 C 182.585 212.064,182.000 211.669,182.000 211.502 C 182.000 211.336,181.640 211.200,181.200 211.200 C 180.760 211.200,180.400 211.020,180.400 210.800 C 180.400 210.580,180.128 210.400,179.795 210.400 C 179.462 210.400,178.832 210.220,178.395 210.000 C 177.958 209.780,177.242 209.420,176.805 209.200 C 176.368 208.980,175.659 208.800,175.229 208.800 C 174.799 208.800,174.336 208.620,174.200 208.400 C 174.064 208.180,173.344 208.000,172.600 208.000 C 171.856 208.000,171.149 207.842,171.030 207.649 C 170.308 206.480,156.088 206.486,155.366 207.656 C 155.249 207.845,154.533 208.000,153.776 208.000 C 153.019 208.000,152.400 208.180,152.400 208.400 C 152.400 208.620,152.038 208.800,151.595 208.800 C 151.152 208.800,150.432 208.980,149.995 209.200 C 149.558 209.420,148.842 209.780,148.405 210.000 C 147.968 210.220,147.194 210.400,146.685 210.400 C 146.176 210.400,145.563 210.597,145.323 210.837 C 145.007 211.153,144.660 211.153,144.069 210.837 C 143.620 210.597,142.916 210.400,142.504 210.400 C 140.527 210.400,138.000 206.809,138.000 204.000 C 138.000 199.985,140.550 197.686,147.125 195.770 L 149.650 195.034 148.462 194.017 C 146.005 191.914,145.581 191.600,145.195 191.600 C 144.978 191.600,144.800 191.420,144.800 191.200 C 144.800 190.980,144.545 190.800,144.233 190.800 C 143.922 190.800,143.607 190.656,143.533 190.479 C 142.878 188.904,131.509 185.202,124.955 184.430 C 120.962 183.959,120.993 183.959,118.400 184.420 " stroke="none" fill="#f8b480" fill-rule="evenodd"></path><path id="path1" d="M208.600 53.600 L 207.400 53.905 208.600 53.905 C 209.260 53.905,210.340 53.768,211.000 53.600 L 212.200 53.295 211.000 53.295 C 210.340 53.295,209.260 53.432,208.600 53.600 M218.200 53.600 C 218.860 53.768,219.940 53.905,220.600 53.905 L 221.800 53.905 220.600 53.600 C 219.940 53.432,218.860 53.295,218.200 53.295 L 217.000 53.295 218.200 53.600 M205.400 54.400 L 204.600 54.744 205.400 54.766 C 205.840 54.778,206.470 54.613,206.800 54.400 C 207.595 53.886,206.596 53.886,205.400 54.400 M222.400 54.400 C 222.730 54.613,223.360 54.778,223.800 54.766 L 224.600 54.744 223.800 54.400 C 222.604 53.886,221.605 53.886,222.400 54.400 M201.727 55.773 C 196.991 57.978,192.083 61.926,189.628 65.506 C 188.302 67.439,189.130 66.638,191.529 63.667 C 193.804 60.848,201.535 55.600,203.411 55.600 C 203.709 55.600,204.064 55.420,204.200 55.200 C 204.581 54.584,203.984 54.722,201.727 55.773 M227.144 56.009 C 234.211 59.401,239.883 64.958,242.651 71.200 C 243.090 72.190,243.664 73.450,243.926 74.000 L 244.404 75.000 244.150 74.000 C 242.298 66.717,232.654 56.862,225.600 55.045 C 225.050 54.903,225.745 55.337,227.144 56.009 M187.386 68.900 L 186.752 70.200 187.567 69.200 C 188.352 68.237,188.608 67.600,188.210 67.600 C 188.106 67.600,187.735 68.185,187.386 68.900 M185.855 71.855 C 185.476 72.649,185.253 73.386,185.359 73.493 C 185.466 73.599,185.836 73.009,186.182 72.182 C 186.998 70.229,186.749 69.980,185.855 71.855 M184.629 75.029 C 184.481 75.615,184.438 76.172,184.532 76.266 C 184.627 76.360,184.824 75.958,184.971 75.371 C 185.119 74.785,185.162 74.228,185.068 74.134 C 184.973 74.040,184.776 74.442,184.629 75.029 M244.456 75.800 C 244.456 76.240,244.611 76.960,244.800 77.400 L 245.144 78.200 245.144 77.400 C 245.144 76.960,244.989 76.240,244.800 75.800 L 244.456 75.000 244.456 75.800 M183.778 78.178 C 183.627 78.981,183.604 79.737,183.726 79.860 C 183.848 79.982,184.072 79.425,184.222 78.622 C 184.373 77.819,184.396 77.063,184.274 76.940 C 184.152 76.818,183.928 77.375,183.778 78.178 M245.384 84.400 C 245.384 88.094,245.499 89.953,245.669 89.000 C 246.036 86.941,246.036 81.859,245.669 79.800 C 245.499 78.847,245.384 80.706,245.384 84.400 M183.324 84.200 C 183.326 85.520,183.401 86.012,183.490 85.293 C 183.579 84.574,183.577 83.494,183.486 82.893 C 183.395 82.292,183.322 82.880,183.324 84.200 M183.668 89.200 C 183.662 89.750,183.811 90.560,184.000 91.000 L 184.344 91.800 184.332 91.000 C 184.326 90.560,184.176 89.750,184.000 89.200 L 183.680 88.200 183.668 89.200 M244.600 92.000 C 244.448 92.691,244.407 93.341,244.509 93.442 C 244.611 93.544,244.809 93.053,244.950 92.350 C 245.283 90.683,244.960 90.360,244.600 92.000 M184.412 92.800 C 184.412 93.130,184.587 93.670,184.800 94.000 C 185.145 94.533,185.188 94.533,185.188 94.000 C 185.188 93.670,185.013 93.130,184.800 92.800 C 184.455 92.267,184.412 92.267,184.412 92.800 M243.777 94.643 C 243.644 95.059,243.363 95.828,243.152 96.352 C 242.942 96.875,242.844 97.378,242.935 97.468 C 243.026 97.559,243.400 96.883,243.767 95.967 C 244.133 95.050,244.340 94.207,244.226 94.093 C 244.112 93.979,243.910 94.226,243.777 94.643 M185.218 95.111 C 185.099 98.424,193.380 108.513,198.441 111.222 C 199.803 111.951,199.239 111.289,197.700 110.353 C 193.693 107.916,188.673 102.023,186.374 97.057 C 185.748 95.705,185.228 94.830,185.218 95.111 M240.976 100.615 C 238.388 105.041,232.922 110.006,228.268 112.159 C 227.425 112.549,226.831 112.965,226.949 113.083 C 227.263 113.397,231.442 110.961,234.129 108.898 C 236.801 106.845,240.180 102.906,241.763 99.998 C 243.340 97.100,242.771 97.546,240.976 100.615 M203.200 113.600 C 203.530 113.813,204.070 113.988,204.400 113.988 C 204.933 113.988,204.933 113.945,204.400 113.600 C 204.070 113.387,203.530 113.212,203.200 113.212 C 202.667 113.212,202.667 113.255,203.200 113.600 M205.600 114.400 C 205.930 114.613,206.470 114.788,206.800 114.788 C 207.333 114.788,207.333 114.745,206.800 114.400 C 206.470 114.187,205.930 114.012,205.600 114.012 C 205.067 114.012,205.067 114.055,205.600 114.400 M222.400 114.400 C 221.605 114.914,222.604 114.914,223.800 114.400 L 224.600 114.056 223.800 114.034 C 223.360 114.022,222.730 114.187,222.400 114.400 M209.000 115.200 C 209.660 115.368,210.920 115.504,211.800 115.503 L 213.400 115.500 211.600 115.180 C 209.157 114.745,207.270 114.760,209.000 115.200 M217.800 115.200 L 216.200 115.486 217.800 115.503 C 218.680 115.513,219.850 115.376,220.400 115.200 L 221.400 114.880 220.400 114.897 C 219.850 114.906,218.680 115.042,217.800 115.200 M124.138 128.306 C 123.884 128.468,164.772 128.600,215.000 128.600 C 265.228 128.600,306.116 128.468,305.862 128.306 C 305.608 128.144,264.720 128.012,215.000 128.012 C 165.280 128.012,124.392 128.144,124.138 128.306 M119.350 130.034 C 113.592 132.864,109.949 138.026,110.059 143.200 L 110.105 145.400 110.416 142.741 C 111.115 136.749,114.716 132.391,121.157 129.742 C 122.391 129.234,123.040 128.821,122.600 128.824 C 122.160 128.827,120.697 129.372,119.350 130.034 M308.843 129.742 C 313.948 131.842,317.159 134.849,318.811 139.077 C 319.224 140.135,319.571 140.683,319.581 140.296 C 319.679 136.600,311.325 128.759,307.343 128.809 C 306.934 128.815,307.609 129.234,308.843 129.742 M319.683 142.600 C 319.685 143.480,319.821 145.280,319.985 146.600 L 320.282 149.000 320.301 146.000 C 320.312 144.350,320.176 142.550,320.000 142.000 C 319.727 141.147,319.680 141.235,319.683 142.600 M109.579 145.700 C 109.567 145.755,109.379 148.230,109.160 151.200 C 108.098 165.617,108.094 165.639,106.165 167.156 C 105.563 167.630,104.604 168.119,104.035 168.244 C 101.715 168.751,100.981 169.160,102.800 168.932 C 108.033 168.277,108.632 166.633,109.803 149.700 C 110.016 146.618,109.884 144.261,109.579 145.700 M320.493 152.000 C 320.493 153.210,320.625 155.370,320.786 156.800 L 321.078 159.400 321.116 156.200 C 321.137 154.440,321.005 152.280,320.823 151.400 C 320.495 149.813,320.492 149.817,320.493 152.000 M321.296 162.000 C 321.298 163.210,321.429 165.460,321.587 167.000 L 321.874 169.800 321.914 166.400 C 321.936 164.530,321.805 162.280,321.623 161.400 C 321.295 159.814,321.292 159.820,321.296 162.000 M322.169 174.000 C 322.317 176.310,322.603 180.090,322.803 182.400 C 323.004 184.710,323.368 189.210,323.611 192.400 C 323.854 195.590,324.221 199.858,324.427 201.884 C 324.632 203.911,324.800 206.566,324.800 207.784 L 324.800 210.000 323.006 210.000 C 316.938 210.000,309.228 213.923,304.759 219.283 C 302.796 221.638,299.966 226.894,300.027 228.074 C 300.042 228.363,300.254 228.150,300.498 227.600 C 302.870 222.264,303.531 221.240,306.585 218.171 C 311.444 213.291,317.719 210.400,323.455 210.400 L 325.299 210.400 325.050 205.700 C 324.913 203.115,324.621 198.795,324.400 196.100 C 323.632 186.694,323.251 181.759,322.854 176.061 C 322.634 172.904,322.330 170.204,322.177 170.061 C 322.024 169.917,322.021 171.690,322.169 174.000 M120.500 171.076 C 120.885 171.176,121.515 171.176,121.900 171.076 C 122.285 170.975,121.970 170.893,121.200 170.893 C 120.430 170.893,120.115 170.975,120.500 171.076 M112.800 171.600 C 111.406 171.893,111.408 171.895,113.200 171.924 C 114.190 171.941,115.720 171.805,116.600 171.623 L 118.200 171.292 116.200 171.299 C 115.100 171.302,113.570 171.438,112.800 171.600 M124.832 171.345 C 124.960 171.484,126.580 171.780,128.432 172.003 C 135.206 172.819,135.197 172.818,132.800 172.198 C 130.393 171.575,124.460 170.940,124.832 171.345 M107.600 172.634 C 106.390 172.953,104.645 173.467,103.722 173.775 C 102.799 174.084,101.674 174.240,101.222 174.122 C 100.755 174.000,100.400 174.100,100.400 174.353 C 100.400 175.129,103.504 174.578,107.119 173.160 C 107.624 172.962,108.524 172.797,109.119 172.794 C 109.713 172.791,110.470 172.613,110.800 172.400 C 111.696 171.821,110.289 171.924,107.600 172.634 M135.400 173.200 C 135.536 173.420,136.166 173.600,136.800 173.600 C 137.434 173.600,138.064 173.780,138.200 174.000 C 138.336 174.220,138.799 174.400,139.229 174.400 C 139.659 174.400,140.323 174.559,140.705 174.753 C 141.087 174.948,141.850 175.289,142.400 175.511 C 149.848 178.526,156.097 182.888,162.356 189.443 L 166.605 193.893 169.603 194.376 C 194.497 198.395,212.338 215.360,218.244 240.631 C 220.453 250.085,219.738 264.063,216.559 273.552 C 215.493 276.735,215.470 277.917,216.529 275.109 C 229.135 241.680,208.366 201.930,174.600 194.861 C 170.054 193.910,168.291 193.600,167.418 193.600 C 166.781 193.600,165.997 192.954,164.870 191.500 C 162.376 188.281,157.826 184.072,153.400 180.888 C 148.438 177.319,134.183 171.230,135.400 173.200 M120.500 183.476 C 120.885 183.576,121.515 183.576,121.900 183.476 C 122.285 183.375,121.970 183.293,121.200 183.293 C 120.430 183.293,120.115 183.375,120.500 183.476 M112.200 184.241 C 106.932 185.500,98.797 188.898,97.090 190.552 C 96.820 190.813,95.970 191.465,95.200 192.000 C 91.032 194.900,90.991 195.365,94.796 196.578 C 101.511 198.721,103.596 200.488,103.599 204.041 C 103.602 208.065,98.963 211.349,95.695 209.636 C 94.234 208.871,90.662 207.600,89.970 207.600 C 89.573 207.600,89.148 207.439,89.026 207.242 C 88.441 206.296,76.654 205.683,73.006 206.410 C 63.573 208.288,55.919 212.290,49.191 218.860 C 47.760 220.257,46.052 222.120,45.395 223.000 C 44.738 223.879,43.885 224.948,43.500 225.375 C 43.115 225.802,42.800 226.387,42.800 226.675 C 42.800 226.964,42.665 227.201,42.500 227.203 C 42.335 227.205,42.001 227.610,41.759 228.103 C 41.516 228.596,40.762 230.032,40.084 231.293 C 33.584 243.376,33.048 261.394,38.817 273.896 C 39.248 274.828,39.600 275.745,39.600 275.934 C 39.600 277.678,35.786 277.600,121.231 277.594 C 165.324 277.591,201.582 277.456,201.805 277.294 C 202.459 276.820,204.384 272.607,205.229 269.800 C 205.494 268.920,205.854 267.840,206.028 267.400 C 206.852 265.324,207.770 258.343,207.764 254.200 C 207.746 240.396,202.776 228.299,193.206 218.766 C 189.017 214.594,179.235 208.400,176.834 208.400 C 176.589 208.400,176.077 208.238,175.695 208.039 C 175.011 207.684,173.654 207.310,169.894 206.441 C 167.449 205.875,158.790 205.870,156.646 206.432 C 155.741 206.669,154.280 207.050,153.400 207.277 C 152.520 207.505,151.350 207.875,150.800 208.099 C 150.250 208.323,149.440 208.641,149.000 208.804 C 148.560 208.967,147.697 209.303,147.081 209.550 C 141.260 211.891,136.102 204.560,140.403 200.060 C 141.367 199.051,147.137 196.400,148.368 196.400 C 149.213 196.400,150.800 195.444,150.800 194.936 C 150.800 194.641,150.665 194.399,150.500 194.398 C 150.335 194.397,149.660 193.892,149.000 193.277 C 143.668 188.302,131.941 183.523,125.400 183.659 C 123.657 183.695,123.836 183.763,126.800 184.187 C 135.287 185.400,142.157 188.371,148.914 193.751 L 150.428 194.957 149.514 195.464 C 149.011 195.743,148.283 195.978,147.896 195.986 C 147.508 195.994,146.338 196.381,145.296 196.847 C 144.253 197.312,142.857 197.931,142.194 198.221 C 138.734 199.734,137.292 204.238,139.310 207.231 C 141.565 210.579,144.298 211.136,149.200 209.250 C 158.422 205.700,166.781 205.484,175.800 208.563 C 191.225 213.828,202.219 226.465,206.283 243.600 C 208.515 253.014,205.824 272.519,201.728 276.615 C 201.218 277.124,190.796 277.200,121.034 277.200 L 40.926 277.200 40.012 275.300 C 37.740 270.573,37.170 268.703,35.621 260.869 C 35.076 258.111,35.079 249.867,35.626 247.131 C 35.860 245.959,36.236 244.010,36.461 242.800 C 36.686 241.590,37.035 240.287,37.235 239.905 C 37.436 239.523,37.600 238.859,37.600 238.429 C 37.600 237.999,37.780 237.536,38.000 237.400 C 38.220 237.264,38.400 236.877,38.400 236.541 C 38.400 235.449,41.878 228.675,43.942 225.748 C 55.863 208.842,77.334 201.871,94.000 209.494 C 101.338 212.851,107.841 204.581,102.007 199.312 C 101.028 198.427,95.496 195.994,94.474 195.998 C 85.782 196.033,104.917 185.528,116.200 184.070 L 119.000 183.709 116.800 183.688 C 115.590 183.676,113.520 183.925,112.200 184.241 M247.000 210.593 C 239.377 212.514,233.082 217.486,229.774 224.200 C 227.157 229.510,227.200 228.957,227.200 257.346 C 227.200 289.134,227.318 288.322,222.117 292.431 C 220.286 293.877,219.643 294.695,219.050 296.331 L 218.300 298.400 214.337 298.400 C 209.491 298.400,209.674 298.724,210.760 292.062 C 211.677 286.438,211.744 285.723,211.313 286.154 C 211.155 286.312,210.900 287.467,210.747 288.721 C 210.594 289.974,210.259 292.260,210.002 293.800 C 209.745 295.340,209.474 297.500,209.399 298.600 C 209.325 299.700,208.883 302.940,208.418 305.800 C 207.952 308.660,207.126 313.790,206.581 317.200 C 206.037 320.610,205.414 324.435,205.196 325.700 C 204.506 329.707,204.044 332.517,203.600 335.400 C 203.363 336.940,202.996 339.235,202.784 340.500 C 202.573 341.765,202.227 343.835,202.016 345.100 C 201.804 346.365,201.452 348.570,201.234 350.000 C 200.475 354.967,200.352 355.660,200.116 356.275 C 199.918 356.790,200.018 356.819,200.713 356.447 C 201.172 356.201,202.526 356.000,203.722 356.000 L 205.896 356.000 206.389 357.761 C 206.955 359.782,208.765 361.681,210.760 362.346 C 211.754 362.678,232.512 362.800,288.060 362.800 C 329.827 362.800,364.000 362.882,364.000 362.981 C 364.000 363.081,363.797 363.666,363.548 364.281 C 359.905 373.309,353.675 378.791,345.000 380.603 C 343.680 380.879,343.057 381.126,343.616 381.152 C 351.035 381.500,363.395 370.911,364.103 363.600 L 364.200 362.600 287.800 362.400 C 214.699 362.209,211.336 362.168,209.923 361.466 C 205.760 359.395,205.408 353.341,209.314 350.978 C 210.569 350.218,212.092 350.195,273.400 350.000 L 336.200 349.800 336.090 347.200 C 336.030 345.770,335.812 342.710,335.607 340.400 C 335.402 338.090,335.043 333.770,334.810 330.800 C 334.576 327.830,334.208 323.195,333.992 320.500 C 333.777 317.805,333.420 313.350,333.200 310.600 C 332.980 307.850,332.620 303.350,332.400 300.600 C 332.180 297.850,331.825 293.395,331.610 290.700 C 331.396 288.005,331.036 283.505,330.810 280.700 C 330.585 277.895,330.220 273.350,330.000 270.600 C 329.780 267.850,329.416 263.305,329.192 260.500 C 328.967 257.695,328.611 253.330,328.401 250.800 C 328.190 248.270,327.821 243.680,327.581 240.600 C 327.341 237.520,326.930 232.300,326.668 229.000 L 326.191 223.000 323.890 222.880 C 316.548 222.497,312.044 227.909,311.540 237.720 C 310.947 249.259,307.316 255.982,299.547 259.925 C 283.911 267.862,267.213 256.896,267.196 238.680 C 267.185 227.875,262.189 222.470,252.570 222.860 C 246.890 223.090,243.134 225.489,240.859 230.341 L 239.800 232.600 239.579 260.800 C 239.359 288.952,239.357 289.004,238.447 291.307 C 234.392 301.574,225.099 307.286,220.665 302.237 C 217.983 299.184,218.864 295.127,222.800 292.406 C 225.126 290.798,225.541 290.213,227.144 286.281 C 227.470 285.482,227.600 277.570,227.600 258.601 C 227.600 229.954,227.589 230.116,229.760 225.375 C 232.815 218.703,238.569 213.591,245.200 211.659 C 248.837 210.600,250.139 210.400,253.400 210.400 C 257.512 210.400,260.992 211.158,264.798 212.882 C 269.974 215.226,277.200 222.752,277.200 225.798 C 277.200 226.103,277.357 226.450,277.548 226.568 C 277.740 226.686,278.027 227.372,278.186 228.092 C 278.345 228.811,278.557 229.193,278.657 228.941 C 279.672 226.385,272.086 216.305,267.017 213.472 C 261.294 210.273,253.000 209.080,247.000 210.593 M299.435 229.453 C 299.290 229.830,299.013 233.082,298.819 236.678 C 298.365 245.116,297.236 247.371,292.555 249.199 C 291.480 249.619,290.936 249.971,291.346 249.981 C 295.744 250.092,299.200 244.742,299.200 237.823 C 299.200 235.581,299.392 232.706,299.628 231.434 C 300.049 229.153,299.949 228.115,299.435 229.453 M278.887 230.800 C 278.891 231.570,279.032 232.740,279.200 233.400 C 279.490 234.542,279.506 234.522,279.513 233.000 C 279.517 232.120,279.376 230.950,279.200 230.400 C 278.911 229.498,278.880 229.537,278.887 230.800 M279.606 241.633 C 279.609 242.385,279.792 243.270,280.012 243.600 C 280.291 244.019,280.333 243.658,280.150 242.400 C 279.825 240.159,279.598 239.840,279.606 241.633 M280.400 244.728 C 280.400 246.251,285.393 250.045,287.284 249.958 C 287.999 249.925,287.891 249.816,286.792 249.458 C 284.575 248.737,282.515 247.281,281.588 245.780 C 280.738 244.405,280.400 244.106,280.400 244.728 M214.789 278.245 C 214.551 278.880,213.712 280.711,212.924 282.313 C 212.137 283.915,211.578 285.312,211.684 285.417 C 211.789 285.522,212.729 283.793,213.773 281.573 C 214.817 279.354,215.570 277.437,215.447 277.314 C 215.323 277.190,215.028 277.609,214.789 278.245 M44.926 291.700 C 45.052 292.635,45.339 294.480,45.564 295.800 C 45.788 297.120,46.171 299.460,46.414 301.000 C 46.658 302.540,47.024 304.835,47.229 306.100 C 47.433 307.365,47.765 309.435,47.966 310.700 C 48.167 311.965,48.813 315.970,49.400 319.600 C 50.956 329.215,51.527 332.776,52.383 338.200 C 52.997 342.090,53.603 345.839,54.000 348.200 C 54.694 352.327,55.280 355.869,55.621 358.000 C 55.815 359.210,56.161 361.370,56.390 362.800 C 56.619 364.230,56.970 366.390,57.170 367.600 C 57.370 368.810,57.653 370.610,57.799 371.600 C 58.500 376.377,61.300 379.502,66.000 380.755 C 68.747 381.487,79.450 381.201,79.251 380.400 C 79.169 380.070,78.944 378.495,78.751 376.900 C 78.558 375.305,78.206 372.605,77.970 370.900 C 77.733 369.195,77.385 366.630,77.196 365.200 C 76.482 359.789,75.789 354.683,74.782 347.400 C 74.539 345.640,74.187 343.030,74.000 341.600 C 73.813 340.170,73.467 337.605,73.230 335.900 C 72.994 334.195,72.626 331.495,72.414 329.900 C 72.201 328.305,71.853 325.740,71.639 324.200 C 71.426 322.660,71.061 319.960,70.828 318.200 C 70.595 316.440,70.229 313.740,70.015 312.200 C 68.079 298.285,68.101 298.781,69.328 296.686 C 71.565 292.869,76.396 292.076,79.359 295.039 C 81.131 296.811,81.440 297.733,82.199 303.522 C 82.555 306.229,83.114 310.459,83.443 312.922 C 83.771 315.385,84.222 318.840,84.446 320.600 C 84.669 322.360,85.026 325.060,85.239 326.600 C 85.453 328.140,85.801 330.705,86.014 332.300 C 86.226 333.895,86.594 336.595,86.830 338.300 C 87.067 340.005,87.413 342.570,87.600 344.000 C 87.787 345.430,88.133 347.995,88.370 349.700 C 88.606 351.405,88.994 354.195,89.230 355.900 C 89.467 357.605,89.813 360.170,90.000 361.600 C 90.187 363.030,90.533 365.595,90.770 367.300 C 91.554 372.950,92.029 376.575,92.266 378.705 C 92.563 381.381,91.905 381.250,104.400 381.113 L 114.600 381.000 114.800 338.982 C 114.994 298.302,115.025 296.927,115.773 295.782 C 118.200 292.072,122.677 291.542,125.776 294.598 L 127.600 296.395 127.600 338.555 C 127.600 376.630,127.661 380.738,128.233 380.957 C 129.560 381.467,149.615 381.227,149.812 380.700 C 149.971 380.276,150.909 373.586,152.827 359.200 C 153.046 357.550,153.401 354.940,153.615 353.400 C 153.829 351.860,154.195 349.160,154.428 347.400 C 154.661 345.640,155.026 342.940,155.239 341.400 C 155.453 339.860,155.801 337.295,156.014 335.700 C 156.226 334.105,156.594 331.405,156.830 329.700 C 157.067 327.995,157.413 325.430,157.600 324.000 C 157.787 322.570,158.139 319.960,158.382 318.200 C 159.486 310.216,160.197 304.956,160.758 300.600 C 161.650 293.690,167.631 290.831,172.019 295.219 C 174.230 297.430,174.316 299.076,172.788 310.000 C 172.027 315.441,171.528 319.089,171.200 321.600 C 171.013 323.030,170.667 325.595,170.430 327.300 C 170.194 329.005,169.826 331.705,169.614 333.300 C 169.401 334.895,169.053 337.460,168.839 339.000 C 168.626 340.540,168.267 343.240,168.042 345.000 C 167.590 348.529,167.313 350.606,165.802 361.800 C 163.308 380.279,163.275 380.550,163.475 380.900 C 163.757 381.392,174.631 381.240,176.694 380.716 C 182.966 379.121,183.895 377.220,186.428 360.800 C 186.648 359.370,187.010 357.120,187.232 355.800 C 187.454 354.480,187.820 352.230,188.047 350.800 C 188.274 349.370,188.639 347.120,188.859 345.800 C 189.831 339.958,190.013 338.853,190.400 336.400 C 190.820 333.743,191.179 331.548,192.003 326.600 C 192.259 325.060,192.633 322.765,192.834 321.500 C 193.035 320.235,193.365 318.165,193.566 316.900 C 193.913 314.714,194.457 311.420,195.200 307.000 C 195.385 305.900,195.736 303.740,195.981 302.200 C 196.225 300.660,196.614 298.230,196.844 296.800 C 197.075 295.370,197.394 293.255,197.553 292.100 L 197.842 290.000 121.269 290.000 L 44.696 290.000 44.926 291.700 M199.388 359.338 C 199.239 360.335,199.199 361.386,199.300 361.675 C 199.400 361.964,199.618 361.243,199.782 360.074 C 199.947 358.905,199.987 357.854,199.871 357.738 C 199.755 357.622,199.538 358.342,199.388 359.338 M198.611 364.075 C 198.449 365.106,198.402 366.186,198.506 366.475 C 198.610 366.764,198.827 366.156,198.989 365.125 C 199.151 364.094,199.198 363.014,199.094 362.725 C 198.990 362.436,198.773 363.044,198.611 364.075 M197.788 369.338 C 197.639 370.335,197.599 371.386,197.700 371.675 C 197.800 371.964,198.018 371.243,198.182 370.074 C 198.347 368.905,198.387 367.854,198.271 367.738 C 198.155 367.622,197.938 368.342,197.788 369.338 M197.030 374.200 C 196.699 376.384,196.100 378.607,195.551 379.695 C 194.968 380.849,195.186 381.475,195.797 380.400 C 196.525 379.119,197.721 373.877,197.501 372.926 C 197.409 372.527,197.197 373.100,197.030 374.200 M232.500 381.500 C 252.685 381.557,285.715 381.557,305.900 381.500 C 326.085 381.443,309.570 381.396,269.200 381.396 C 228.830 381.396,212.315 381.443,232.500 381.500 " stroke="none" fill="#6c4b43" fill-rule="evenodd"></path><path id="path2" d="M260.000 6.400 C 260.000 6.620,259.100 6.800,258.000 6.800 C 256.900 6.800,256.000 6.980,256.000 7.200 C 256.000 7.420,255.280 7.600,254.400 7.600 C 253.520 7.600,252.800 7.780,252.800 8.000 C 252.800 8.220,252.388 8.400,251.885 8.400 C 250.927 8.400,246.991 9.676,246.532 10.135 C 246.386 10.281,245.937 10.400,245.533 10.400 C 245.130 10.400,244.800 10.580,244.800 10.800 C 244.800 11.020,244.548 11.200,244.241 11.200 C 243.933 11.200,242.628 11.766,241.341 12.459 C 240.053 13.151,238.596 13.916,238.103 14.159 C 237.610 14.401,237.205 14.735,237.203 14.900 C 237.201 15.065,236.880 15.200,236.488 15.200 C 236.097 15.200,235.517 15.560,235.200 16.000 C 234.883 16.440,234.343 16.800,234.000 16.800 C 233.657 16.800,233.117 17.160,232.800 17.600 C 232.483 18.040,232.020 18.400,231.771 18.400 C 231.522 18.400,230.754 18.940,230.063 19.600 C 229.372 20.260,228.718 20.800,228.608 20.800 C 228.299 20.800,226.776 22.098,225.843 23.157 C 225.379 23.684,224.749 24.314,224.442 24.557 C 223.026 25.681,214.400 34.421,214.400 34.732 C 214.400 34.924,213.860 35.646,213.200 36.337 C 212.540 37.028,212.000 37.729,212.000 37.896 C 211.998 39.138,210.009 40.400,208.053 40.400 C 206.924 40.400,206.000 40.580,206.000 40.800 C 206.000 41.020,205.443 41.200,204.762 41.200 C 203.534 41.200,199.831 42.103,198.100 42.825 C 197.605 43.031,196.705 43.404,196.100 43.654 C 193.887 44.566,193.197 44.943,192.423 45.664 C 191.989 46.069,191.356 46.400,191.017 46.400 C 190.678 46.400,190.400 46.568,190.400 46.773 C 190.400 46.978,190.054 47.256,189.632 47.390 C 189.209 47.524,188.184 48.256,187.354 49.017 C 186.523 49.778,185.685 50.400,185.491 50.400 C 185.006 50.400,180.000 55.596,180.000 56.100 C 180.000 56.323,179.665 56.797,179.255 57.153 C 178.116 58.143,175.173 62.862,174.922 64.100 C 174.800 64.705,174.543 65.200,174.350 65.200 C 174.158 65.200,174.000 65.560,174.000 66.000 C 174.000 66.440,173.820 66.800,173.600 66.800 C 173.380 66.800,173.200 67.340,173.200 68.000 C 173.200 68.660,173.020 69.200,172.800 69.200 C 172.580 69.200,172.400 69.740,172.400 70.400 C 172.400 71.060,172.220 71.600,172.000 71.600 C 171.780 71.600,171.600 72.320,171.600 73.200 C 171.600 74.080,171.420 74.800,171.200 74.800 C 170.978 74.800,170.800 75.867,170.800 77.200 C 170.800 78.533,170.622 79.600,170.400 79.600 C 170.156 79.600,170.000 81.467,170.000 84.400 C 170.000 87.333,170.156 89.200,170.400 89.200 C 170.622 89.200,170.800 90.267,170.800 91.600 C 170.800 92.933,170.978 94.000,171.200 94.000 C 171.420 94.000,171.600 94.720,171.600 95.600 C 171.600 96.480,171.780 97.200,172.000 97.200 C 172.220 97.200,172.400 97.740,172.400 98.400 C 172.400 99.060,172.580 99.600,172.800 99.600 C 173.020 99.600,173.200 100.140,173.200 100.800 C 173.200 101.460,173.380 102.000,173.600 102.000 C 173.820 102.000,174.000 102.360,174.000 102.800 C 174.000 103.240,174.180 103.600,174.400 103.600 C 174.620 103.600,174.800 103.864,174.800 104.186 C 174.800 104.861,176.673 108.330,177.465 109.122 C 177.759 109.416,178.000 109.802,178.000 109.978 C 178.000 110.155,178.630 110.987,179.400 111.828 C 180.170 112.669,180.800 113.591,180.800 113.878 C 180.800 114.165,180.980 114.400,181.200 114.400 C 181.420 114.400,181.600 114.580,181.600 114.800 C 181.600 115.063,171.333 115.200,151.600 115.200 C 131.867 115.200,121.600 115.337,121.600 115.600 C 121.600 115.820,120.880 116.000,120.000 116.000 C 119.120 116.000,118.400 116.180,118.400 116.400 C 118.400 116.620,117.860 116.800,117.200 116.800 C 116.540 116.800,116.000 116.980,116.000 117.200 C 116.000 117.420,115.595 117.604,115.100 117.609 C 114.605 117.614,113.750 117.970,113.200 118.400 C 112.650 118.830,111.975 119.186,111.700 119.191 C 111.425 119.196,111.200 119.380,111.200 119.600 C 111.200 119.820,110.964 120.000,110.675 120.000 C 110.387 120.000,109.764 120.360,109.292 120.800 C 108.820 121.240,108.336 121.600,108.217 121.600 C 107.908 121.600,102.000 127.471,102.000 127.778 C 102.000 127.919,101.640 128.420,101.200 128.892 C 100.760 129.364,100.400 129.987,100.400 130.275 C 100.400 130.564,100.220 130.800,100.000 130.800 C 99.780 130.800,99.600 131.160,99.600 131.600 C 99.600 132.040,99.420 132.400,99.200 132.400 C 98.980 132.400,98.800 132.940,98.800 133.600 C 98.800 134.260,98.620 134.800,98.400 134.800 C 98.180 134.800,98.000 135.340,98.000 136.000 C 98.000 136.660,97.820 137.200,97.600 137.200 C 97.373 137.200,97.200 138.373,97.200 139.920 C 97.200 141.416,97.031 142.811,96.825 143.020 C 96.034 143.820,95.357 164.982,96.078 166.389 C 96.829 167.857,98.463 169.199,99.500 169.200 C 99.995 169.200,100.400 169.380,100.400 169.600 C 100.400 169.820,100.580 170.000,100.800 170.000 C 101.020 170.000,101.200 169.732,101.200 169.405 C 101.200 169.018,101.769 168.719,102.822 168.550 C 106.661 167.936,108.056 165.926,108.476 160.400 C 108.732 157.040,108.952 154.344,109.812 144.000 C 110.445 136.397,114.995 131.000,122.748 128.655 C 124.851 128.019,305.191 128.034,307.318 128.670 C 315.940 131.248,319.609 136.264,320.433 146.600 C 320.643 149.240,320.992 153.605,321.208 156.300 C 322.029 166.551,322.413 171.363,322.805 176.300 C 323.375 183.465,323.949 190.591,324.408 196.200 C 324.624 198.840,324.913 203.115,325.050 205.700 L 325.299 210.400 323.455 210.400 C 317.719 210.400,311.444 213.291,306.585 218.171 C 301.202 223.579,299.200 228.906,299.200 237.823 C 299.200 245.905,295.715 250.196,289.199 250.140 C 283.072 250.087,279.600 246.092,279.600 239.097 C 279.600 234.314,278.511 227.747,277.530 226.620 C 277.349 226.411,277.200 226.016,277.200 225.741 C 277.200 222.749,269.923 215.203,264.798 212.882 C 260.992 211.158,257.512 210.400,253.400 210.400 C 250.139 210.400,248.837 210.600,245.200 211.659 C 238.569 213.591,232.815 218.703,229.760 225.375 C 227.589 230.116,227.600 229.954,227.600 258.601 C 227.600 277.570,227.470 285.482,227.144 286.281 C 225.541 290.213,225.126 290.798,222.800 292.406 C 218.864 295.127,217.983 299.184,220.665 302.237 C 225.099 307.286,234.392 301.574,238.447 291.307 C 239.357 289.004,239.359 288.952,239.579 260.800 L 239.800 232.600 240.859 230.341 C 243.134 225.489,246.890 223.090,252.570 222.860 C 262.189 222.470,267.185 227.875,267.196 238.680 C 267.213 256.896,283.911 267.862,299.547 259.925 C 307.316 255.982,310.947 249.259,311.540 237.720 C 312.044 227.909,316.548 222.497,323.890 222.880 L 326.191 223.000 326.668 229.000 C 326.930 232.300,327.341 237.520,327.581 240.600 C 327.821 243.680,328.190 248.270,328.401 250.800 C 328.611 253.330,328.967 257.695,329.192 260.500 C 329.416 263.305,329.780 267.850,330.000 270.600 C 330.220 273.350,330.580 277.850,330.800 280.600 C 331.020 283.350,331.375 287.805,331.590 290.500 C 331.804 293.195,332.160 297.650,332.380 300.400 C 332.600 303.150,332.960 307.650,333.180 310.400 C 333.400 313.150,333.761 317.650,333.982 320.400 C 334.204 323.150,334.576 327.830,334.810 330.800 C 335.043 333.770,335.402 338.090,335.607 340.400 C 335.812 342.710,336.030 345.770,336.090 347.200 L 336.200 349.800 273.400 350.000 C 212.092 350.195,210.569 350.218,209.314 350.978 C 205.408 353.341,205.760 359.395,209.923 361.466 C 211.336 362.168,214.699 362.209,287.800 362.400 L 364.200 362.600 364.103 363.600 C 363.434 370.505,353.578 379.485,345.000 381.005 C 341.201 381.678,196.672 381.886,195.618 381.220 C 195.163 380.931,195.131 380.652,195.473 379.926 C 196.383 377.993,197.104 374.372,198.807 363.200 C 199.058 361.550,199.596 358.670,200.000 356.800 C 200.405 354.930,200.936 352.050,201.179 350.400 C 201.422 348.750,201.797 346.365,202.011 345.100 C 202.841 340.198,203.184 338.099,203.600 335.400 C 204.044 332.517,204.506 329.707,205.196 325.700 C 205.414 324.435,206.037 320.610,206.581 317.200 C 207.126 313.790,207.952 308.660,208.418 305.800 C 208.883 302.940,209.325 299.700,209.399 298.600 C 209.474 297.500,209.745 295.340,210.002 293.800 C 210.259 292.260,210.605 290.010,210.772 288.800 C 211.118 286.286,211.212 286.009,213.002 282.200 C 215.159 277.612,215.520 276.739,216.557 273.600 C 221.662 258.147,220.181 239.467,212.723 225.253 C 203.773 208.195,188.803 197.476,169.603 194.376 L 166.605 193.893 162.356 189.443 C 156.097 182.888,149.848 178.526,142.400 175.511 C 141.850 175.289,141.087 174.948,140.705 174.753 C 140.323 174.559,139.659 174.400,139.229 174.400 C 138.799 174.400,138.336 174.220,138.200 174.000 C 138.064 173.780,137.434 173.600,136.800 173.600 C 136.166 173.600,135.548 173.439,135.426 173.242 C 135.305 173.045,134.529 172.789,133.703 172.672 C 132.876 172.555,130.580 172.226,128.600 171.940 C 121.605 170.932,112.721 171.566,106.000 173.554 C 101.704 174.825,100.749 174.964,100.376 174.374 C 100.123 173.976,100.010 173.953,100.006 174.300 C 100.003 174.575,99.638 174.800,99.195 174.800 C 98.198 174.800,92.479 177.511,91.425 178.485 C 90.998 178.878,90.413 179.200,90.125 179.200 C 89.836 179.200,89.600 179.350,89.600 179.532 C 89.600 179.715,89.105 180.119,88.500 180.430 C 87.895 180.740,87.109 181.311,86.753 181.697 C 86.397 182.084,85.912 182.400,85.674 182.400 C 85.185 182.400,76.975 190.577,75.906 192.127 C 75.312 192.989,74.823 193.164,72.506 193.343 C 68.664 193.640,66.430 194.028,66.174 194.442 C 66.052 194.639,65.434 194.800,64.800 194.800 C 64.166 194.800,63.536 194.980,63.400 195.200 C 63.264 195.420,62.623 195.600,61.976 195.600 C 61.329 195.600,60.800 195.780,60.800 196.000 C 60.800 196.220,60.451 196.400,60.024 196.400 C 59.597 196.400,59.136 196.580,59.000 196.800 C 58.864 197.020,58.313 197.200,57.776 197.200 C 57.239 197.200,56.800 197.380,56.800 197.600 C 56.800 197.820,56.440 198.000,56.000 198.000 C 55.560 198.000,55.200 198.180,55.200 198.400 C 55.200 198.620,54.840 198.800,54.400 198.800 C 53.960 198.800,53.600 198.980,53.600 199.200 C 53.600 199.420,53.364 199.600,53.075 199.600 C 52.787 199.600,52.164 199.960,51.692 200.400 C 51.220 200.840,50.556 201.200,50.217 201.200 C 49.878 201.200,49.600 201.380,49.600 201.600 C 49.600 201.820,49.375 202.000,49.100 202.001 C 48.825 202.001,47.970 202.541,47.200 203.200 C 46.430 203.859,45.651 204.399,45.469 204.399 C 45.286 204.400,44.446 205.120,43.600 206.000 C 42.754 206.880,41.914 207.608,41.731 207.618 C 41.549 207.628,40.500 208.631,39.400 209.846 C 38.300 211.062,36.635 212.849,35.700 213.818 C 34.765 214.786,34.000 215.788,34.000 216.043 C 34.000 216.298,33.684 216.797,33.297 217.153 C 32.911 217.509,32.340 218.295,32.030 218.900 C 31.719 219.505,31.315 220.000,31.132 220.000 C 30.950 220.000,30.800 220.278,30.800 220.617 C 30.800 220.956,30.440 221.620,30.000 222.092 C 29.560 222.564,29.200 223.187,29.200 223.475 C 29.200 223.764,29.020 224.000,28.800 224.000 C 28.580 224.000,28.400 224.360,28.400 224.800 C 28.400 225.240,28.220 225.600,28.000 225.600 C 27.780 225.600,27.600 225.872,27.600 226.205 C 27.600 226.538,27.441 227.123,27.247 227.505 C 25.942 230.070,24.800 233.405,24.800 234.650 C 24.800 235.173,24.620 235.600,24.400 235.600 C 24.180 235.600,24.000 236.320,24.000 237.200 C 24.000 238.080,23.820 238.800,23.600 238.800 C 23.380 238.800,23.200 239.700,23.200 240.800 C 23.200 241.900,23.020 242.800,22.800 242.800 C 22.569 242.800,22.400 244.059,22.400 245.776 C 22.400 247.413,22.220 248.864,22.000 249.000 C 21.769 249.142,21.600 251.271,21.600 254.024 C 21.600 256.941,21.756 258.800,22.000 258.800 C 22.233 258.800,22.400 260.133,22.400 262.000 C 22.400 263.867,22.567 265.200,22.800 265.200 C 23.020 265.200,23.200 266.100,23.200 267.200 C 23.200 268.300,23.380 269.200,23.600 269.200 C 23.820 269.200,24.000 269.920,24.000 270.800 C 24.000 271.680,24.180 272.400,24.400 272.400 C 24.620 272.400,24.800 272.739,24.800 273.154 C 24.800 274.019,26.042 278.100,26.397 278.400 C 26.527 278.510,26.888 279.410,27.200 280.400 C 27.512 281.390,27.864 282.290,27.983 282.400 C 28.656 283.020,30.000 286.245,30.000 287.238 C 30.000 287.877,30.180 288.400,30.400 288.400 C 30.622 288.400,30.800 289.467,30.800 290.800 C 30.800 292.133,30.978 293.200,31.200 293.200 C 31.422 293.200,31.600 294.267,31.600 295.600 C 31.600 296.933,31.778 298.000,32.000 298.000 C 32.222 298.000,32.400 299.067,32.400 300.400 C 32.400 301.733,32.578 302.800,32.800 302.800 C 33.020 302.800,33.200 303.754,33.200 304.920 C 33.200 306.086,33.364 307.211,33.565 307.420 C 33.765 307.629,34.035 308.835,34.165 310.100 C 34.294 311.365,34.506 313.435,34.635 314.700 C 34.765 315.965,35.035 317.171,35.235 317.380 C 35.436 317.589,35.600 318.703,35.600 319.856 C 35.600 321.009,35.780 322.064,36.000 322.200 C 36.220 322.336,36.400 323.427,36.400 324.624 C 36.400 325.821,36.580 326.800,36.800 326.800 C 37.022 326.800,37.200 327.867,37.200 329.200 C 37.200 330.533,37.378 331.600,37.600 331.600 C 37.822 331.600,38.000 332.659,38.000 333.976 C 38.000 335.283,38.180 336.464,38.400 336.600 C 38.620 336.736,38.800 337.816,38.800 339.000 C 38.800 340.184,38.980 341.264,39.200 341.400 C 39.420 341.536,39.600 342.717,39.600 344.024 C 39.600 345.341,39.778 346.400,40.000 346.400 C 40.222 346.400,40.400 347.467,40.400 348.800 C 40.400 350.133,40.578 351.200,40.800 351.200 C 41.020 351.200,41.200 352.146,41.200 353.303 C 41.200 354.459,41.375 356.015,41.589 356.760 C 41.802 357.505,42.086 359.484,42.218 361.157 C 42.351 362.831,42.618 364.560,42.811 365.000 C 43.004 365.440,43.252 366.700,43.363 367.800 C 43.474 368.900,43.759 370.970,43.997 372.400 C 44.235 373.830,44.531 375.765,44.655 376.700 C 44.779 377.635,45.042 378.400,45.240 378.400 C 45.438 378.400,45.600 378.940,45.600 379.600 C 45.600 380.260,45.780 380.800,46.000 380.800 C 46.220 380.800,46.400 381.160,46.400 381.600 C 46.400 382.040,46.580 382.400,46.800 382.400 C 47.020 382.400,47.200 382.643,47.200 382.941 C 47.200 383.238,47.695 384.006,48.300 384.648 C 48.905 385.289,49.632 386.262,49.916 386.810 C 50.199 387.358,51.099 388.254,51.916 388.802 C 52.732 389.351,53.659 390.045,53.976 390.347 C 54.292 390.648,55.057 391.071,55.676 391.286 C 56.294 391.502,56.800 391.841,56.800 392.039 C 56.800 392.238,57.239 392.400,57.776 392.400 C 58.313 392.400,58.864 392.580,59.000 392.800 C 59.136 393.020,59.687 393.200,60.224 393.200 C 60.761 393.200,61.200 393.380,61.200 393.600 C 61.200 394.155,347.857 394.155,348.200 393.600 C 348.336 393.380,349.056 393.200,349.800 393.200 C 350.544 393.200,351.264 393.020,351.400 392.800 C 351.536 392.580,352.076 392.400,352.600 392.400 C 353.124 392.400,353.664 392.220,353.800 392.000 C 353.936 391.780,354.390 391.600,354.810 391.600 C 355.511 391.600,358.333 390.468,358.800 389.999 C 358.910 389.889,359.495 389.544,360.100 389.232 C 360.705 388.920,361.200 388.515,361.200 388.332 C 361.200 388.150,361.476 388.000,361.813 388.000 C 362.151 388.000,363.057 387.370,363.827 386.600 C 364.597 385.830,365.363 385.200,365.530 385.200 C 365.987 385.200,368.800 382.459,368.800 382.014 C 368.800 381.801,369.385 381.034,370.100 380.310 C 370.815 379.586,371.655 378.500,371.968 377.897 C 372.280 377.294,372.685 376.800,372.868 376.800 C 373.050 376.800,373.200 376.455,373.200 376.033 C 373.200 375.612,373.335 375.207,373.500 375.133 C 373.911 374.951,375.200 372.110,375.200 371.386 C 375.200 371.064,375.380 370.800,375.600 370.800 C 375.820 370.800,376.000 370.260,376.000 369.600 C 376.000 368.940,376.180 368.400,376.400 368.400 C 376.620 368.400,376.800 367.680,376.800 366.800 C 376.800 365.920,376.980 365.200,377.200 365.200 C 377.422 365.200,377.600 364.133,377.600 362.800 C 377.600 361.467,377.778 360.400,378.000 360.400 C 378.231 360.400,378.400 359.133,378.400 357.400 C 378.400 355.667,378.231 354.400,378.000 354.400 C 377.780 354.400,377.600 353.995,377.600 353.500 C 377.599 352.518,376.307 350.889,374.901 350.100 C 374.243 349.730,370.828 349.600,361.805 349.600 L 349.600 349.600 349.600 346.824 C 349.600 345.297,349.420 343.936,349.200 343.800 C 348.969 343.658,348.800 341.529,348.800 338.776 C 348.800 335.859,348.644 334.000,348.400 334.000 C 348.156 334.000,348.000 332.141,348.000 329.224 C 348.000 326.471,347.831 324.342,347.600 324.200 C 347.369 324.058,347.200 321.929,347.200 319.176 C 347.200 316.259,347.044 314.400,346.800 314.400 C 346.555 314.400,346.400 312.467,346.400 309.400 C 346.400 306.333,346.245 304.400,346.000 304.400 C 345.757 304.400,345.600 302.608,345.600 299.824 C 345.600 297.204,345.429 295.142,345.200 295.000 C 344.970 294.858,344.800 292.737,344.800 290.000 C 344.800 287.263,344.630 285.142,344.400 285.000 C 344.171 284.858,344.000 282.796,344.000 280.176 C 344.000 277.392,343.843 275.600,343.600 275.600 C 343.355 275.600,343.200 273.675,343.200 270.624 C 343.200 267.737,343.032 265.543,342.800 265.400 C 342.571 265.258,342.400 263.196,342.400 260.576 C 342.400 257.792,342.243 256.000,342.000 256.000 C 341.760 256.000,341.585 254.276,341.563 251.700 C 341.529 247.636,341.264 243.186,340.368 231.600 C 340.155 228.850,339.891 224.620,339.782 222.200 C 339.672 219.780,339.410 217.440,339.200 217.000 C 338.990 216.560,338.723 214.130,338.606 211.600 C 338.046 199.423,337.926 197.774,337.576 197.420 C 337.369 197.211,337.200 194.927,337.200 192.344 C 337.200 189.644,337.030 187.542,336.800 187.400 C 336.571 187.259,336.400 185.204,336.400 182.600 C 336.400 179.996,336.229 177.941,336.000 177.800 C 335.770 177.658,335.600 175.537,335.600 172.800 C 335.600 170.063,335.430 167.942,335.200 167.800 C 334.971 167.659,334.800 165.604,334.800 163.000 C 334.800 160.396,334.629 158.341,334.400 158.200 C 334.170 158.058,334.000 155.937,334.000 153.200 C 334.000 150.463,333.830 148.342,333.600 148.200 C 333.375 148.061,333.200 146.129,333.200 143.776 C 333.200 141.259,333.041 139.600,332.800 139.600 C 332.580 139.600,332.400 138.700,332.400 137.600 C 332.400 136.500,332.220 135.600,332.000 135.600 C 331.780 135.600,331.600 135.161,331.600 134.624 C 331.600 134.087,331.420 133.536,331.200 133.400 C 330.980 133.264,330.800 132.803,330.800 132.376 C 330.800 131.949,330.620 131.600,330.400 131.600 C 330.180 131.600,330.000 131.280,330.000 130.888 C 330.000 130.497,329.640 129.917,329.200 129.600 C 328.760 129.283,328.400 128.793,328.400 128.512 C 328.400 127.562,321.638 120.800,320.688 120.800 C 320.407 120.800,319.917 120.440,319.600 120.000 C 319.283 119.560,318.703 119.200,318.312 119.200 C 317.920 119.200,317.600 119.020,317.600 118.800 C 317.600 118.580,317.240 118.400,316.800 118.400 C 316.360 118.400,316.000 118.220,316.000 118.000 C 316.000 117.780,315.651 117.600,315.224 117.600 C 314.797 117.600,314.336 117.420,314.200 117.200 C 314.064 116.980,313.513 116.800,312.976 116.800 C 312.439 116.800,312.000 116.620,312.000 116.400 C 312.000 116.180,311.280 116.000,310.400 116.000 C 309.520 116.000,308.800 115.820,308.800 115.600 C 308.800 115.337,298.267 115.200,278.000 115.200 C 261.060 115.200,247.200 115.110,247.200 115.000 C 247.200 114.891,247.920 114.059,248.800 113.152 C 249.680 112.245,250.400 111.295,250.400 111.040 C 250.400 110.785,250.760 110.317,251.200 110.000 C 251.640 109.683,252.000 109.186,252.000 108.895 C 252.000 108.604,252.355 107.986,252.789 107.520 C 253.714 106.526,256.000 101.921,256.000 101.049 C 256.000 100.718,256.180 100.336,256.400 100.200 C 256.620 100.064,256.800 99.549,256.800 99.056 C 256.800 98.563,256.956 97.989,257.146 97.780 C 259.150 95.580,259.135 70.800,257.129 70.800 C 256.948 70.800,256.800 70.260,256.800 69.600 C 256.800 68.940,256.620 68.400,256.400 68.400 C 256.180 68.400,256.000 68.119,256.000 67.775 C 256.000 67.013,253.567 61.853,253.120 61.667 C 252.944 61.593,252.800 61.278,252.800 60.967 C 252.800 60.655,252.620 60.400,252.400 60.400 C 252.180 60.400,252.000 60.170,252.000 59.888 C 252.000 59.607,251.640 59.117,251.200 58.800 C 250.760 58.483,250.400 57.991,250.400 57.707 C 250.400 57.142,242.221 48.800,241.667 48.800 C 241.478 48.800,240.998 48.440,240.600 48.000 C 240.202 47.560,239.716 47.200,239.521 47.200 C 239.326 47.200,238.780 46.840,238.308 46.400 C 237.836 45.960,237.213 45.600,236.925 45.600 C 236.636 45.600,236.400 45.420,236.400 45.200 C 236.400 44.980,236.040 44.800,235.600 44.800 C 235.160 44.800,234.800 44.620,234.800 44.400 C 234.800 44.180,234.564 44.000,234.275 44.000 C 233.986 44.000,233.016 43.645,232.119 43.212 C 231.221 42.778,229.759 42.307,228.870 42.165 L 227.253 41.906 231.629 37.553 C 234.036 35.159,236.149 33.200,236.325 33.200 C 236.500 33.200,237.354 32.566,238.222 31.792 C 239.090 31.017,240.298 29.937,240.907 29.392 C 241.516 28.846,242.241 28.400,242.519 28.400 C 242.796 28.400,243.283 28.040,243.600 27.600 C 243.917 27.160,244.497 26.800,244.888 26.800 C 245.280 26.800,245.600 26.620,245.600 26.400 C 245.600 26.180,245.960 26.000,246.400 26.000 C 246.840 26.000,247.200 25.820,247.200 25.600 C 247.200 25.380,247.465 25.200,247.789 25.200 C 248.311 25.200,251.812 23.757,253.695 22.766 C 254.077 22.565,254.752 22.400,255.195 22.400 C 255.638 22.400,256.000 22.220,256.000 22.000 C 256.000 21.780,256.630 21.600,257.400 21.600 C 258.170 21.600,258.800 21.420,258.800 21.200 C 258.800 20.980,259.509 20.800,260.376 20.800 C 261.243 20.800,262.064 20.620,262.200 20.400 C 262.336 20.179,264.130 20.000,266.200 20.000 C 268.270 20.000,270.064 19.821,270.200 19.600 C 270.336 19.380,271.069 19.200,271.829 19.200 C 273.801 19.200,276.000 17.862,276.000 16.662 C 276.000 16.335,276.186 16.005,276.414 15.929 C 277.051 15.716,276.998 9.920,276.350 8.789 C 275.601 7.484,274.941 6.800,274.429 6.800 C 274.193 6.800,274.000 6.620,274.000 6.400 C 274.000 6.149,271.400 6.000,267.000 6.000 C 262.600 6.000,260.000 6.149,260.000 6.400 M222.200 54.000 C 250.520 61.243,254.460 99.971,228.166 112.628 C 211.739 120.536,190.249 111.737,185.120 95.004 C 183.670 90.273,183.496 89.128,183.484 84.200 C 183.435 63.885,202.550 48.974,222.200 54.000 M130.200 184.275 C 136.806 185.540,144.822 189.379,149.000 193.277 C 149.660 193.892,150.335 194.397,150.500 194.398 C 150.665 194.399,150.800 194.641,150.800 194.936 C 150.800 195.444,149.213 196.400,148.368 196.400 C 147.137 196.400,141.367 199.051,140.403 200.060 C 136.102 204.560,141.260 211.891,147.081 209.550 C 147.697 209.303,148.650 208.919,149.200 208.697 C 151.116 207.923,151.810 207.689,153.400 207.277 C 154.280 207.050,155.741 206.669,156.646 206.432 C 158.790 205.870,167.449 205.875,169.894 206.441 C 173.654 207.310,175.011 207.684,175.695 208.039 C 176.077 208.238,176.589 208.400,176.834 208.400 C 177.079 208.400,178.836 209.148,180.739 210.062 C 197.483 218.101,207.739 234.853,207.764 254.200 C 207.770 258.343,206.852 265.324,206.028 267.400 C 205.854 267.840,205.494 268.920,205.229 269.800 C 204.384 272.607,202.459 276.820,201.805 277.294 C 201.582 277.456,165.324 277.591,121.231 277.594 C 35.786 277.600,39.600 277.678,39.600 275.934 C 39.600 275.745,39.248 274.828,38.817 273.896 C 33.048 261.394,33.584 243.376,40.084 231.293 C 40.762 230.032,41.516 228.596,41.759 228.103 C 42.001 227.610,42.335 227.205,42.500 227.203 C 42.665 227.201,42.800 226.964,42.800 226.675 C 42.800 226.387,43.115 225.802,43.500 225.375 C 43.885 224.948,44.738 223.879,45.395 223.000 C 51.414 214.941,61.949 208.611,73.006 206.410 C 76.654 205.683,88.441 206.296,89.026 207.242 C 89.148 207.439,89.573 207.600,89.970 207.600 C 90.662 207.600,94.234 208.871,95.695 209.636 C 98.963 211.349,103.602 208.065,103.599 204.041 C 103.596 200.488,101.511 198.721,94.796 196.578 C 90.991 195.365,91.032 194.900,95.200 192.000 C 95.970 191.465,96.841 190.792,97.135 190.506 C 102.534 185.263,119.081 182.145,130.200 184.275 M197.553 292.100 C 197.394 293.255,197.075 295.370,196.844 296.800 C 196.614 298.230,196.225 300.660,195.981 302.200 C 195.736 303.740,195.385 305.900,195.200 307.000 C 194.457 311.420,193.913 314.714,193.566 316.900 C 193.365 318.165,193.035 320.235,192.834 321.500 C 192.633 322.765,192.259 325.060,192.003 326.600 C 191.179 331.548,190.820 333.743,190.400 336.400 C 190.013 338.853,189.831 339.958,188.859 345.800 C 188.639 347.120,188.274 349.370,188.047 350.800 C 187.820 352.230,187.454 354.480,187.232 355.800 C 187.010 357.120,186.648 359.370,186.428 360.800 C 183.895 377.220,182.966 379.121,176.694 380.716 C 174.631 381.240,163.757 381.392,163.475 380.900 C 163.275 380.550,163.308 380.279,165.802 361.800 C 167.313 350.606,167.590 348.529,168.042 345.000 C 168.267 343.240,168.626 340.540,168.839 339.000 C 169.053 337.460,169.401 334.895,169.614 333.300 C 169.826 331.705,170.194 329.005,170.430 327.300 C 170.667 325.595,171.013 323.030,171.200 321.600 C 171.528 319.089,172.027 315.441,172.788 310.000 C 174.316 299.076,174.230 297.430,172.019 295.219 C 167.631 290.831,161.650 293.690,160.758 300.600 C 160.197 304.956,159.486 310.216,158.382 318.200 C 158.139 319.960,157.787 322.570,157.600 324.000 C 157.413 325.430,157.067 327.995,156.830 329.700 C 156.594 331.405,156.226 334.105,156.014 335.700 C 155.801 337.295,155.453 339.860,155.239 341.400 C 155.026 342.940,154.661 345.640,154.428 347.400 C 154.195 349.160,153.829 351.860,153.615 353.400 C 153.401 354.940,153.046 357.550,152.827 359.200 C 150.909 373.586,149.971 380.276,149.812 380.700 C 149.615 381.227,129.560 381.467,128.233 380.957 C 127.661 380.738,127.600 376.630,127.600 338.555 L 127.600 296.395 125.776 294.598 C 122.677 291.542,118.200 292.072,115.773 295.782 C 115.025 296.927,114.994 298.302,114.800 338.982 L 114.600 381.000 104.400 381.113 C 91.905 381.250,92.563 381.381,92.266 378.705 C 92.029 376.575,91.554 372.950,90.770 367.300 C 90.533 365.595,90.187 363.030,90.000 361.600 C 89.813 360.170,89.467 357.605,89.230 355.900 C 88.994 354.195,88.606 351.405,88.370 349.700 C 88.133 347.995,87.787 345.430,87.600 344.000 C 87.413 342.570,87.067 340.005,86.830 338.300 C 86.594 336.595,86.226 333.895,86.014 332.300 C 85.801 330.705,85.453 328.140,85.239 326.600 C 85.026 325.060,84.669 322.360,84.446 320.600 C 84.222 318.840,83.771 315.385,83.443 312.922 C 83.114 310.459,82.555 306.229,82.199 303.522 C 81.440 297.733,81.131 296.811,79.359 295.039 C 76.396 292.076,71.565 292.869,69.328 296.686 C 68.101 298.781,68.079 298.285,70.015 312.200 C 70.229 313.740,70.595 316.440,70.828 318.200 C 71.061 319.960,71.426 322.660,71.639 324.200 C 71.853 325.740,72.201 328.305,72.414 329.900 C 72.626 331.495,72.994 334.195,73.230 335.900 C 73.467 337.605,73.813 340.170,74.000 341.600 C 74.187 343.030,74.539 345.640,74.782 347.400 C 75.789 354.683,76.482 359.789,77.196 365.200 C 77.385 366.630,77.733 369.195,77.970 370.900 C 78.206 372.605,78.558 375.305,78.751 376.900 C 78.944 378.495,79.169 380.070,79.251 380.400 C 79.450 381.201,68.747 381.487,66.000 380.755 C 61.300 379.502,58.500 376.377,57.799 371.600 C 57.653 370.610,57.370 368.810,57.170 367.600 C 56.970 366.390,56.619 364.230,56.390 362.800 C 56.161 361.370,55.815 359.210,55.621 358.000 C 55.280 355.869,54.694 352.327,54.000 348.200 C 53.603 345.839,52.997 342.090,52.383 338.200 C 51.527 332.776,50.956 329.215,49.400 319.600 C 48.813 315.970,48.167 311.965,47.966 310.700 C 47.765 309.435,47.433 307.365,47.229 306.100 C 47.024 304.835,46.658 302.540,46.414 301.000 C 46.171 299.460,45.788 297.120,45.564 295.800 C 45.339 294.480,45.052 292.635,44.926 291.700 L 44.696 290.000 121.269 290.000 L 197.842 290.000 197.553 292.100 " stroke="none" fill="#040404" fill-rule="evenodd"></path><path id="path3" d="M209.600 53.822 C 206.566 54.422,205.304 54.743,204.200 55.194 C 195.599 58.707,190.267 63.531,186.729 71.000 C 186.312 71.880,185.825 72.870,185.646 73.200 C 185.468 73.530,185.092 74.790,184.811 76.000 C 184.530 77.210,184.143 78.722,183.950 79.360 C 183.758 79.998,183.600 82.068,183.600 83.960 C 183.600 106.963,207.093 122.061,227.800 112.365 C 234.466 109.243,240.876 102.582,243.163 96.400 C 243.448 95.630,243.826 94.640,244.003 94.200 C 249.473 80.633,241.625 62.709,227.343 56.153 C 221.757 53.589,215.162 52.722,209.600 53.822 M202.300 356.289 C 203.015 356.378,204.185 356.378,204.900 356.289 C 205.615 356.201,205.030 356.128,203.600 356.128 C 202.170 356.128,201.585 356.201,202.300 356.289 M206.800 359.725 C 206.800 359.794,207.385 360.379,208.100 361.025 L 209.400 362.200 208.225 360.900 C 207.130 359.688,206.800 359.416,206.800 359.725 M195.600 380.900 C 195.600 381.065,228.765 381.156,269.300 381.103 C 309.835 381.049,331.030 380.960,316.400 380.903 C 245.643 380.630,195.600 380.629,195.600 380.900 " stroke="none" fill="#c32b2b" fill-rule="evenodd"></path><path id="path4" d="M319.293 142.000 C 319.293 142.770,319.375 143.085,319.476 142.700 C 319.576 142.315,319.576 141.685,319.476 141.300 C 319.375 140.915,319.293 141.230,319.293 142.000 M110.114 147.000 C 110.117 148.100,110.195 148.503,110.287 147.895 C 110.379 147.286,110.377 146.386,110.282 145.895 C 110.187 145.403,110.111 145.900,110.114 147.000 M320.124 151.000 C 320.126 152.320,320.201 152.812,320.290 152.093 C 320.379 151.374,320.377 150.294,320.286 149.693 C 320.195 149.092,320.122 149.680,320.124 151.000 M109.309 156.800 C 109.309 157.790,109.387 158.195,109.482 157.700 C 109.578 157.205,109.578 156.395,109.482 155.900 C 109.387 155.405,109.309 155.810,109.309 156.800 M320.920 161.200 C 320.920 162.410,320.995 162.905,321.087 162.300 C 321.178 161.695,321.178 160.705,321.087 160.100 C 320.995 159.495,320.920 159.990,320.920 161.200 M101.800 169.200 C 100.781 169.638,101.832 169.638,103.200 169.200 C 104.004 168.943,104.043 168.877,103.400 168.868 C 102.960 168.862,102.240 169.011,101.800 169.200 M321.720 171.600 C 321.720 172.810,321.795 173.305,321.887 172.700 C 321.978 172.095,321.978 171.105,321.887 170.500 C 321.795 169.895,321.720 170.390,321.720 171.600 M115.891 171.089 C 116.601 171.177,117.861 171.179,118.691 171.092 C 119.521 171.005,118.940 170.933,117.400 170.931 C 115.860 170.929,115.181 171.000,115.891 171.089 M123.491 171.089 C 124.201 171.177,125.461 171.179,126.291 171.092 C 127.121 171.005,126.540 170.933,125.000 170.931 C 123.460 170.929,122.781 171.000,123.491 171.089 M100.667 172.267 C 100.252 172.682,100.353 174.000,100.800 174.000 C 101.020 174.000,101.200 173.550,101.200 173.000 C 101.200 171.953,101.108 171.826,100.667 172.267 M322.514 181.800 C 322.517 182.900,322.595 183.303,322.687 182.695 C 322.779 182.086,322.777 181.186,322.682 180.695 C 322.587 180.203,322.511 180.700,322.514 181.800 M115.600 184.232 C 107.948 185.396,102.376 187.529,96.500 191.541 C 92.343 194.379,91.602 196.010,94.474 195.998 C 95.496 195.994,101.028 198.427,102.007 199.312 C 105.338 202.320,104.752 207.134,100.758 209.569 C 99.571 210.293,99.514 210.397,100.300 210.399 C 100.795 210.399,101.200 210.220,101.200 210.000 C 101.200 209.780,101.393 209.600,101.629 209.600 C 102.556 209.600,104.152 207.210,104.537 205.246 C 105.396 200.853,101.350 196.972,94.300 195.426 C 93.014 195.144,92.885 194.597,93.969 194.017 C 94.392 193.790,94.977 193.371,95.269 193.084 C 97.947 190.453,108.328 185.600,111.275 185.600 C 111.868 185.600,112.464 185.420,112.600 185.200 C 112.736 184.980,113.602 184.799,114.524 184.798 C 115.446 184.796,117.280 184.614,118.600 184.393 C 121.057 183.980,126.841 184.412,130.200 185.260 C 133.632 186.125,137.488 187.392,139.369 188.273 C 140.452 188.780,141.419 189.114,141.518 189.015 C 141.765 188.769,137.914 187.033,135.000 186.078 C 127.904 183.751,122.275 183.216,115.600 184.232 M161.400 187.600 C 162.259 188.480,163.052 189.200,163.162 189.200 C 163.272 189.200,162.659 188.480,161.800 187.600 C 160.941 186.720,160.148 186.000,160.038 186.000 C 159.928 186.000,160.541 186.720,161.400 187.600 M323.314 191.800 C 323.317 192.900,323.395 193.303,323.487 192.695 C 323.579 192.086,323.577 191.186,323.482 190.695 C 323.387 190.203,323.311 190.700,323.314 191.800 M146.000 191.951 C 146.000 192.198,146.137 192.400,146.304 192.400 C 146.472 192.400,147.294 192.992,148.132 193.716 L 149.655 195.032 147.127 195.769 C 140.549 197.686,138.000 199.985,138.000 204.000 C 138.000 206.694,140.512 210.400,142.337 210.400 C 142.657 210.400,142.311 209.991,141.569 209.490 C 137.102 206.481,137.445 200.298,142.194 198.221 C 142.857 197.931,144.253 197.312,145.296 196.847 C 146.338 196.381,147.508 195.994,147.896 195.986 C 150.959 195.924,150.668 195.068,146.500 191.884 C 146.170 191.632,146.000 191.655,146.000 191.951 M170.000 194.000 C 171.368 194.438,172.419 194.438,171.400 194.000 C 170.960 193.811,170.240 193.662,169.800 193.668 C 169.157 193.677,169.196 193.743,170.000 194.000 M324.114 201.800 C 324.117 202.900,324.195 203.303,324.287 202.695 C 324.379 202.086,324.377 201.186,324.282 200.695 C 324.187 200.203,324.111 200.700,324.114 201.800 M73.800 206.800 C 73.118 207.093,73.177 207.144,74.200 207.144 C 74.860 207.144,75.760 206.989,76.200 206.800 C 76.882 206.507,76.823 206.456,75.800 206.456 C 75.140 206.456,74.240 206.611,73.800 206.800 M82.200 206.800 C 82.640 206.989,83.630 207.138,84.400 207.132 C 85.673 207.121,85.709 207.091,84.800 206.800 C 83.348 206.335,81.118 206.335,82.200 206.800 M157.800 206.800 C 156.718 207.265,158.948 207.265,160.400 206.800 C 161.309 206.509,161.273 206.479,160.000 206.468 C 159.230 206.462,158.240 206.611,157.800 206.800 M166.200 206.800 C 166.640 206.989,167.540 207.144,168.200 207.144 C 169.223 207.144,169.282 207.093,168.600 206.800 C 168.160 206.611,167.260 206.456,166.600 206.456 C 165.577 206.456,165.518 206.507,166.200 206.800 M69.800 207.600 C 69.086 207.907,69.115 207.947,70.076 207.972 C 70.668 207.987,71.264 207.820,71.400 207.600 C 71.695 207.122,70.911 207.122,69.800 207.600 M87.400 207.600 C 87.536 207.820,88.042 207.987,88.524 207.972 C 89.369 207.945,89.371 207.931,88.600 207.600 C 87.499 207.127,87.108 207.127,87.400 207.600 M154.000 207.600 C 153.512 207.915,153.564 207.989,154.276 207.994 C 154.758 207.997,155.264 207.820,155.400 207.600 C 155.715 207.091,154.788 207.091,154.000 207.600 M171.000 207.600 C 171.136 207.820,171.732 207.997,172.324 207.994 C 173.166 207.989,173.269 207.903,172.800 207.600 C 172.010 207.089,170.684 207.089,171.000 207.600 M67.200 208.400 C 66.715 208.714,66.772 208.789,67.500 208.794 C 67.995 208.797,68.400 208.620,68.400 208.400 C 68.400 207.899,67.976 207.899,67.200 208.400 M151.200 208.400 C 150.715 208.714,150.772 208.789,151.500 208.794 C 151.995 208.797,152.400 208.620,152.400 208.400 C 152.400 207.899,151.976 207.899,151.200 208.400 M174.200 208.400 C 174.336 208.620,174.842 208.787,175.324 208.772 C 176.169 208.745,176.171 208.731,175.400 208.400 C 174.299 207.927,173.908 207.927,174.200 208.400 M92.200 209.200 C 92.336 209.420,92.717 209.600,93.047 209.600 C 93.377 209.600,93.536 209.420,93.400 209.200 C 93.264 208.980,92.883 208.800,92.553 208.800 C 92.223 208.800,92.064 208.980,92.200 209.200 M97.000 210.800 C 97.136 211.020,97.496 211.200,97.800 211.200 C 98.104 211.200,98.464 211.020,98.600 210.800 C 98.741 210.572,98.396 210.400,97.800 210.400 C 97.204 210.400,96.859 210.572,97.000 210.800 M144.139 210.854 C 144.668 211.161,145.002 211.158,145.319 210.841 C 145.640 210.520,145.441 210.403,144.580 210.412 C 143.546 210.423,143.491 210.477,144.139 210.854 M58.400 212.275 C 55.153 214.201,50.569 217.893,48.163 220.522 C 45.470 223.463,42.986 226.800,43.489 226.800 C 43.675 226.800,44.153 226.249,44.551 225.575 C 45.612 223.779,51.315 217.913,53.935 215.923 C 55.181 214.976,56.290 214.112,56.400 214.001 C 56.793 213.606,59.013 212.347,59.700 212.129 C 60.085 212.007,60.400 211.748,60.400 211.553 C 60.400 211.079,60.445 211.062,58.400 212.275 M182.000 211.477 C 182.000 211.657,182.585 212.064,183.300 212.380 C 184.015 212.697,184.949 213.280,185.375 213.678 C 185.802 214.075,186.372 214.400,186.642 214.400 C 186.912 214.400,187.193 214.536,187.267 214.703 C 187.340 214.870,188.210 215.628,189.200 216.388 C 193.326 219.556,198.066 225.193,200.648 230.000 C 201.062 230.770,201.535 231.460,201.700 231.533 C 201.865 231.607,202.000 231.916,202.000 232.221 C 202.000 232.526,202.360 233.417,202.800 234.200 C 203.240 234.983,203.600 235.891,203.600 236.218 C 203.600 236.544,203.767 237.123,203.971 237.505 C 204.175 237.887,204.449 238.541,204.580 238.957 C 204.711 239.374,204.905 239.628,205.010 239.523 C 206.313 238.221,198.897 225.310,193.834 220.063 C 189.918 216.006,182.000 210.261,182.000 211.477 M271.800 217.200 C 272.659 218.080,273.452 218.800,273.562 218.800 C 273.672 218.800,273.059 218.080,272.200 217.200 C 271.341 216.320,270.548 215.600,270.438 215.600 C 270.328 215.600,270.941 216.320,271.800 217.200 M42.254 228.173 C 41.531 229.277,41.451 229.602,41.900 229.597 C 42.236 229.593,43.272 227.539,43.050 227.317 C 42.972 227.239,42.614 227.624,42.254 228.173 M40.600 231.200 C 40.238 231.901,40.026 232.559,40.129 232.662 C 40.232 232.765,40.606 232.269,40.960 231.560 C 41.314 230.851,41.526 230.193,41.431 230.098 C 41.336 230.003,40.962 230.499,40.600 231.200 M279.750 236.200 C 279.751 238.620,279.816 239.558,279.896 238.285 C 279.976 237.012,279.975 235.032,279.894 233.885 C 279.814 232.738,279.749 233.780,279.750 236.200 M39.023 234.606 C 38.681 235.426,38.400 236.335,38.400 236.625 C 38.400 236.915,38.220 237.264,38.000 237.400 C 37.780 237.536,37.600 237.999,37.600 238.429 C 37.600 238.859,37.436 239.523,37.235 239.905 C 37.035 240.287,36.686 241.590,36.461 242.800 C 36.236 244.010,35.860 245.959,35.626 247.131 C 35.079 249.867,35.076 258.111,35.621 260.869 C 36.759 266.624,37.242 268.584,38.019 270.600 C 38.189 271.040,38.438 271.741,38.573 272.157 C 38.708 272.574,38.904 272.829,39.009 272.725 C 39.113 272.620,38.782 271.290,38.272 269.768 C 34.682 259.036,34.844 247.812,38.747 236.808 C 39.972 233.354,40.155 231.897,39.023 234.606 M226.988 258.600 C 226.988 272.680,227.039 278.382,227.100 271.271 C 227.161 264.160,227.161 252.640,227.100 245.671 C 227.038 238.702,226.988 244.520,226.988 258.600 M298.546 237.400 C 298.547 239.600,298.614 240.449,298.695 239.287 C 298.776 238.124,298.776 236.324,298.693 235.287 C 298.611 234.249,298.545 235.200,298.546 237.400 M205.240 241.076 C 205.218 241.778,205.380 242.464,205.600 242.600 C 206.060 242.884,206.060 242.236,205.600 240.800 C 205.294 239.845,205.278 239.857,205.240 241.076 M206.040 244.876 C 206.018 245.688,206.180 246.464,206.400 246.600 C 206.863 246.886,206.863 245.845,206.400 244.400 C 206.112 243.502,206.076 243.550,206.040 244.876 M295.375 247.300 L 294.200 248.600 295.500 247.425 C 296.712 246.330,296.984 246.000,296.675 246.000 C 296.606 246.000,296.021 246.585,295.375 247.300 M220.101 249.800 C 220.105 250.680,220.187 250.993,220.283 250.495 C 220.379 249.998,220.375 249.278,220.275 248.895 C 220.175 248.513,220.096 248.920,220.101 249.800 M206.957 254.000 C 206.957 256.970,207.020 258.185,207.097 256.700 C 207.174 255.215,207.174 252.785,207.097 251.300 C 207.020 249.815,206.957 251.030,206.957 254.000 M288.705 249.883 C 289.202 249.979,289.922 249.975,290.305 249.875 C 290.687 249.775,290.280 249.696,289.400 249.701 C 288.520 249.705,288.207 249.787,288.705 249.883 M220.114 257.800 C 220.117 258.900,220.195 259.303,220.287 258.695 C 220.379 258.086,220.377 257.186,220.282 256.695 C 220.187 256.203,220.111 256.700,220.114 257.800 M206.292 261.442 C 206.131 261.602,206.016 262.378,206.036 263.167 L 206.072 264.600 206.457 263.263 C 206.863 261.852,206.782 260.952,206.292 261.442 M205.492 265.442 C 205.331 265.602,205.211 266.198,205.225 266.767 L 205.251 267.800 205.637 266.834 C 206.053 265.794,205.967 264.967,205.492 265.442 M204.428 269.500 C 204.453 270.475,204.495 270.509,204.800 269.800 C 205.269 268.707,205.269 268.400,204.800 268.400 C 204.580 268.400,204.413 268.895,204.428 269.500 M203.600 271.576 C 203.600 272.003,203.420 272.464,203.200 272.600 C 202.980 272.736,202.813 273.242,202.830 273.724 C 202.852 274.391,203.036 274.218,203.600 273.000 C 204.476 271.107,204.532 270.800,204.000 270.800 C 203.780 270.800,203.600 271.149,203.600 271.576 M40.025 275.400 C 40.025 275.620,40.265 276.115,40.557 276.500 C 41.172 277.311,200.350 277.608,201.600 276.800 C 201.988 276.549,173.800 276.410,121.644 276.406 C 45.397 276.400,41.060 276.363,40.557 275.700 C 40.265 275.315,40.025 275.180,40.025 275.400 M210.144 296.800 L 210.200 298.200 214.252 298.313 C 217.266 298.398,218.355 298.295,218.502 297.913 C 218.657 297.511,217.808 297.427,214.579 297.525 L 210.458 297.650 210.273 296.525 C 210.127 295.643,210.099 295.702,210.144 296.800 M199.264 364.700 C 197.612 375.124,197.248 377.033,196.556 378.908 C 196.250 379.738,196.000 380.506,196.000 380.615 C 196.000 381.302,345.869 380.557,347.600 379.861 C 356.161 376.424,360.000 372.579,363.535 363.900 L 363.983 362.800 287.453 362.800 C 220.823 362.800,210.770 362.724,209.741 362.210 C 207.859 361.272,206.000 358.784,206.000 357.205 C 206.000 356.477,205.739 356.400,203.289 356.400 L 200.579 356.400 199.264 364.700 " stroke="none" fill="#e36c5c" fill-rule="evenodd"></path></g></svg>