<?xml version="1.0" standalone="no"?>
<!DOCTYPE svg PUBLIC "-//W3C//DTD SVG 20010904//EN"
 "http://www.w3.org/TR/2001/REC-SVG-20010904/DTD/svg10.dtd">
<svg version="1.0" xmlns="http://www.w3.org/2000/svg"
 width="30.000000pt" height="30.000000pt" viewBox="0 0 512.000000 512.000000"
 preserveAspectRatio="xMidYMid meet">

<g transform="translate(0.000000,512.000000) scale(0.100000,-0.100000)"
fill="#000000" stroke="none">
<path d="M3350 5033 c-129 -22 -278 -86 -389 -168 -73 -54 -192 -172 -229
-227 -13 -21 -27 -38 -31 -38 -42 -1 -156 -37 -214 -67 -308 -161 -393 -568
-176 -843 l39 -50 -369 0 c-236 0 -389 -4 -423 -11 -115 -25 -227 -109 -273
-204 -25 -53 -36 -123 -50 -322 -7 -89 -6 -93 19 -117 17 -18 36 -26 60 -26
52 0 73 33 81 128 18 221 24 254 50 292 14 21 49 50 78 66 l52 29 1154 3
c1268 3 1217 5 1292 -57 64 -53 65 -60 104 -535 19 -240 35 -440 35 -445 0 -4
-23 -11 -51 -14 -99 -12 -194 -77 -242 -166 -21 -38 -31 -75 -39 -144 -14
-129 -16 -136 -42 -162 -33 -33 -89 -42 -132 -22 -53 26 -68 59 -75 162 -9
146 -67 241 -184 303 -45 24 -61 27 -150 27 -86 0 -107 -3 -150 -24 -63 -32
-124 -93 -156 -156 -24 -50 -24 -52 -29 -426 -5 -413 0 -381 -72 -450 -21 -20
-38 -43 -38 -52 0 -14 -11 -17 -55 -17 -51 0 -55 2 -55 23 0 53 23 146 52 206
52 113 71 201 71 341 0 146 -21 237 -79 352 -49 98 -91 154 -177 233 -89 83
-219 149 -339 173 -82 16 -84 17 -148 83 -150 153 -340 227 -555 216 -183 -9
-331 -75 -469 -209 -76 -73 -82 -77 -145 -88 -222 -38 -420 -189 -526 -400
-64 -128 -80 -198 -80 -360 0 -156 16 -231 72 -344 21 -42 42 -156 123 -647
105 -641 109 -660 178 -720 18 -16 52 -39 75 -51 l42 -23 1830 0 c1792 0 1831
0 1890 20 177 58 308 225 322 410 5 60 3 73 -15 95 -20 24 -24 25 -183 30
l-164 5 -106 1332 c-59 732 -110 1348 -114 1369 -24 131 -148 249 -296 283
-26 6 -205 11 -427 11 l-383 0 40 48 c175 208 167 524 -19 726 -60 64 -150
128 -208 147 -57 18 -59 25 -21 65 138 145 317 236 486 251 62 5 82 11 100 29
31 31 30 78 -2 109 -20 21 -33 25 -82 24 -32 -1 -69 -4 -83 -6z m-1628 -2293
c70 -22 195 -98 188 -115 -2 -5 -24 -17 -48 -25 -88 -31 -118 -95 -67 -145 30
-31 62 -32 140 -4 183 64 382 12 535 -141 124 -124 180 -263 180 -444 -1 -99
-9 -145 -41 -230 l-20 -56 -1035 0 -1035 0 -20 45 c-87 197 -53 455 85 633 70
92 163 156 286 198 79 27 226 25 300 -4 30 -12 68 -22 84 -22 43 0 76 35 76
81 0 45 -26 69 -102 95 l-52 17 30 24 c44 37 163 92 235 108 81 19 192 13 281
-15z m918 -2198 c0 -10 10 -28 23 -40 l23 -22 987 -2 987 -3 -24 -50 c-30 -62
-96 -127 -161 -157 l-50 -23 -959 -3 c-887 -2 -958 -1 -952 14 3 9 16 75 27
148 12 72 23 137 25 144 2 6 19 12 39 12 27 0 35 -4 35 -18z"/>
</g>
</svg>
