<?xml version="1.0" standalone="no"?>
<!DOCTYPE svg PUBLIC "-//W3C//DTD SVG 20010904//EN"
 "http://www.w3.org/TR/2001/REC-SVG-20010904/DTD/svg10.dtd">
<svg version="1.0" xmlns="http://www.w3.org/2000/svg"
 width="296.000000pt" height="250.000000pt" viewBox="0 0 296.000000 250.000000"
 preserveAspectRatio="xMidYMid meet">

<g transform="translate(0.000000,250.000000) scale(0.100000,-0.100000)"
fill="#E43D4C" stroke="none">
<path d="M2384 2147 c-12 -6 -57 -54 -100 -105 l-79 -93 -95 6 c-52 4 -117 11
-143 16 l-49 9 -105 -110 -105 -110 -135 0 -135 0 -28 -30 c-16 -17 -59 -67
-96 -110 l-67 -80 -126 0 c-153 0 -160 -4 -249 -117 l-63 -80 -107 -6 c-59 -3
-115 -8 -125 -12 -10 -4 -41 -41 -68 -81 l-50 -74 -114 0 -114 0 -71 -102
c-81 -116 -79 -107 -55 -315 l16 -133 70 -102 c82 -119 98 -138 114 -138 6 0
38 33 71 74 l59 74 125 -5 c143 -6 126 -15 209 102 l47 67 121 -1 c73 -1 130
3 145 10 14 6 63 53 108 105 l82 94 144 -7 143 -6 98 100 c109 112 112 113
265 113 l70 0 106 110 107 110 105 6 c58 4 116 12 130 19 13 7 56 55 95 106
l72 94 115 16 c64 9 123 19 132 22 20 8 22 122 3 247 l-13 85 -84 106 -83 107
-91 11 c-162 21 -180 21 -202 8z m260 -150 c3 -62 9 -129 12 -149 l7 -38 -49
-1 c-27 0 -73 -4 -101 -8 l-53 -7 -4 30 c-8 58 -32 287 -30 289 1 1 49 1 107
-1 l104 -3 7 -112z m-235 -61 l13 -164 -52 -77 c-29 -42 -56 -73 -60 -69 -7 7
-60 248 -64 291 -1 11 134 181 145 182 3 1 11 -73 18 -163z m371 -1 l48 -60 3
-112 c3 -62 2 -113 -1 -112 -3 0 -35 37 -71 83 l-66 82 -7 90 c-4 49 -9 112
-12 139 l-6 50 32 -50 c18 -27 54 -77 80 -110z m-666 -23 l109 -7 23 -135 c13
-74 23 -139 24 -143 0 -5 -19 -6 -42 -3 -24 3 -73 8 -110 11 -67 6 -67 7 -79
43 -6 20 -29 81 -50 135 -22 53 -39 102 -39 107 0 5 12 7 28 4 15 -3 76 -8
136 -12z m-144 -151 c28 -78 49 -149 47 -156 -8 -19 -109 -155 -116 -155 -3 0
-15 19 -26 42 -11 23 -46 87 -79 141 l-58 100 88 88 c48 49 89 87 90 86 1 -1
26 -67 54 -146z m784 -76 l55 -80 -94 -11 c-52 -6 -105 -18 -118 -27 -14 -9
-54 -53 -89 -99 -35 -45 -75 -88 -88 -95 -14 -7 -62 -13 -108 -13 -46 0 -97
-6 -115 -13 -18 -8 -74 -58 -126 -113 l-93 -98 -108 -6 c-98 -5 -111 -8 -150
-35 -23 -16 -71 -61 -107 -100 l-64 -70 -148 2 -149 3 -94 -100 -95 -100 -135
0 -136 0 -59 -82 -59 -83 -127 0 -127 0 -51 -62 c-28 -35 -55 -63 -59 -63 -7
0 -130 156 -130 166 0 3 30 46 67 95 l68 89 58 -6 c32 -3 84 -12 115 -19 31
-7 60 -11 64 -9 4 3 28 37 54 77 78 121 70 117 199 117 171 0 161 -5 246 121
l74 108 171 1 172 0 66 89 66 88 128 5 c171 7 182 12 268 131 l69 96 131 -6
c84 -4 137 -2 149 5 11 5 42 43 70 84 56 81 55 80 195 96 41 4 78 5 82 2 4 -3
32 -41 62 -85z m-968 -100 c40 -71 73 -137 73 -146 1 -23 -25 -28 -160 -36
-110 -6 -117 -5 -127 14 -13 24 -102 281 -102 295 0 5 53 7 122 6 l121 -3 73
-130z m-307 -11 c21 -60 46 -130 56 -155 l18 -46 -58 -76 c-31 -42 -61 -77
-66 -77 -4 0 -40 65 -80 143 l-73 144 79 91 c43 50 80 90 82 88 3 -2 21 -53
42 -112z m-212 -91 c3 -10 27 -70 54 -133 27 -63 49 -119 49 -123 0 -4 -57 -6
-126 -4 l-126 4 -49 113 c-27 62 -51 121 -54 131 -6 17 2 19 97 22 57 1 113 4
126 5 14 1 25 -5 29 -15z m-252 -95 c20 -51 45 -114 55 -139 l18 -46 -68 -98
c-56 -79 -71 -94 -76 -79 -4 10 -29 76 -56 145 -44 111 -48 130 -38 150 12 23
119 159 125 159 2 0 20 -42 40 -92z m-209 -96 c15 -10 104 -251 104 -283 0
-11 -101 -19 -160 -12 l-56 5 -42 137 c-24 75 -43 139 -42 143 0 4 28 9 63 11
34 2 76 4 92 5 17 1 35 -2 41 -6z m-183 -166 l37 -134 -57 -81 c-67 -94 -55
-105 -97 92 l-25 118 46 70 c25 38 49 69 53 69 3 0 23 -60 43 -134z m-178 -6
c8 -12 55 -265 55 -292 0 -17 -5 -19 -30 -13 -17 4 -61 10 -97 13 l-67 7 -18
125 c-26 188 -33 170 66 170 47 0 88 -5 91 -10z m-173 -286 c2 -14 -19 -49
-57 -100 l-60 -78 -3 39 c-2 22 -9 84 -17 138 l-13 98 56 82 57 82 17 -120 c9
-66 18 -130 20 -141z"/>
<path d="M2495 2010 c3 -5 8 -10 11 -10 2 0 4 5 4 10 0 6 -5 10 -11 10 -5 0
-7 -4 -4 -10z"/>
<path d="M2570 1870 c0 -5 5 -10 10 -10 6 0 10 5 10 10 0 6 -4 10 -10 10 -5 0
-10 -4 -10 -10z"/>
<path d="M720 800 c0 -5 5 -10 10 -10 6 0 10 5 10 10 0 6 -4 10 -10 10 -5 0
-10 -4 -10 -10z"/>
<path d="M390 639 c0 -5 5 -7 10 -4 6 3 10 8 10 11 0 2 -4 4 -10 4 -5 0 -10
-5 -10 -11z"/>
<path d="M660 1240 c0 -5 5 -10 10 -10 6 0 10 5 10 10 0 6 -4 10 -10 10 -5 0
-10 -4 -10 -10z"/>
<path d="M330 1050 c0 -5 5 -10 10 -10 6 0 10 5 10 10 0 6 -4 10 -10 10 -5 0
-10 -4 -10 -10z"/>
</g>
</svg>
