<?xml version="1.0" standalone="no"?>
<!DOCTYPE svg PUBLIC "-//W3C//DTD SVG 20010904//EN"
 "http://www.w3.org/TR/2001/REC-SVG-20010904/DTD/svg10.dtd">
<svg version="1.0" xmlns="http://www.w3.org/2000/svg"
 width="30.000000pt" height="30.000000pt" viewBox="0 0 512.000000 512.000000"
 preserveAspectRatio="xMidYMid meet">

<g transform="translate(0.000000,512.000000) scale(0.100000,-0.100000)"
fill="#000000" stroke="none">
<path d="M1769 4651 c-38 -38 -37 -73 1 -146 48 -91 40 -160 -29 -255 -42 -59
-61 -128 -61 -226 0 -102 26 -180 81 -238 31 -34 43 -41 78 -41 49 0 88 33 97
81 5 26 -1 45 -25 87 -26 46 -31 65 -31 120 0 58 4 70 36 117 68 99 79 133 79
250 0 99 -2 109 -33 172 -40 81 -71 108 -124 108 -30 0 -46 -7 -69 -29z"/>
<path d="M2469 4651 c-38 -38 -37 -73 1 -146 48 -91 40 -160 -29 -255 -42 -59
-61 -128 -61 -227 0 -203 127 -344 227 -251 38 36 40 79 4 141 -26 46 -31 65
-31 120 0 58 4 70 36 117 68 99 79 133 79 250 0 99 -2 109 -33 172 -40 81 -71
108 -124 108 -30 0 -46 -7 -69 -29z"/>
<path d="M3169 4651 c-38 -38 -37 -73 1 -146 48 -91 40 -160 -29 -255 -42 -59
-61 -128 -61 -226 0 -102 26 -180 81 -238 31 -34 43 -41 78 -41 49 0 88 33 97
81 5 26 -1 45 -25 87 -26 46 -31 65 -31 120 0 58 4 70 36 117 68 99 79 133 79
250 0 99 -2 109 -33 172 -40 81 -71 108 -124 108 -30 0 -46 -7 -69 -29z"/>
<path d="M3145 3475 c-5 -2 -31 -6 -57 -10 -34 -4 -69 -21 -128 -61 -99 -67
-128 -80 -243 -105 -49 -11 -106 -28 -127 -39 -45 -23 -97 -83 -105 -122 -6
-26 -10 -28 -60 -28 -68 0 -90 -9 -197 -77 -72 -45 -101 -57 -165 -68 -126
-23 -130 -22 -138 28 -10 58 -38 110 -85 157 -54 54 -98 74 -224 100 -93 20
-119 30 -182 71 -127 83 -149 92 -224 87 -60 -3 -76 -9 -146 -53 -120 -75
-140 -82 -257 -99 -162 -24 -188 -42 -263 -186 -24 -47 -50 -93 -57 -102 -8
-9 -65 -46 -128 -81 -145 -81 -161 -103 -184 -262 -17 -118 -24 -137 -100
-258 -41 -66 -50 -88 -53 -138 -5 -68 4 -96 64 -190 65 -102 76 -128 95 -219
10 -47 18 -91 19 -97 0 -9 -20 -13 -69 -13 -58 0 -74 -4 -96 -22 -53 -47 -53
-47 172 -652 178 -479 212 -562 236 -580 l28 -21 2089 0 2089 0 28 21 c24 18
57 100 232 570 223 598 228 617 178 660 -25 21 -38 24 -113 24 -46 0 -84 4
-84 9 0 5 30 48 66 96 107 142 111 164 63 325 -17 57 -31 118 -31 135 0 18 14
75 31 128 49 152 42 188 -63 326 -61 81 -74 112 -105 246 -33 139 -85 189
-231 220 -124 27 -161 42 -254 105 -62 42 -101 61 -134 66 -119 18 -171 5
-285 -71 -106 -70 -149 -85 -175 -62 -32 28 -80 46 -169 66 -115 25 -144 37
-243 105 -59 40 -94 57 -128 61 -26 4 -54 8 -62 10 -8 2 -19 2 -25 0z m146
-265 c91 -60 161 -88 277 -110 34 -7 66 -18 71 -24 5 -6 16 -45 25 -86 29
-129 46 -170 112 -256 34 -46 65 -88 68 -92 3 -5 -9 -51 -26 -103 -42 -128
-42 -201 0 -332 l32 -98 -58 -77 c-75 -98 -95 -138 -118 -234 l-18 -78 -263 0
-263 0 4 23 c3 12 10 58 17 101 14 101 18 111 87 220 52 81 57 95 60 156 5 74
-4 97 -82 218 -44 67 -64 123 -87 237 -20 103 -74 184 -153 229 -22 14 -86 33
-142 44 -55 12 -117 29 -138 38 -33 16 -36 21 -30 49 3 16 11 35 18 41 6 7 56
22 110 34 104 23 187 61 271 123 76 56 111 52 226 -23z m-1981 -50 c89 -59
153 -85 274 -110 119 -24 131 -37 157 -166 23 -112 49 -175 108 -263 23 -33
44 -67 47 -76 4 -8 -20 -56 -54 -112 -67 -109 -77 -138 -95 -268 l-13 -90 -98
-54 c-123 -67 -161 -104 -217 -214 l-44 -87 -472 0 -473 0 -16 25 c-9 14 -25
65 -35 114 -23 114 -41 158 -106 260 -29 47 -53 89 -53 94 0 5 20 40 45 78 71
109 84 142 101 246 8 54 17 107 20 118 2 13 38 38 105 74 118 64 155 102 222
228 l47 90 63 7 c132 15 193 35 289 96 51 33 100 59 108 60 8 0 49 -23 90 -50z
m2967 -41 c99 -67 143 -85 264 -112 l102 -22 31 -126 c28 -115 36 -132 85
-200 30 -41 62 -85 72 -99 18 -24 18 -27 -12 -120 -42 -129 -42 -203 0 -332
l32 -97 -66 -88 c-36 -48 -75 -114 -86 -145 l-22 -58 -403 0 c-388 0 -404 1
-404 19 0 40 32 105 90 181 102 134 108 168 60 320 -37 119 -37 150 0 267 48
150 41 191 -57 315 -60 76 -80 113 -89 165 -6 39 -6 40 38 56 23 9 79 41 123
71 109 74 138 75 242 5z m-1758 -263 c93 -59 166 -87 278 -106 100 -18 119
-40 144 -162 24 -119 47 -175 109 -268 28 -41 50 -80 50 -86 0 -6 -18 -39 -40
-73 -71 -110 -90 -156 -106 -264 -9 -56 -19 -109 -23 -117 -4 -8 -26 -25 -48
-38 l-41 -22 -621 2 -622 3 23 35 c17 25 53 51 123 88 162 87 179 112 205 305
11 77 18 97 62 169 79 130 88 152 88 210 0 56 -20 110 -64 174 -14 21 -23 40
-21 44 3 4 32 10 65 14 93 11 148 32 240 91 47 30 91 55 99 55 7 0 52 -24 100
-54z m2351 -1353 c0 -5 -36 -102 -79 -218 l-78 -210 -1327 -5 -1328 -5 -24
-28 c-26 -30 -32 -83 -14 -118 28 -51 -29 -49 1340 -49 698 0 1270 -2 1270 -5
0 -4 -60 -171 -75 -207 -7 -17 -111 -18 -1995 -18 -1884 0 -1988 1 -1995 18
-15 36 -75 203 -75 207 0 3 168 5 373 5 398 0 395 0 434 50 21 26 15 86 -11
117 l-24 28 -428 5 -427 5 -78 210 c-43 116 -79 213 -79 218 0 4 1040 7 2310
7 1271 0 2310 -3 2310 -7z"/>
<path d="M3453 2685 c-40 -17 -69 -71 -59 -110 9 -34 47 -72 81 -81 40 -10 93
19 110 60 36 86 -48 169 -132 131z"/>
<path d="M1118 2843 c-86 -54 -49 -183 52 -183 102 0 138 131 50 183 -35 21
-67 21 -102 0z"/>
<path d="M1104 2376 c-45 -45 -47 -95 -5 -137 23 -23 38 -29 71 -29 102 0 139
139 49 186 -45 23 -78 17 -115 -20z"/>
<path d="M714 2141 c-65 -28 -83 -110 -35 -163 24 -27 36 -33 71 -33 35 0 47
6 71 33 20 22 29 43 29 67 0 65 -78 120 -136 96z"/>
<path d="M4317 2739 c-9 -5 -24 -24 -33 -41 -42 -80 42 -173 126 -138 98 40
69 191 -37 190 -21 0 -46 -5 -56 -11z"/>
<path d="M4363 2105 c-31 -13 -63 -59 -63 -90 0 -31 32 -77 63 -90 43 -18 82
-9 112 27 34 41 33 89 -2 127 -34 36 -68 44 -110 26z"/>
<path d="M2429 2541 c-39 -39 -40 -89 -1 -131 36 -40 77 -47 120 -20 88 55 53
180 -50 180 -30 0 -46 -7 -69 -29z"/>
<path d="M2298 2135 c-87 -49 -50 -185 49 -185 64 1 110 54 99 114 -12 66 -91
103 -148 71z"/>
<path d="M1589 1041 c-83 -83 20 -214 122 -154 36 21 53 63 45 107 -14 76
-111 103 -167 47z"/>
</g>
</svg>
