<?xml version="1.0" standalone="no"?>
<!DOCTYPE svg PUBLIC "-//W3C//DTD SVG 20010904//EN"
 "http://www.w3.org/TR/2001/REC-SVG-20010904/DTD/svg10.dtd">
<svg version="1.0" xmlns="http://www.w3.org/2000/svg"
 width="30.000000pt" height="30.000000pt" viewBox="0 0 512.000000 512.000000"
 preserveAspectRatio="xMidYMid meet">

<g transform="translate(0.000000,512.000000) scale(0.100000,-0.100000)"
fill="#000000" stroke="none">
<path d="M1832 5100 c-125 -15 -161 -23 -197 -45 -54 -31 -94 -94 -102 -163
-5 -46 -8 -51 -36 -56 -16 -3 -58 -6 -93 -6 -113 0 -163 -16 -215 -70 -50 -50
-77 -126 -65 -175 6 -24 5 -25 -42 -25 -74 0 -342 -40 -372 -55 -61 -31 -110
-114 -110 -185 0 -14 38 -211 85 -437 47 -226 85 -418 85 -427 0 -9 -8 -16
-20 -16 -62 0 -135 -71 -146 -142 -7 -40 531 -3170 551 -3207 18 -35 44 -57
88 -76 32 -13 188 -15 1322 -15 1138 0 1290 2 1323 15 45 19 77 48 91 83 20
49 553 3165 547 3200 -11 71 -84 142 -146 142 -12 0 -20 7 -20 18 0 9 38 201
85 426 47 225 85 421 85 435 0 72 -49 154 -110 186 -30 15 -298 55 -373 55
-44 0 -48 2 -42 20 4 11 1 45 -5 76 -10 45 -21 65 -58 104 -53 54 -103 70
-216 70 -35 0 -77 3 -93 6 -28 5 -31 10 -36 56 -8 68 -48 132 -102 163 -37 22
-70 29 -225 47 -99 11 -196 17 -214 14 -18 -3 -53 -19 -78 -35 -67 -43 -94
-105 -108 -251 -6 -63 -13 -132 -16 -153 l-6 -39 -27 25 c-59 55 -74 58 -299
54 -114 -1 -216 -6 -228 -11 -20 -7 -21 -3 -33 116 -15 156 -42 217 -114 262
-62 38 -113 41 -315 16z m228 -140 c11 -6 24 -19 30 -30 12 -22 90 -809 90
-906 0 -62 -1 -64 -25 -64 -59 0 -141 -64 -169 -132 -20 -48 -20 -92 3 -313
11 -99 18 -181 17 -182 -1 -1 -21 44 -45 101 l-42 103 -39 564 c-27 392 -44
575 -54 599 -21 52 -52 87 -102 116 -49 29 -57 56 -25 95 16 20 35 25 162 40
184 21 177 21 199 9z m1220 -11 c106 -11 128 -16 148 -36 36 -36 29 -67 -22
-97 -50 -29 -81 -64 -102 -115 -10 -23 -23 -155 -39 -385 -14 -193 -25 -354
-25 -357 0 -3 -31 -5 -68 -5 -59 1 -75 -3 -117 -29 -80 -49 -87 -71 -142 -459
-26 -186 -49 -332 -51 -325 -5 28 168 1770 178 1789 16 29 41 41 80 36 19 -3
91 -11 160 -17z m-1609 -289 c15 -21 22 -71 39 -310 11 -157 20 -301 20 -320
l0 -35 -21 45 c-33 72 -68 111 -127 137 -63 30 -116 28 -196 -7 -27 -11 -51
-18 -54 -16 -7 8 -51 384 -52 442 0 35 5 56 16 65 17 14 174 27 293 25 56 -1
66 -4 82 -26z m2021 21 c77 -5 133 -13 143 -21 19 -16 19 -83 -3 -260 l-17
-135 -100 -5 c-113 -6 -146 -19 -194 -77 -37 -44 -48 -80 -57 -185 -7 -77 -7
-78 -35 -78 -15 0 -30 4 -33 8 -2 4 6 161 20 347 13 187 24 345 24 351 0 6 9
23 21 38 23 30 27 30 231 17z m-986 -119 c33 -22 34 -45 20 -632 -8 -320 -16
-583 -18 -586 -2 -2 -9 100 -16 226 -13 260 -20 289 -90 352 -52 47 -106 62
-192 53 l-67 -7 -6 89 c-6 77 -11 418 -8 465 3 43 24 48 199 48 92 0 172 -4
178 -8z m-1574 -169 c13 -15 48 -231 48 -295 0 -8 -18 -23 -39 -33 -51 -23
-75 -48 -102 -109 -33 -77 -23 -120 76 -328 47 -99 85 -181 85 -184 0 -2 -61
-4 -135 -4 -74 0 -135 1 -135 3 0 1 -41 198 -90 437 -50 239 -90 439 -90 445
0 35 28 47 151 65 167 24 212 24 231 3z m3088 -3 c132 -18 160 -29 160 -64 0
-6 -41 -207 -90 -446 -50 -239 -90 -435 -90 -437 0 -2 -25 -3 -56 -3 -55 0
-56 0 -50 28 3 15 22 153 41 308 33 264 34 284 20 331 -19 63 -76 118 -141
135 l-46 13 7 60 c11 104 20 107 245 75z m-227 -301 c24 -13 22 -42 -18 -354
-19 -149 -35 -276 -35 -282 0 -10 -42 -13 -176 -13 l-176 0 6 28 c36 165 44
277 23 325 -8 20 -10 55 -5 110 3 45 7 98 7 118 1 21 10 48 23 64 l21 27 156
-7 c86 -4 164 -11 174 -16z m-2450 -67 c14 -15 377 -873 377 -890 0 -15 -74
105 -97 157 -14 31 -36 71 -49 89 -43 56 -66 62 -242 62 l-159 0 -96 203 c-53
111 -98 211 -102 223 -10 36 24 61 160 118 139 59 182 67 208 38z m971 -224
c11 -18 20 -117 35 -428 12 -223 24 -441 27 -484 l6 -79 -73 6 c-85 7 -208 37
-265 64 l-38 18 -43 410 c-48 474 -47 455 -29 481 16 21 82 30 263 32 96 2
103 1 117 -20z m815 -17 c76 -12 130 -26 140 -35 13 -14 13 -30 -8 -161 -22
-136 -25 -147 -50 -159 -41 -22 -67 -55 -102 -131 -62 -133 -162 -255 -273
-334 l-48 -34 6 29 c3 16 31 207 61 424 50 352 58 397 77 413 14 11 30 16 47
13 14 -3 82 -15 150 -25z m-599 -1597 c138 -32 277 -120 379 -239 49 -58 123
-205 142 -285 8 -30 14 -104 14 -165 -1 -126 -22 -213 -83 -330 -52 -101 -191
-238 -292 -288 -155 -77 -335 -98 -496 -57 -132 33 -216 82 -320 185 -78 78
-98 104 -137 185 -73 152 -93 296 -62 445 57 271 261 486 523 550 78 18 252
18 332 -1z m-988 -446 c-33 -112 -41 -291 -18 -398 9 -41 19 -87 23 -102 l6
-28 -102 0 c-88 0 -102 2 -108 18 -3 9 -15 27 -26 39 -20 22 -26 23 -224 23
-112 0 -203 3 -203 8 0 4 -16 97 -35 207 -19 110 -35 208 -35 217 0 15 23 17
244 20 223 3 246 5 265 22 12 11 21 27 21 38 0 16 10 18 108 18 l109 0 -25
-82z m1842 56 c12 -47 51 -54 301 -54 196 0 225 -2 225 -15 0 -9 -16 -107 -35
-218 -19 -111 -35 -205 -35 -209 0 -5 -90 -8 -201 -8 -111 0 -208 -4 -219 -10
-10 -5 -23 -23 -28 -40 l-11 -30 -100 0 c-67 0 -101 4 -101 11 0 6 8 39 17 73
13 45 17 99 17 211 0 132 -3 160 -26 233 l-25 82 107 0 c107 0 108 0 114 -26z"/>
</g>
</svg>
