<?xml version="1.0" standalone="no"?>
<!DOCTYPE svg PUBLIC "-//W3C//DTD SVG 20010904//EN"
 "http://www.w3.org/TR/2001/REC-SVG-20010904/DTD/svg10.dtd">
<svg version="1.0" xmlns="http://www.w3.org/2000/svg"
 width="30.000000pt" height="30.000000pt" viewBox="0 0 512.000000 512.000000"
 preserveAspectRatio="xMidYMid meet">

<g transform="translate(0.000000,512.000000) scale(0.100000,-0.100000)"
fill="#000000" stroke="none">
<path d="M1305 5106 c-16 -8 -36 -24 -44 -37 -10 -17 -19 -157 -37 -553 -13
-292 -24 -546 -24 -563 l0 -33 -195 0 c-278 0 -275 2 -275 -224 l0 -144 -90
-4 c-82 -3 -92 -5 -117 -31 l-28 -27 -3 -1695 c-2 -1476 0 -1700 13 -1730 28
-69 -17 -66 990 -63 l905 3 27 28 28 27 0 1715 0 1715 -28 27 c-25 26 -35 28
-117 31 l-90 4 0 144 c0 226 3 224 -275 224 l-195 0 -1 53 c0 28 -10 282 -23
562 -15 355 -26 517 -35 533 -22 41 -68 52 -218 52 -93 -1 -148 -5 -168 -14z
m953 -3113 l-3 -468 -780 0 -780 0 -3 468 -2 467 785 0 785 0 -2 -467z m0
-1675 l-3 -113 -780 0 -780 0 -3 113 -3 112 786 0 786 0 -3 -112z"/>
<path d="M949 2061 c-50 -51 -37 -130 26 -157 43 -18 573 -21 623 -3 66 23 84
109 33 160 l-29 29 -312 0 -312 0 -29 -29z"/>
<path d="M1842 2065 c-100 -84 15 -214 143 -161 65 28 79 111 26 158 -43 39
-125 40 -169 3z"/>
<path d="M3473 5105 c-17 -7 -37 -24 -44 -37 -9 -16 -20 -179 -35 -533 -13
-280 -23 -534 -23 -562 l-1 -53 -195 0 c-278 0 -275 2 -275 -224 l0 -144 -90
-4 c-82 -3 -92 -5 -117 -31 l-28 -27 0 -1715 0 -1715 28 -27 27 -28 905 -3
c1007 -3 962 -6 990 63 13 30 15 254 13 1730 l-3 1695 -28 27 c-25 26 -35 28
-117 31 l-90 4 0 144 c0 226 3 224 -275 224 l-195 0 0 33 c0 17 -11 271 -24
563 -26 582 -24 571 -88 593 -46 16 -296 13 -335 -4z m201 -197 c3 -7 12 -197
20 -423 9 -225 19 -445 22 -487 l6 -78 -77 0 -78 0 7 98 c3 53 13 273 22 487
8 215 17 396 19 403 3 6 16 12 30 12 14 0 27 -6 29 -12z m516 -1273 l0 -85
-545 0 -545 0 0 85 0 85 545 0 545 0 0 -85z m235 -630 l0 -340 -782 -3 -783
-2 0 338 c0 186 3 342 7 345 3 4 356 6 782 5 l776 -3 0 -340z m3 -1012 l-3
-468 -780 0 -780 0 -3 468 -2 467 785 0 785 0 -2 -467z m2 -1013 l0 -340 -785
0 -785 0 0 340 0 340 785 0 785 0 0 -340z m-2 -662 l-3 -113 -780 0 -780 0 -3
113 -3 112 786 0 786 0 -3 -112z"/>
<path d="M3119 2062 c-53 -47 -39 -130 26 -158 43 -18 573 -21 623 -3 66 23
84 109 33 160 l-29 29 -311 0 -311 0 -31 -28z"/>
<path d="M4023 2078 c-12 -6 -29 -26 -38 -45 -44 -93 62 -174 170 -129 63 27
76 106 26 157 -25 25 -37 29 -83 28 -29 0 -63 -5 -75 -11z"/>
</g>
</svg>
