<svg id="svg" version="1.1" xmlns="http://www.w3.org/2000/svg" xmlns:xlink="http://www.w3.org/1999/xlink" width="40" height="40" viewBox="0, 0, 400,400"><g id="svgg"><path id="path0" d="M282.845 17.300 C 282.661 17.795,282.395 21.620,282.254 25.800 C 282.112 29.980,281.815 37.540,281.594 42.600 C 280.880 58.909,280.428 69.580,280.028 79.600 C 279.813 84.990,279.514 90.255,279.364 91.300 L 279.091 93.200 284.322 93.200 C 287.199 93.200,289.631 93.065,289.727 92.900 C 289.959 92.502,289.403 77.137,288.017 45.600 C 287.799 40.650,287.461 32.257,287.265 26.949 C 287.068 21.641,286.783 17.096,286.630 16.849 C 286.084 15.965,283.215 16.307,282.845 17.300 M242.669 110.265 C 242.521 110.413,242.400 113.203,242.400 116.467 L 242.400 122.400 284.610 122.400 L 326.821 122.400 326.710 116.300 L 326.600 110.200 284.769 110.098 C 261.761 110.042,242.816 110.117,242.669 110.265 M224.400 165.400 L 224.400 191.600 284.800 191.600 L 345.200 191.600 345.200 165.400 L 345.200 139.200 284.800 139.200 L 224.400 139.200 224.400 165.400 M54.800 244.400 L 54.800 280.403 115.300 280.301 L 175.800 280.200 175.800 244.400 L 175.800 208.600 115.300 208.499 L 54.800 208.397 54.800 244.400 M224.184 208.900 C 224.079 209.175,224.040 225.330,224.097 244.800 L 224.200 280.200 284.700 280.301 L 345.200 280.403 345.200 244.401 L 345.200 208.400 284.787 208.400 C 236.826 208.400,224.336 208.503,224.184 208.900 M126.268 237.332 C 131.633 240.973,131.596 248.259,126.196 251.423 L 124.530 252.400 100.710 252.400 L 76.890 252.400 74.961 251.100 C 69.019 247.097,70.673 237.756,77.571 236.362 C 78.357 236.204,89.260 236.102,101.800 236.137 L 124.600 236.200 126.268 237.332 M156.229 237.342 C 164.024 242.639,160.245 252.400,150.400 252.400 C 142.269 252.400,137.329 244.934,142.079 239.825 C 142.476 239.398,142.800 238.927,142.800 238.778 C 142.800 236.265,153.035 235.172,156.229 237.342 M295.665 237.296 C 301.083 240.481,301.169 247.359,295.840 251.259 L 294.280 252.400 270.220 252.400 L 246.160 252.400 244.577 251.373 C 238.403 247.370,239.880 238.117,246.972 236.366 C 247.648 236.200,258.460 236.094,271.000 236.132 L 293.800 236.200 295.665 237.296 M324.903 236.838 C 333.653 241.347,330.005 252.400,319.767 252.400 C 310.028 252.400,306.153 242.354,313.984 237.410 C 316.254 235.977,322.589 235.645,324.903 236.838 M224.400 323.400 L 224.400 349.600 284.800 349.600 L 345.200 349.600 345.200 323.400 L 345.200 297.200 284.800 297.200 L 224.400 297.200 224.400 323.400 " stroke="none" fill="#fbc890" fill-rule="evenodd"></path><path id="path1" d="M54.584 208.500 C 54.479 208.775,54.441 225.110,54.499 244.800 L 54.604 280.600 54.702 244.499 L 54.800 208.397 115.300 208.499 L 175.800 208.600 175.800 244.400 L 175.800 280.200 115.400 280.402 L 55.000 280.604 115.220 280.702 C 161.634 280.778,175.550 280.690,175.920 280.320 C 176.429 279.811,176.660 209.943,176.157 208.633 C 175.830 207.780,54.909 207.648,54.584 208.500 M223.843 208.631 C 223.340 209.943,223.571 279.811,224.080 280.320 C 224.450 280.690,238.366 280.778,284.780 280.702 L 345.000 280.604 284.600 280.402 L 224.200 280.200 224.200 244.400 L 224.200 208.600 284.698 208.499 L 345.196 208.397 345.301 244.399 L 345.406 280.400 345.403 244.300 L 345.400 208.200 284.743 208.099 C 229.690 208.007,224.064 208.056,223.843 208.631 M89.700 236.300 C 95.805 236.362,105.795 236.362,111.900 236.300 C 118.005 236.238,113.010 236.187,100.800 236.187 C 88.590 236.187,83.595 236.238,89.700 236.300 M149.100 236.289 C 149.815 236.378,150.985 236.378,151.700 236.289 C 152.415 236.201,151.830 236.128,150.400 236.128 C 148.970 236.128,148.385 236.201,149.100 236.289 M258.900 236.300 C 265.005 236.362,274.995 236.362,281.100 236.300 C 287.205 236.238,282.210 236.187,270.000 236.187 C 257.790 236.187,252.795 236.238,258.900 236.300 M318.707 236.290 C 319.426 236.379,320.506 236.377,321.107 236.286 C 321.708 236.195,321.120 236.122,319.800 236.124 C 318.480 236.126,317.988 236.201,318.707 236.290 M145.445 236.728 C 145.333 236.908,145.773 236.977,146.421 236.882 C 147.070 236.787,147.600 236.640,147.600 236.555 C 147.600 236.250,145.643 236.407,145.445 236.728 M153.995 236.695 C 154.542 236.797,155.442 237.193,155.995 237.575 C 157.402 238.547,158.000 238.875,158.000 238.677 C 158.000 238.202,154.696 236.407,153.909 236.454 C 153.052 236.506,153.057 236.520,153.995 236.695 M244.100 237.646 C 242.737 238.519,242.295 239.106,243.500 238.443 C 244.418 237.939,245.856 236.827,245.600 236.819 C 245.490 236.816,244.815 237.188,244.100 237.646 M295.591 237.483 C 296.843 238.389,297.610 239.155,298.519 240.409 C 298.914 240.954,299.109 241.130,298.953 240.800 C 298.262 239.340,297.177 238.147,295.938 237.483 C 294.651 236.793,294.638 236.793,295.591 237.483 M312.887 238.300 C 311.930 239.235,311.914 239.281,312.781 238.606 C 314.488 237.276,314.569 237.200,314.286 237.200 C 314.136 237.200,313.506 237.695,312.887 238.300 M72.829 239.491 C 72.153 240.311,71.601 241.256,71.602 241.591 C 71.604 241.926,71.886 241.660,72.229 241.000 C 72.572 240.340,73.233 239.395,73.696 238.900 C 74.160 238.405,74.431 238.000,74.299 238.000 C 74.167 238.000,73.505 238.671,72.829 239.491 M327.273 238.977 C 327.644 239.430,328.228 240.340,328.571 241.000 C 328.914 241.660,329.196 241.915,329.198 241.567 C 329.199 241.218,328.615 240.308,327.900 239.543 C 327.185 238.779,326.903 238.524,327.273 238.977 M159.800 244.400 C 159.800 245.458,159.932 246.116,160.094 245.862 C 160.256 245.608,160.388 244.950,160.388 244.400 C 160.388 243.850,160.256 243.192,160.094 242.938 C 159.932 242.684,159.800 243.342,159.800 244.400 M240.643 243.033 C 240.315 243.887,240.347 245.297,240.706 245.862 C 240.868 246.116,241.000 245.441,241.000 244.362 C 241.000 242.181,240.987 242.135,240.643 243.033 M130.093 244.400 C 130.093 245.170,130.175 245.485,130.276 245.100 C 130.376 244.715,130.376 244.085,130.276 243.700 C 130.175 243.315,130.093 243.630,130.093 244.400 M140.493 244.400 C 140.493 245.170,140.575 245.485,140.676 245.100 C 140.776 244.715,140.776 244.085,140.676 243.700 C 140.575 243.315,140.493 243.630,140.493 244.400 M72.314 248.604 C 72.541 249.047,73.148 249.766,73.663 250.202 C 74.567 250.966,74.565 250.952,73.606 249.797 C 72.013 247.879,71.879 247.755,72.314 248.604 M327.426 249.500 C 326.562 250.605,326.493 250.790,327.163 250.204 C 327.965 249.504,329.023 248.000,328.714 248.000 C 328.651 248.000,328.072 248.675,327.426 249.500 M156.974 250.442 C 156.824 250.685,155.959 251.221,155.051 251.633 C 154.143 252.045,153.637 252.386,153.926 252.391 C 154.216 252.396,154.846 252.193,155.326 251.940 C 156.661 251.238,158.161 250.000,157.678 250.000 C 157.441 250.000,157.124 250.199,156.974 250.442 M243.646 250.740 C 244.926 251.734,246.232 252.402,246.874 252.391 C 247.163 252.386,246.657 252.045,245.749 251.633 C 244.841 251.221,243.976 250.685,243.826 250.442 C 243.676 250.199,243.359 250.000,243.122 250.000 C 242.886 250.000,243.121 250.333,243.646 250.740 M294.200 251.814 C 293.540 252.117,293.281 252.372,293.624 252.382 C 293.966 252.392,294.596 252.136,295.024 251.813 C 295.972 251.096,295.769 251.096,294.200 251.814 M54.667 366.667 C 54.287 367.047,54.347 382.897,54.731 383.501 C 54.984 383.900,67.388 383.982,115.424 383.901 L 175.800 383.800 175.908 375.100 L 176.016 366.400 115.474 366.400 C 82.177 366.400,54.813 366.520,54.667 366.667 M224.092 375.099 L 224.200 383.800 284.692 383.901 L 345.184 384.003 345.406 383.101 C 345.527 382.606,345.576 378.690,345.513 374.400 L 345.400 366.600 284.692 366.499 L 223.984 366.397 224.092 375.099 " stroke="none" fill="#c8c6c4" fill-rule="evenodd"></path><path id="path2" d="M113.367 16.853 C 113.199 17.125,112.917 21.139,112.740 25.774 C 112.563 30.408,112.229 38.520,111.998 43.800 C 111.386 57.760,110.885 69.618,110.419 81.200 C 110.193 86.810,109.962 91.760,109.904 92.200 C 109.805 92.962,110.064 93.005,115.356 93.112 L 120.912 93.223 120.633 90.136 C 120.479 88.439,120.186 82.808,119.983 77.625 C 119.602 67.947,119.172 57.865,118.376 40.000 C 118.126 34.390,117.804 26.830,117.661 23.200 L 117.400 16.600 115.536 16.480 C 114.371 16.404,113.558 16.544,113.367 16.853 M282.120 28.000 C 282.120 29.210,282.195 29.705,282.287 29.100 C 282.378 28.495,282.378 27.505,282.287 26.900 C 282.195 26.295,282.120 26.790,282.120 28.000 M287.309 32.400 C 287.309 33.390,287.387 33.795,287.482 33.300 C 287.578 32.805,287.578 31.995,287.482 31.500 C 287.387 31.005,287.309 31.410,287.309 32.400 M281.320 46.800 C 281.320 48.010,281.395 48.505,281.487 47.900 C 281.578 47.295,281.578 46.305,281.487 45.700 C 281.395 45.095,281.320 45.590,281.320 46.800 M288.109 50.800 C 288.109 51.790,288.187 52.195,288.282 51.700 C 288.378 51.205,288.378 50.395,288.282 49.900 C 288.187 49.405,288.109 49.810,288.109 50.800 M280.509 66.000 C 280.509 66.990,280.587 67.395,280.682 66.900 C 280.778 66.405,280.778 65.595,280.682 65.100 C 280.587 64.605,280.509 65.010,280.509 66.000 M288.901 69.800 C 288.905 70.680,288.987 70.993,289.083 70.495 C 289.179 69.998,289.175 69.278,289.075 68.895 C 288.975 68.513,288.896 68.920,288.901 69.800 M279.701 84.600 C 279.705 85.480,279.787 85.793,279.883 85.295 C 279.979 84.798,279.975 84.078,279.875 83.695 C 279.775 83.313,279.696 83.720,279.701 84.600 M289.693 88.400 C 289.693 89.170,289.775 89.485,289.876 89.100 C 289.976 88.715,289.976 88.085,289.876 87.700 C 289.775 87.315,289.693 87.630,289.693 88.400 M73.467 109.867 C 73.320 110.013,73.200 112.893,73.200 116.267 L 73.200 122.400 115.400 122.400 L 157.600 122.400 157.600 116.243 C 157.600 110.997,157.506 110.050,156.967 109.843 C 156.100 109.510,73.800 109.534,73.467 109.867 M258.000 109.895 C 297.432 110.169,326.706 110.172,326.538 109.900 C 326.436 109.735,307.598 109.643,284.676 109.695 C 261.754 109.747,249.750 109.837,258.000 109.895 M54.897 165.499 L 55.000 191.800 115.292 191.901 L 175.584 192.003 175.802 191.101 C 175.923 190.606,175.971 178.770,175.910 164.800 L 175.800 139.400 115.297 139.299 L 54.794 139.197 54.897 165.499 M224.189 165.200 C 224.189 179.610,224.239 185.505,224.300 178.300 C 224.361 171.095,224.361 159.305,224.300 152.100 C 224.239 144.895,224.189 150.790,224.189 165.200 M254.531 191.900 C 271.214 191.958,298.394 191.958,314.931 191.900 C 331.469 191.842,317.820 191.795,284.600 191.795 C 251.380 191.795,237.849 191.842,254.531 191.900 M54.897 323.500 L 55.000 349.800 115.400 349.800 L 175.800 349.800 175.903 323.500 L 176.006 297.200 115.400 297.200 L 54.794 297.200 54.897 323.500 M224.196 323.400 L 224.200 349.800 284.500 349.802 L 344.800 349.804 284.603 349.701 L 224.406 349.597 224.298 323.299 L 224.191 297.000 224.196 323.400 " stroke="none" fill="#d45c3c" fill-rule="evenodd"></path><path id="path3" d="M99.703 1.098 C 98.769 1.704,98.004 2.515,98.003 2.900 C 98.001 3.285,97.820 3.600,97.600 3.600 C 97.380 3.600,97.200 4.050,97.200 4.600 C 97.200 5.150,97.020 5.600,96.800 5.600 C 96.554 5.600,96.400 7.592,96.400 10.776 C 96.400 13.623,96.233 16.056,96.028 16.183 C 95.819 16.312,95.638 20.216,95.615 25.080 C 95.593 29.848,95.414 33.943,95.216 34.180 C 95.019 34.418,94.839 38.457,94.816 43.156 C 94.794 47.855,94.613 52.001,94.416 52.370 C 94.219 52.739,94.039 56.768,94.017 61.325 C 93.995 65.881,93.821 70.017,93.631 70.518 C 93.441 71.018,93.266 74.931,93.241 79.213 C 93.216 83.496,92.979 88.211,92.713 89.690 L 92.230 92.381 78.215 92.540 C 63.043 92.712,61.005 92.883,60.279 94.044 C 60.020 94.460,59.491 94.800,59.104 94.800 C 58.696 94.800,58.400 95.099,58.400 95.512 C 58.400 95.903,58.040 96.483,57.600 96.800 C 57.047 97.199,56.800 97.835,56.800 98.865 C 56.800 99.683,56.620 100.464,56.400 100.600 C 56.150 100.755,56.000 104.737,56.000 111.224 L 56.000 121.600 51.024 121.600 C 48.137 121.600,45.943 121.768,45.800 122.000 C 45.664 122.220,44.843 122.400,43.976 122.400 C 43.109 122.400,42.400 122.580,42.400 122.800 C 42.400 123.020,42.214 123.200,41.987 123.200 C 41.449 123.200,38.800 125.849,38.800 126.387 C 38.800 126.614,38.620 126.800,38.400 126.800 C 38.134 126.800,38.000 171.867,38.000 261.200 C 38.000 350.533,38.134 395.600,38.400 395.600 C 38.620 395.600,38.800 395.876,38.800 396.213 C 38.800 396.551,39.469 397.496,40.287 398.313 L 41.773 399.800 115.405 399.800 L 189.036 399.800 190.042 398.795 C 191.432 397.404,192.400 395.330,192.400 393.739 C 192.400 393.002,192.580 392.400,192.800 392.400 C 193.066 392.400,193.200 348.392,193.200 261.176 C 193.200 173.796,193.066 130.035,192.800 130.200 C 192.553 130.353,192.400 129.663,192.400 128.400 C 192.400 127.274,192.239 126.452,192.043 126.574 C 191.846 126.695,191.581 126.379,191.453 125.871 C 191.326 125.362,190.773 124.707,190.224 124.413 C 189.676 124.120,189.322 123.727,189.437 123.540 C 189.553 123.353,189.266 123.200,188.800 123.200 C 188.334 123.200,188.064 123.020,188.200 122.800 C 188.351 122.556,187.737 122.400,186.624 122.400 C 185.621 122.400,184.800 122.220,184.800 122.000 C 184.800 121.780,184.665 121.621,184.500 121.647 C 184.335 121.673,182.085 121.673,179.500 121.647 L 174.800 121.600 174.800 111.450 C 174.800 103.588,174.669 100.929,174.218 99.650 C 173.898 98.743,173.720 98.000,173.823 98.000 C 173.927 98.000,173.535 97.280,172.953 96.400 C 172.370 95.520,171.730 94.800,171.530 94.800 C 171.330 94.800,170.780 94.440,170.308 94.000 C 169.814 93.540,168.896 93.200,168.148 93.200 C 167.433 93.200,166.736 93.020,166.600 92.800 C 166.443 92.546,161.196 92.400,152.176 92.400 L 138.000 92.400 138.000 89.480 C 138.000 87.874,137.826 86.386,137.613 86.173 C 137.389 85.949,137.208 82.107,137.185 77.093 C 137.162 72.312,136.990 68.400,136.801 68.400 C 136.613 68.400,136.427 64.575,136.389 59.900 C 136.306 49.706,136.337 50.400,135.961 50.400 C 135.793 50.400,135.637 46.316,135.615 41.325 C 135.592 36.334,135.406 32.048,135.200 31.801 C 134.995 31.553,134.808 27.449,134.785 22.681 C 134.761 17.831,134.579 13.911,134.371 13.782 C 134.167 13.656,134.000 11.673,134.000 9.376 C 134.000 6.859,133.841 5.200,133.600 5.200 C 133.380 5.200,133.200 4.927,133.200 4.594 C 133.200 3.752,131.501 1.211,130.933 1.205 C 130.677 1.202,130.392 0.975,130.300 0.700 C 130.172 0.315,126.832 0.177,115.767 0.098 L 101.400 -0.004 99.703 1.098 M270.300 0.276 C 269.915 0.376,269.600 0.625,269.600 0.829 C 269.600 1.033,269.407 1.200,269.171 1.200 C 268.534 1.200,267.600 2.253,267.600 2.971 C 267.600 3.317,267.420 3.600,267.200 3.600 C 266.980 3.600,266.800 3.949,266.800 4.376 C 266.800 4.803,266.620 5.264,266.400 5.400 C 266.177 5.538,266.000 7.396,266.000 9.600 C 266.000 11.774,265.833 13.656,265.629 13.782 C 265.421 13.911,265.239 17.831,265.215 22.681 C 265.192 27.449,265.005 31.553,264.800 31.801 C 264.594 32.048,264.408 36.334,264.385 41.325 C 264.363 46.316,264.190 50.400,264.002 50.400 C 263.813 50.400,263.627 54.225,263.589 58.900 C 263.506 69.093,263.537 68.400,263.161 68.400 C 262.993 68.400,262.838 72.312,262.815 77.093 C 262.792 82.107,262.611 85.949,262.387 86.173 C 262.174 86.386,262.000 87.874,262.000 89.480 L 262.000 92.400 247.824 92.400 C 238.804 92.400,233.557 92.546,233.400 92.800 C 233.264 93.020,232.567 93.200,231.852 93.200 C 231.104 93.200,230.186 93.540,229.692 94.000 C 229.220 94.440,228.670 94.800,228.470 94.800 C 228.270 94.800,227.630 95.520,227.047 96.400 C 226.465 97.280,226.073 98.000,226.177 98.000 C 226.280 98.000,226.102 98.743,225.782 99.650 C 225.331 100.929,225.200 103.588,225.200 111.450 L 225.200 121.600 220.500 121.647 C 217.915 121.673,215.665 121.673,215.500 121.647 C 215.335 121.621,215.200 121.780,215.200 122.000 C 215.200 122.220,214.379 122.400,213.376 122.400 C 212.263 122.400,211.649 122.556,211.800 122.800 C 211.936 123.020,211.666 123.200,211.200 123.200 C 210.734 123.200,210.447 123.353,210.563 123.540 C 210.678 123.727,210.324 124.120,209.776 124.413 C 209.227 124.707,208.674 125.362,208.547 125.871 C 208.419 126.379,208.154 126.695,207.957 126.574 C 207.761 126.452,207.600 127.274,207.600 128.400 C 207.600 129.663,207.447 130.353,207.200 130.200 C 206.934 130.035,206.800 173.796,206.800 261.176 C 206.800 348.392,206.934 392.400,207.200 392.400 C 207.420 392.400,207.600 393.002,207.600 393.739 C 207.600 395.330,208.568 397.404,209.958 398.795 L 210.964 399.800 284.595 399.800 L 358.227 399.800 359.713 398.313 C 360.531 397.496,361.200 396.551,361.200 396.213 C 361.200 395.876,361.380 395.600,361.600 395.600 C 361.866 395.600,362.000 350.533,362.000 261.200 C 362.000 171.867,361.866 126.800,361.600 126.800 C 361.380 126.800,361.200 126.614,361.200 126.387 C 361.200 125.849,358.551 123.200,358.013 123.200 C 357.786 123.200,357.600 123.020,357.600 122.800 C 357.600 122.580,356.891 122.400,356.024 122.400 C 355.157 122.400,354.336 122.220,354.200 122.000 C 354.057 121.768,351.863 121.600,348.976 121.600 L 344.000 121.600 344.000 111.224 C 344.000 104.737,343.850 100.755,343.600 100.600 C 343.380 100.464,343.200 99.683,343.200 98.865 C 343.200 97.835,342.953 97.199,342.400 96.800 C 341.960 96.483,341.600 95.903,341.600 95.512 C 341.600 95.099,341.304 94.800,340.896 94.800 C 340.509 94.800,339.980 94.460,339.721 94.044 C 338.995 92.883,336.957 92.712,321.785 92.540 L 307.770 92.381 307.287 89.690 C 307.021 88.211,306.784 83.496,306.759 79.213 C 306.734 74.931,306.559 71.018,306.369 70.518 C 306.179 70.017,306.005 65.881,305.983 61.325 C 305.961 56.768,305.781 52.739,305.584 52.370 C 305.387 52.001,305.206 47.855,305.184 43.156 C 305.161 38.457,304.981 34.418,304.784 34.180 C 304.586 33.943,304.407 29.848,304.385 25.080 C 304.362 20.216,304.181 16.312,303.972 16.183 C 303.767 16.056,303.600 13.623,303.600 10.776 C 303.600 7.592,303.446 5.600,303.200 5.600 C 302.980 5.600,302.800 5.150,302.800 4.600 C 302.800 4.050,302.620 3.600,302.400 3.600 C 302.180 3.600,302.000 3.285,301.999 2.900 C 301.999 2.509,301.229 1.714,300.257 1.100 L 298.516 0.000 284.758 0.046 C 277.191 0.072,270.685 0.175,270.300 0.276 M117.279 16.100 C 117.788 16.503,117.960 17.880,118.166 23.200 C 118.415 29.594,118.758 37.636,119.585 56.400 C 119.803 61.350,120.161 69.630,120.379 74.800 C 120.597 79.970,120.899 86.315,121.049 88.900 L 121.322 93.600 115.504 93.600 C 108.607 93.600,109.242 94.403,109.649 86.200 C 110.003 79.069,110.583 65.786,111.212 50.400 C 111.441 44.790,111.804 37.050,112.017 33.200 C 112.231 29.350,112.404 24.098,112.403 21.529 C 112.401 17.813,112.529 16.729,113.029 16.229 C 113.781 15.477,116.391 15.398,117.279 16.100 M287.672 21.800 C 288.095 31.146,288.785 46.931,289.194 56.600 C 289.399 61.440,289.786 70.170,290.054 76.000 C 290.322 81.830,290.554 88.220,290.571 90.200 L 290.600 93.800 284.800 93.800 L 279.000 93.800 279.019 88.800 C 279.029 86.050,279.264 78.940,279.541 73.000 C 279.818 67.060,280.210 58.240,280.411 53.400 C 282.189 10.638,281.608 15.524,284.895 15.681 L 287.400 15.800 287.672 21.800 M157.562 109.754 C 157.875 110.132,157.986 112.262,157.911 116.454 L 157.800 122.600 115.400 122.600 L 73.000 122.600 72.889 116.230 C 72.806 111.402,72.903 109.782,73.289 109.536 C 74.272 108.913,157.041 109.126,157.562 109.754 M327.400 116.000 L 327.400 122.600 284.800 122.600 L 242.200 122.600 242.089 116.417 C 242.028 113.016,242.068 110.000,242.177 109.715 C 242.339 109.294,250.361 109.215,284.888 109.298 L 327.400 109.400 327.400 116.000 M176.303 165.301 L 176.406 192.003 115.303 191.901 L 54.200 191.800 54.097 165.644 C 54.022 146.621,54.118 139.340,54.447 138.943 C 54.827 138.486,64.714 138.414,115.550 138.499 L 176.200 138.600 176.303 165.301 M345.800 165.400 L 345.800 192.200 285.043 192.301 C 240.470 192.376,224.141 192.283,223.743 191.952 C 223.177 191.483,222.888 140.478,223.443 139.031 C 223.664 138.456,229.326 138.407,284.743 138.499 L 345.800 138.600 345.800 165.400 M176.702 244.049 C 176.787 274.238,176.713 280.374,176.260 280.751 C 175.859 281.083,159.668 281.176,114.957 281.101 L 54.200 281.000 54.097 244.800 C 54.040 224.890,54.080 208.374,54.185 208.099 C 54.337 207.699,66.809 207.618,115.488 207.699 L 176.600 207.800 176.702 244.049 M345.800 244.400 L 345.800 281.000 285.043 281.101 C 240.470 281.176,224.141 281.083,223.743 280.752 C 223.162 280.270,222.891 208.442,223.468 207.865 C 223.615 207.718,251.200 207.643,284.768 207.699 L 345.800 207.800 345.800 244.400 M76.530 237.384 C 70.871 239.845,70.308 247.638,75.553 250.900 L 77.000 251.800 100.600 251.800 L 124.200 251.800 126.004 250.739 C 131.087 247.751,130.769 240.166,125.457 237.669 C 123.113 236.567,78.998 236.310,76.530 237.384 M145.992 237.332 C 141.678 239.333,139.967 244.715,142.441 248.497 C 146.289 254.379,158.004 252.640,159.266 246.000 C 160.504 239.482,152.553 234.290,145.992 237.332 M246.000 237.302 C 240.336 239.839,239.774 247.945,245.063 250.834 L 246.831 251.800 270.315 251.800 C 296.740 251.800,295.261 251.966,297.599 248.738 C 300.384 244.893,299.134 239.694,294.934 237.653 C 292.882 236.656,248.158 236.335,246.000 237.302 M314.925 237.630 C 313.160 238.503,311.200 240.698,311.200 241.800 C 311.200 242.159,311.009 242.810,310.775 243.246 C 310.354 244.033,310.572 245.201,311.686 248.120 C 313.599 253.134,324.490 253.330,327.747 248.409 C 332.371 241.421,323.067 233.599,314.925 237.630 M345.503 296.732 C 345.900 296.984,345.984 302.630,345.903 323.625 L 345.800 350.200 285.043 350.301 C 240.470 350.376,224.141 350.283,223.743 349.952 C 222.800 349.170,222.953 297.383,223.900 296.832 C 224.745 296.340,344.730 296.241,345.503 296.732 M176.400 323.401 L 176.400 350.003 115.300 349.901 L 54.200 349.800 54.096 323.800 C 54.039 309.500,54.079 297.575,54.184 297.300 C 54.336 296.903,66.946 296.800,115.387 296.800 L 176.400 296.800 176.400 323.401 M176.308 375.100 L 176.200 384.200 115.200 384.200 L 54.200 384.200 54.092 375.610 C 54.032 370.885,54.072 366.790,54.179 366.510 C 54.337 366.100,66.317 366.000,115.395 366.000 L 176.415 366.000 176.308 375.100 M345.800 375.200 L 345.800 384.200 284.800 384.200 L 223.800 384.200 223.692 375.099 L 223.585 365.997 284.692 366.099 L 345.800 366.200 345.800 375.200 " stroke="none" fill="#4c3c34" fill-rule="evenodd"></path><path id="path4" d="M113.029 16.229 C 112.529 16.729,112.401 17.813,112.403 21.529 C 112.404 24.098,112.231 29.350,112.017 33.200 C 111.804 37.050,111.441 44.790,111.212 50.400 C 110.583 65.786,110.003 79.069,109.649 86.200 C 109.242 94.403,108.607 93.600,115.504 93.600 L 121.322 93.600 121.049 88.900 C 120.899 86.315,120.597 79.970,120.379 74.800 C 120.161 69.630,119.803 61.350,119.585 56.400 C 118.758 37.636,118.415 29.594,118.166 23.200 C 117.960 17.880,117.788 16.503,117.279 16.100 C 116.391 15.398,113.781 15.477,113.029 16.229 M282.228 16.081 C 281.973 16.896,281.670 23.123,280.411 53.400 C 280.210 58.240,279.818 67.060,279.541 73.000 C 279.264 78.940,279.029 86.050,279.019 88.800 L 279.000 93.800 284.800 93.800 L 290.600 93.800 290.571 90.200 C 290.554 88.220,290.322 81.830,290.054 76.000 C 289.786 70.170,289.399 61.440,289.194 56.600 C 288.785 46.931,288.095 31.146,287.672 21.800 L 287.400 15.800 284.895 15.681 C 283.107 15.596,282.343 15.710,282.228 16.081 M117.661 23.200 C 117.804 26.830,118.126 34.390,118.376 40.000 C 119.172 57.865,119.602 67.947,119.983 77.625 C 120.186 82.808,120.479 88.439,120.633 90.136 L 120.912 93.223 115.356 93.112 C 110.064 93.005,109.805 92.962,109.904 92.200 C 109.962 91.760,110.193 86.810,110.419 81.200 C 110.885 69.618,111.386 57.760,111.998 43.800 C 112.229 38.520,112.563 30.408,112.740 25.774 C 113.110 16.095,113.042 16.318,115.536 16.480 L 117.400 16.600 117.661 23.200 M286.652 16.884 C 286.816 17.150,287.089 20.975,287.259 25.384 C 287.428 29.793,287.760 37.720,287.997 43.000 C 288.410 52.192,288.664 58.157,289.607 80.800 C 289.841 86.410,290.070 91.450,290.116 92.000 L 290.200 93.000 284.644 93.112 L 279.088 93.223 279.349 90.312 C 279.492 88.710,279.785 83.080,280.000 77.800 C 280.626 62.373,281.179 49.225,281.590 40.000 C 281.801 35.270,282.084 28.250,282.220 24.400 C 282.355 20.550,282.535 17.175,282.620 16.900 C 282.822 16.249,286.251 16.235,286.652 16.884 M73.289 109.536 C 72.903 109.782,72.806 111.402,72.889 116.230 L 73.000 122.600 115.400 122.600 L 157.800 122.600 157.911 116.454 C 157.986 112.262,157.875 110.132,157.562 109.754 C 157.041 109.126,74.272 108.913,73.289 109.536 M242.177 109.715 C 242.068 110.000,242.028 113.016,242.089 116.417 L 242.200 122.600 284.800 122.600 L 327.400 122.600 327.400 116.000 L 327.400 109.400 284.888 109.298 C 250.361 109.215,242.339 109.294,242.177 109.715 M156.967 109.843 C 157.506 110.050,157.600 110.997,157.600 116.243 L 157.600 122.400 115.400 122.400 L 73.200 122.400 73.200 116.267 C 73.200 112.893,73.320 110.013,73.467 109.867 C 73.800 109.534,156.100 109.510,156.967 109.843 M326.710 116.100 L 326.820 122.400 284.610 122.400 L 242.400 122.400 242.400 116.233 C 242.400 111.675,242.530 110.014,242.900 109.864 C 243.175 109.752,262.120 109.692,285.000 109.731 L 326.600 109.800 326.710 116.100 M54.447 138.943 C 53.850 139.663,54.000 191.667,54.600 191.867 C 54.865 191.955,54.964 183.069,54.894 165.599 L 54.789 139.197 115.294 139.299 L 175.800 139.400 175.800 165.700 C 175.800 180.165,175.936 192.000,176.103 192.000 C 176.269 192.000,176.359 179.985,176.303 165.300 L 176.200 138.600 115.550 138.499 C 64.714 138.414,54.827 138.486,54.447 138.943 M223.443 139.031 C 222.888 140.478,223.177 191.483,223.743 191.952 C 224.141 192.283,240.470 192.376,285.043 192.301 L 345.800 192.200 345.800 165.400 L 345.800 138.600 284.743 138.499 C 229.326 138.407,223.664 138.456,223.443 139.031 M345.103 165.500 L 345.000 191.800 284.824 191.901 C 236.948 191.982,224.584 191.900,224.331 191.501 C 224.155 191.226,224.009 179.345,224.006 165.100 L 224.000 139.200 284.603 139.200 L 345.206 139.200 345.103 165.500 M54.185 208.099 C 54.080 208.374,54.040 224.890,54.097 244.800 L 54.200 281.000 114.957 281.101 C 159.668 281.176,175.859 281.083,176.260 280.751 C 176.713 280.374,176.787 274.238,176.702 244.049 L 176.600 207.800 115.488 207.699 C 66.809 207.618,54.337 207.699,54.185 208.099 M223.468 207.865 C 222.891 208.442,223.162 280.270,223.743 280.752 C 224.141 281.083,240.470 281.176,285.043 281.101 L 345.800 281.000 345.800 244.400 L 345.800 207.800 284.768 207.699 C 251.200 207.643,223.615 207.718,223.468 207.865 M176.157 208.633 C 176.660 209.943,176.429 279.811,175.920 280.320 C 175.411 280.829,56.350 281.063,55.033 280.557 C 54.372 280.304,54.011 208.922,54.667 208.267 C 55.324 207.609,175.904 207.972,176.157 208.633 M345.502 244.175 C 345.583 272.691,345.500 280.216,345.102 280.469 C 344.226 281.025,224.638 280.878,224.080 280.320 C 223.571 279.811,223.340 209.943,223.843 208.631 C 224.064 208.056,229.690 208.007,284.743 208.099 L 345.400 208.200 345.502 244.175 M89.300 236.700 C 95.625 236.762,105.975 236.762,112.300 236.700 C 118.625 236.638,113.450 236.587,100.800 236.587 C 88.150 236.587,82.975 236.638,89.300 236.700 M148.900 236.691 C 149.725 236.778,151.075 236.778,151.900 236.691 C 152.725 236.605,152.050 236.534,150.400 236.534 C 148.750 236.534,148.075 236.605,148.900 236.691 M258.672 236.700 C 264.871 236.762,275.131 236.762,281.472 236.700 C 287.812 236.638,282.740 236.587,270.200 236.587 C 257.660 236.587,252.472 236.638,258.672 236.700 M318.311 236.693 C 319.251 236.778,320.691 236.777,321.511 236.691 C 322.330 236.605,321.560 236.536,319.800 236.537 C 318.040 236.539,317.370 236.609,318.311 236.693 M74.453 238.248 C 73.523 239.044,72.841 239.775,72.938 239.872 C 73.036 239.969,73.585 239.579,74.160 239.004 C 74.734 238.430,75.788 237.706,76.502 237.396 C 77.487 236.967,77.600 236.828,76.972 236.816 C 76.517 236.807,75.383 237.451,74.453 238.248 M125.553 237.689 C 126.707 238.248,127.697 239.156,128.453 240.348 C 129.084 241.343,129.600 241.935,129.600 241.664 C 129.600 240.268,125.879 236.775,124.440 236.820 C 124.088 236.831,124.589 237.222,125.553 237.689 M144.548 237.615 C 139.538 240.825,139.849 248.881,145.082 251.432 C 148.377 253.037,155.266 252.491,156.868 250.496 C 157.210 250.072,156.828 250.186,155.800 250.817 C 153.502 252.229,147.410 252.265,145.000 250.881 C 139.670 247.822,140.243 239.998,145.992 237.332 C 146.546 237.075,146.730 236.853,146.400 236.839 C 146.070 236.825,145.237 237.174,144.548 237.615 M293.633 236.949 C 293.725 237.031,294.430 237.402,295.200 237.773 L 296.600 238.448 295.600 237.633 C 294.814 236.992,292.962 236.348,293.633 236.949 M313.744 237.941 C 309.476 241.033,309.020 246.208,312.689 249.900 C 313.619 250.835,314.609 251.591,314.889 251.579 C 315.170 251.567,314.950 251.252,314.400 250.879 C 311.771 249.094,309.838 244.997,310.788 243.223 C 311.015 242.799,311.200 242.159,311.200 241.800 C 311.200 240.698,313.160 238.503,314.925 237.630 C 315.846 237.174,316.312 236.800,315.960 236.800 C 315.608 236.800,314.611 237.314,313.744 237.941 M324.298 237.396 C 325.012 237.706,326.066 238.430,326.640 239.004 C 327.215 239.579,327.764 239.969,327.862 239.872 C 328.217 239.517,324.631 236.800,323.828 236.816 C 323.200 236.828,323.313 236.967,324.298 237.396 M156.000 237.712 C 156.000 237.799,156.694 238.599,157.541 239.490 C 159.765 241.828,160.129 245.902,158.341 248.462 C 157.934 249.046,157.600 249.672,157.600 249.855 C 157.600 250.037,158.087 249.469,158.682 248.593 C 160.221 246.329,160.239 242.498,158.722 240.265 C 157.827 238.949,156.000 237.235,156.000 237.712 M243.758 238.327 C 240.782 240.741,240.020 245.506,242.118 248.593 C 242.713 249.469,243.200 250.037,243.200 249.855 C 243.200 249.672,242.866 249.046,242.459 248.462 C 240.671 245.902,241.035 241.828,243.259 239.489 C 244.896 237.769,245.136 237.211,243.758 238.327 M296.800 238.776 C 296.800 238.983,296.999 239.276,297.242 239.426 C 297.485 239.576,298.021 240.441,298.433 241.349 C 298.845 242.257,299.186 242.681,299.191 242.291 C 299.196 241.902,298.726 240.867,298.147 239.991 C 297.067 238.359,296.800 238.119,296.800 238.776 M71.507 243.253 C 71.406 243.943,71.457 245.068,71.620 245.753 C 71.858 246.750,71.926 246.498,71.959 244.500 C 72.003 241.800,71.802 241.244,71.507 243.253 M328.872 244.400 C 328.872 246.676,328.919 246.838,329.248 245.700 C 329.481 244.890,329.481 243.910,329.248 243.100 C 328.919 241.962,328.872 242.124,328.872 244.400 M129.720 244.400 C 129.720 245.610,129.795 246.105,129.887 245.500 C 129.978 244.895,129.978 243.905,129.887 243.300 C 129.795 242.695,129.720 243.190,129.720 244.400 M298.677 246.888 C 298.225 248.608,295.629 251.055,293.710 251.571 C 292.519 251.891,285.328 251.992,269.310 251.913 L 246.600 251.800 245.029 250.824 C 244.165 250.287,243.602 250.080,243.779 250.365 C 243.955 250.650,244.841 251.221,245.749 251.633 C 248.334 252.807,292.154 252.789,294.600 251.613 C 297.204 250.361,299.400 247.870,299.111 246.498 C 299.004 245.993,298.884 246.101,298.677 246.888 M128.604 248.245 C 128.173 249.044,127.051 250.124,126.021 250.729 L 124.200 251.800 100.538 251.800 C 87.524 251.800,77.084 251.932,77.338 252.094 C 78.137 252.602,122.900 252.461,124.440 251.945 C 126.853 251.137,130.298 247.764,129.512 246.979 C 129.431 246.898,129.022 247.468,128.604 248.245 M72.009 247.511 C 71.997 248.166,75.418 251.600,76.082 251.600 C 76.359 251.600,75.914 251.144,75.093 250.586 C 74.272 250.028,73.596 249.443,73.591 249.286 C 73.574 248.746,72.018 247.000,72.009 247.511 M327.632 248.548 C 327.159 249.313,326.194 250.310,325.486 250.763 C 324.779 251.216,324.352 251.590,324.538 251.593 C 325.571 251.614,329.221 247.888,328.689 247.356 C 328.580 247.247,328.105 247.784,327.632 248.548 M316.315 252.072 C 317.247 252.442,322.888 252.459,323.462 252.094 C 323.716 251.932,322.058 251.800,319.777 251.800 C 317.496 251.800,315.938 251.922,316.315 252.072 M223.900 296.832 C 222.953 297.383,222.800 349.170,223.743 349.952 C 224.141 350.283,240.470 350.376,285.043 350.301 L 345.800 350.200 345.903 323.625 C 345.984 302.630,345.900 296.984,345.503 296.732 C 344.730 296.241,224.745 296.340,223.900 296.832 M54.184 297.300 C 53.790 298.331,54.197 349.732,54.600 349.867 C 54.865 349.955,54.964 341.069,54.894 323.600 L 54.789 297.200 115.400 297.200 L 176.011 297.200 175.906 323.600 C 175.848 338.120,175.935 350.000,176.100 350.000 C 176.265 350.000,176.400 338.030,176.400 323.400 L 176.400 296.800 115.387 296.800 C 66.946 296.800,54.336 296.903,54.184 297.300 M345.103 323.500 L 345.000 349.800 284.600 349.800 L 224.200 349.800 224.097 323.500 L 223.994 297.200 284.600 297.200 L 345.206 297.200 345.103 323.500 M54.179 366.510 C 54.072 366.790,54.032 370.885,54.092 375.610 L 54.200 384.200 115.200 384.200 L 176.200 384.200 176.308 375.100 L 176.415 366.000 115.395 366.000 C 66.317 366.000,54.337 366.100,54.179 366.510 M223.692 375.099 L 223.800 384.200 284.800 384.200 L 345.800 384.200 345.800 375.200 L 345.800 366.200 284.692 366.099 L 223.585 365.997 223.692 375.099 M175.908 375.100 L 175.800 383.800 115.424 383.901 C 67.388 383.982,54.984 383.900,54.731 383.501 C 54.347 382.897,54.287 367.047,54.667 366.667 C 54.813 366.520,82.177 366.400,115.474 366.400 L 176.016 366.400 175.908 375.100 M345.513 374.400 C 345.576 378.690,345.527 382.606,345.406 383.101 L 345.184 384.003 284.692 383.901 L 224.200 383.800 224.092 375.099 L 223.984 366.397 284.692 366.499 L 345.400 366.600 345.513 374.400 " stroke="none" fill="#b0714d" fill-rule="evenodd"></path></g></svg>