<svg id="svg" version="1.1" xmlns="http://www.w3.org/2000/svg" xmlns:xlink="http://www.w3.org/1999/xlink" width="40" height="40" viewBox="0, 0, 400,400"><g id="svgg"><path id="path0" d="M202.700 0.257 C 202.315 0.368,202.000 0.625,202.000 0.829 C 202.000 1.033,201.680 1.200,201.288 1.200 C 200.897 1.200,200.317 1.560,200.000 2.000 C 199.683 2.440,199.143 2.800,198.800 2.800 C 198.457 2.800,197.917 3.160,197.600 3.600 C 197.283 4.040,196.703 4.400,196.312 4.400 C 195.920 4.400,195.600 4.580,195.600 4.800 C 195.600 5.020,195.330 5.200,195.000 5.200 C 194.670 5.200,194.400 5.380,194.400 5.600 C 194.400 5.820,194.130 6.000,193.800 6.000 C 193.470 6.000,193.200 6.180,193.200 6.400 C 193.200 6.620,192.996 6.800,192.747 6.800 C 192.498 6.800,192.003 7.131,191.647 7.536 C 191.291 7.941,190.505 8.394,189.900 8.544 C 189.295 8.693,188.800 8.992,188.800 9.208 C 188.800 9.423,188.440 9.600,188.000 9.600 C 187.560 9.600,187.200 9.758,187.200 9.951 C 187.200 10.145,186.660 10.527,186.000 10.800 C 185.340 11.073,184.800 11.455,184.800 11.649 C 184.800 11.842,184.564 12.000,184.275 12.000 C 183.987 12.000,183.364 12.360,182.892 12.800 C 182.420 13.240,181.796 13.600,181.505 13.600 C 181.214 13.600,180.717 13.960,180.400 14.400 C 180.083 14.840,179.503 15.200,179.112 15.200 C 178.720 15.200,178.400 15.380,178.400 15.600 C 178.400 15.820,178.130 16.000,177.800 16.000 C 177.470 16.000,177.200 16.180,177.200 16.400 C 177.200 16.620,176.930 16.800,176.600 16.800 C 176.270 16.800,176.000 16.980,176.000 17.200 C 176.000 17.420,175.770 17.600,175.488 17.600 C 175.207 17.600,174.717 17.960,174.400 18.400 C 174.083 18.840,173.503 19.200,173.112 19.200 C 172.720 19.200,172.400 19.380,172.400 19.600 C 172.400 19.820,172.164 20.000,171.875 20.000 C 171.587 20.000,170.964 20.360,170.492 20.800 C 170.020 21.240,169.396 21.600,169.105 21.600 C 168.814 21.600,168.317 21.960,168.000 22.400 C 167.683 22.840,167.143 23.200,166.800 23.200 C 166.457 23.200,165.917 23.560,165.600 24.000 C 165.283 24.440,164.780 24.800,164.482 24.800 C 164.184 24.800,162.688 25.610,161.158 26.600 C 159.627 27.590,158.240 28.400,158.076 28.400 C 157.911 28.400,157.517 28.760,157.200 29.200 C 156.883 29.640,156.303 30.000,155.912 30.000 C 155.520 30.000,155.200 30.180,155.200 30.400 C 155.200 30.662,147.533 30.800,133.000 30.800 C 118.467 30.800,110.800 30.938,110.800 31.200 C 110.800 31.420,110.260 31.600,109.600 31.600 C 108.940 31.600,108.400 31.780,108.400 32.000 C 108.400 32.220,108.040 32.400,107.600 32.400 C 107.160 32.400,106.800 32.550,106.800 32.732 C 106.800 32.915,106.306 33.320,105.703 33.632 C 104.372 34.321,102.000 36.609,102.000 37.203 C 102.000 37.440,101.640 38.020,101.200 38.492 C 100.760 38.964,100.400 39.767,100.400 40.275 C 100.400 40.784,100.220 41.200,100.000 41.200 C 99.780 41.200,99.600 41.909,99.600 42.776 C 99.600 43.643,99.420 44.464,99.200 44.600 C 98.960 44.749,98.800 47.471,98.800 51.425 L 98.800 58.002 97.117 59.501 C 96.192 60.325,94.707 61.793,93.817 62.763 C 92.928 63.733,89.455 67.286,86.100 70.660 C 82.745 74.033,80.000 76.893,80.000 77.015 C 80.000 77.137,79.543 77.694,78.984 78.252 C 78.425 78.811,77.663 79.973,77.290 80.834 C 76.917 81.695,76.474 82.400,76.306 82.400 C 76.138 82.400,76.000 82.649,76.000 82.954 C 76.000 83.259,75.731 84.024,75.402 84.654 C 75.074 85.284,74.804 86.115,74.802 86.500 C 74.801 86.885,74.620 87.200,74.400 87.200 C 74.180 87.200,74.000 87.740,74.000 88.400 C 74.000 89.060,73.820 89.600,73.600 89.600 C 73.380 89.600,73.200 90.320,73.200 91.200 C 73.200 92.080,73.020 92.800,72.800 92.800 C 72.539 92.800,72.400 99.347,72.400 111.640 L 72.400 130.480 73.760 131.840 C 74.508 132.588,75.408 133.200,75.760 133.200 C 76.112 133.200,76.400 133.380,76.400 133.600 C 76.400 134.207,77.437 134.078,78.000 133.400 C 78.274 133.070,78.881 132.799,79.349 132.799 C 80.531 132.796,82.615 131.453,83.478 130.138 C 84.136 129.135,84.219 127.543,84.411 112.219 C 84.701 89.004,84.217 90.236,98.765 75.735 L 108.130 66.400 200.152 66.400 L 292.175 66.400 300.787 75.023 C 309.634 83.880,311.276 85.749,312.811 88.717 C 313.953 90.927,313.698 91.112,310.686 90.256 C 305.486 88.778,304.908 88.639,299.200 87.491 C 284.291 84.492,270.416 84.414,255.600 87.245 C 252.660 87.806,250.021 88.407,248.800 88.792 C 248.250 88.965,246.990 89.334,246.000 89.611 C 216.261 97.939,191.272 121.781,177.884 154.600 C 176.204 158.717,175.546 160.438,173.639 165.700 C 170.260 175.022,165.535 185.532,161.905 191.800 C 159.702 195.604,157.109 199.782,156.816 200.000 C 156.668 200.110,155.940 201.100,155.198 202.200 C 149.113 211.217,138.903 221.046,129.000 227.421 C 125.534 229.653,116.175 234.400,115.242 234.400 C 114.993 234.400,114.477 234.571,114.095 234.781 C 112.945 235.412,108.417 236.797,103.800 237.929 C 99.399 239.009,91.637 240.000,87.584 240.000 L 84.400 240.000 84.400 199.787 C 84.400 166.308,84.307 159.351,83.842 158.240 C 83.229 156.772,80.925 154.800,79.824 154.800 C 79.439 154.800,78.575 154.485,77.905 154.100 C 76.987 153.573,76.642 153.524,76.510 153.900 C 76.413 154.175,76.072 154.400,75.753 154.400 C 75.434 154.400,74.549 155.024,73.787 155.787 L 72.400 157.173 72.400 248.563 C 72.400 309.058,72.535 340.036,72.800 340.200 C 73.020 340.336,73.200 341.067,73.200 341.824 C 73.200 342.581,73.380 343.200,73.600 343.200 C 73.820 343.200,74.000 343.740,74.000 344.400 C 74.000 345.060,74.180 345.600,74.400 345.600 C 74.620 345.600,74.800 346.016,74.800 346.525 C 74.800 347.391,76.587 351.559,77.147 352.000 C 77.287 352.110,77.656 352.695,77.968 353.300 C 78.280 353.905,78.685 354.400,78.868 354.400 C 79.050 354.400,79.200 354.608,79.200 354.862 C 79.200 355.116,82.173 358.311,85.806 361.962 C 89.440 365.613,93.850 370.065,95.606 371.856 L 98.800 375.112 98.800 380.732 C 98.800 384.048,98.964 386.454,99.200 386.600 C 99.420 386.736,99.600 387.647,99.600 388.624 C 99.600 389.601,99.780 390.400,100.000 390.400 C 100.220 390.400,100.400 390.850,100.400 391.400 C 100.400 391.950,100.580 392.400,100.800 392.400 C 101.020 392.400,101.200 392.646,101.200 392.946 C 101.200 393.555,105.325 398.000,105.890 398.000 C 106.088 398.000,106.684 398.405,107.215 398.900 L 108.181 399.800 199.757 399.800 C 272.663 399.800,291.367 399.698,291.500 399.300 C 291.592 399.025,291.929 398.800,292.249 398.800 C 293.036 398.800,298.000 393.819,298.000 393.029 C 298.000 392.683,298.135 392.399,298.300 392.397 C 298.701 392.393,299.600 390.419,299.600 389.544 C 299.600 389.161,299.780 388.736,300.000 388.600 C 300.239 388.453,300.400 385.871,300.400 382.201 L 300.400 376.049 304.668 371.924 C 314.448 362.473,321.141 355.475,321.560 354.263 C 321.648 354.008,321.855 353.710,322.021 353.600 C 322.512 353.274,325.200 347.720,325.200 347.032 C 325.200 346.685,325.380 346.400,325.600 346.400 C 325.820 346.400,326.000 345.860,326.000 345.200 C 326.000 344.540,326.180 344.000,326.400 344.000 C 326.620 344.000,326.800 343.280,326.800 342.400 C 326.800 341.520,326.980 340.800,327.200 340.800 C 327.420 340.800,327.600 339.821,327.600 338.624 C 327.600 337.427,327.780 336.336,328.000 336.200 C 328.265 336.036,328.400 295.663,328.400 216.376 C 328.400 136.925,328.266 96.800,328.000 96.800 C 327.778 96.800,327.600 95.733,327.600 94.400 C 327.600 93.067,327.422 92.000,327.200 92.000 C 326.980 92.000,326.800 91.280,326.800 90.400 C 326.800 89.520,326.620 88.800,326.400 88.800 C 326.180 88.800,326.000 88.451,326.000 88.024 C 326.000 87.597,325.820 87.136,325.600 87.000 C 325.380 86.864,325.200 86.385,325.200 85.935 C 325.200 84.921,322.487 79.632,321.515 78.753 C 321.122 78.397,320.800 77.965,320.800 77.791 C 320.800 77.618,317.875 74.553,314.300 70.980 C 310.725 67.407,306.717 63.340,305.393 61.942 C 304.069 60.544,302.406 58.950,301.697 58.400 L 300.407 57.400 300.404 50.100 C 300.401 45.502,300.252 42.800,300.000 42.800 C 299.780 42.800,299.600 42.260,299.600 41.600 C 299.600 40.940,299.420 40.400,299.200 40.400 C 298.980 40.400,298.800 40.040,298.800 39.600 C 298.800 39.160,298.620 38.800,298.400 38.800 C 298.180 38.800,298.000 38.526,298.000 38.191 C 298.000 37.399,293.801 33.200,293.009 33.200 C 292.674 33.200,292.400 33.020,292.400 32.800 C 292.400 32.580,292.040 32.400,291.600 32.400 C 291.160 32.400,290.800 32.220,290.800 32.000 C 290.800 31.780,290.361 31.600,289.824 31.600 C 289.287 31.600,288.736 31.420,288.600 31.200 C 288.446 30.951,284.729 30.800,278.776 30.800 C 272.659 30.800,269.200 30.944,269.200 31.200 C 269.200 31.420,268.906 31.600,268.547 31.600 C 267.678 31.600,266.001 33.589,266.000 34.620 C 266.000 35.071,265.775 35.668,265.500 35.947 C 265.100 36.353,265.122 36.548,265.613 36.927 C 265.950 37.187,266.478 38.176,266.786 39.125 C 267.892 42.539,268.599 42.797,276.931 42.823 C 287.781 42.856,287.985 42.994,287.994 50.292 C 288.000 54.622,287.967 54.793,287.100 55.002 C 286.605 55.121,246.960 55.169,199.000 55.109 L 111.800 55.000 111.800 49.843 L 111.800 44.686 112.929 43.843 L 114.059 43.000 178.451 42.895 C 237.292 42.799,242.929 42.734,243.842 42.136 C 244.983 41.388,246.000 39.631,246.000 38.407 C 246.000 37.949,246.270 37.471,246.600 37.345 C 247.265 37.089,247.445 34.800,246.800 34.800 C 246.580 34.800,246.400 34.522,246.400 34.182 C 246.400 33.382,244.618 31.600,243.818 31.600 C 243.478 31.600,243.200 31.420,243.200 31.200 C 243.200 30.937,232.533 30.800,212.000 30.800 C 194.840 30.800,180.800 30.697,180.800 30.571 C 180.800 30.102,181.965 29.200,182.571 29.200 C 182.917 29.200,183.200 29.020,183.200 28.800 C 183.200 28.580,183.436 28.400,183.725 28.400 C 184.013 28.400,184.636 28.040,185.108 27.600 C 185.580 27.160,186.204 26.800,186.495 26.800 C 186.786 26.800,187.283 26.440,187.600 26.000 C 187.917 25.560,188.475 25.200,188.839 25.200 C 189.204 25.200,189.726 24.930,190.000 24.600 C 190.274 24.270,190.746 24.000,191.049 24.000 C 191.352 24.000,191.600 23.842,191.600 23.649 C 191.600 23.455,192.140 23.073,192.800 22.800 C 193.460 22.527,194.000 22.145,194.000 21.951 C 194.000 21.758,194.320 21.600,194.712 21.600 C 195.103 21.600,195.683 21.240,196.000 20.800 C 196.317 20.360,196.814 20.000,197.105 20.000 C 197.396 20.000,198.020 19.640,198.492 19.200 C 198.964 18.760,199.587 18.400,199.875 18.400 C 200.164 18.400,200.400 18.220,200.400 18.000 C 200.400 17.780,200.636 17.600,200.925 17.600 C 201.213 17.600,201.836 17.240,202.308 16.800 C 202.780 16.360,203.378 16.000,203.636 16.000 C 203.895 16.000,204.397 15.684,204.753 15.297 C 205.109 14.911,205.940 14.327,206.600 14.000 C 207.260 13.673,208.091 13.089,208.447 12.703 C 208.803 12.316,209.304 12.000,209.560 12.000 C 212.072 12.000,214.094 4.748,212.208 2.505 C 211.882 2.117,211.356 1.440,211.040 1.000 C 210.466 0.202,204.684 -0.313,202.700 0.257 M288.376 97.188 C 289.599 97.401,291.950 97.789,293.600 98.050 C 299.683 99.013,305.373 100.425,311.400 102.469 C 316.090 104.060,316.059 104.029,315.917 106.963 C 315.783 109.760,316.066 109.660,310.600 108.843 C 291.189 105.939,272.787 108.474,257.462 116.161 C 250.225 119.791,248.762 123.407,252.929 127.363 C 254.996 129.324,256.391 129.183,262.092 126.432 C 276.451 119.504,291.288 117.462,308.600 120.032 C 314.228 120.867,315.604 121.274,315.822 122.166 C 315.934 122.625,315.975 171.150,315.913 230.000 L 315.800 337.000 314.863 339.600 C 312.802 345.322,311.897 346.525,302.445 356.095 L 293.462 365.191 228.773 365.295 C 164.726 365.399,164.075 365.408,163.184 366.200 C 160.443 368.636,160.391 372.566,163.067 375.089 L 164.454 376.397 226.127 376.499 L 287.800 376.600 287.800 381.724 C 287.800 386.718,287.775 386.867,286.800 387.615 C 285.821 388.366,283.965 388.382,199.862 388.391 L 113.923 388.400 112.750 387.564 L 111.577 386.729 111.688 381.664 L 111.800 376.600 123.800 376.400 C 136.572 376.187,136.894 376.136,138.208 374.132 C 139.243 372.553,139.235 368.937,138.195 367.513 C 136.540 365.251,136.158 365.200,120.719 365.200 L 106.559 365.200 98.130 356.700 C 84.220 342.673,84.400 343.165,84.400 319.237 L 84.400 302.513 90.700 302.039 C 99.633 301.368,106.676 300.306,115.200 298.344 C 119.252 297.412,121.001 296.944,124.200 295.938 C 125.520 295.522,127.230 294.994,128.000 294.763 C 131.059 293.845,134.127 292.641,141.200 289.579 C 145.154 287.868,151.027 284.828,152.862 283.543 C 153.446 283.135,154.037 282.800,154.175 282.800 C 154.688 282.800,165.391 275.439,166.400 274.392 C 166.510 274.278,168.040 272.989,169.800 271.528 C 181.339 261.949,191.408 248.772,198.478 234.000 C 202.757 225.060,204.697 219.672,208.055 207.400 C 208.296 206.520,208.631 205.350,208.800 204.800 C 208.969 204.250,209.336 202.990,209.616 202.000 C 210.705 198.146,214.007 188.331,215.200 185.400 C 215.379 184.960,215.793 183.880,216.120 183.000 C 218.962 175.353,225.102 163.508,230.078 156.073 C 232.901 151.856,233.758 150.687,237.100 146.499 C 242.176 140.139,234.584 133.069,228.940 138.900 C 222.880 145.159,213.348 160.520,208.641 171.611 C 208.223 172.595,207.530 174.210,207.101 175.200 C 206.672 176.190,206.158 177.405,205.960 177.900 C 205.345 179.436,204.815 180.763,204.440 181.700 C 204.243 182.195,203.864 183.230,203.600 184.000 C 203.336 184.770,202.967 185.760,202.781 186.200 C 201.921 188.235,199.847 194.897,197.800 202.200 C 196.567 206.600,195.389 210.740,195.182 211.400 C 193.701 216.127,192.248 220.272,191.325 222.400 C 190.992 223.170,190.577 224.160,190.404 224.600 C 183.147 243.090,165.812 263.285,149.047 272.780 C 148.251 273.231,146.925 273.989,146.100 274.465 C 139.211 278.437,127.328 283.435,120.400 285.274 C 119.630 285.478,118.370 285.827,117.600 286.049 C 108.606 288.645,96.323 290.552,88.400 290.583 L 84.200 290.600 84.096 271.446 C 84.029 259.079,84.134 252.120,84.393 251.808 C 84.654 251.494,86.874 251.235,90.756 251.067 C 94.036 250.925,97.592 250.645,98.659 250.445 C 99.727 250.245,101.860 249.866,103.400 249.603 C 104.940 249.340,106.740 248.971,107.400 248.785 C 108.060 248.598,109.950 248.062,111.600 247.595 C 121.000 244.931,129.969 240.608,138.797 234.488 C 140.889 233.038,142.690 231.747,142.800 231.620 C 142.910 231.493,143.987 230.581,145.193 229.595 C 148.676 226.744,151.846 223.679,155.348 219.775 C 160.279 214.279,160.601 213.878,165.442 207.200 C 169.094 202.163,174.420 192.804,177.735 185.600 C 181.037 178.422,182.532 174.752,184.606 168.724 C 199.113 126.577,225.102 103.130,263.800 97.279 C 267.101 96.780,285.643 96.711,288.376 97.188 M289.937 156.467 C 287.406 157.934,287.400 157.970,287.400 172.019 C 287.400 184.150,287.436 184.756,288.199 185.599 C 290.767 188.436,295.422 188.259,297.568 185.244 C 298.367 184.123,298.400 183.591,298.400 171.776 L 298.400 159.476 297.379 158.137 C 295.405 155.549,292.604 154.920,289.937 156.467 M290.600 208.777 C 289.268 209.320,287.713 211.136,287.449 212.456 C 286.836 215.522,287.179 320.835,287.806 322.157 C 289.509 325.745,295.985 325.911,297.793 322.413 C 298.838 320.393,298.695 212.689,297.646 210.968 C 296.372 208.880,292.954 207.817,290.600 208.777 " stroke="none" fill="#060505" fill-rule="evenodd"></path><path id="path1" d="M99.211 75.954 C 88.225 87.122,88.322 86.999,86.097 92.743 L 85.068 95.400 84.834 112.472 C 84.557 132.686,84.905 131.445,78.900 133.625 L 77.600 134.097 77.600 143.784 L 77.600 153.472 78.619 153.936 C 79.179 154.191,79.927 154.400,80.281 154.400 C 81.333 154.400,83.643 156.406,84.242 157.840 C 84.707 158.951,84.800 165.916,84.800 199.446 L 84.800 239.718 88.300 239.447 C 97.139 238.761,101.563 238.058,107.300 236.427 C 108.125 236.192,109.385 235.844,110.100 235.653 C 114.157 234.571,124.314 229.927,127.872 227.528 C 128.792 226.907,129.722 226.400,129.939 226.400 C 130.156 226.400,130.393 226.255,130.467 226.077 C 130.540 225.899,131.500 225.148,132.600 224.408 C 138.252 220.606,146.455 212.848,150.796 207.200 C 151.557 206.210,152.286 205.310,152.416 205.200 C 152.546 205.090,153.259 204.100,154.000 203.000 C 154.741 201.900,155.461 200.910,155.600 200.800 C 156.130 200.381,158.400 196.836,158.400 196.428 C 158.400 196.193,158.559 196.000,158.753 196.000 C 158.948 196.000,159.207 195.685,159.329 195.300 C 159.576 194.519,160.863 192.310,161.250 192.000 C 161.825 191.540,168.370 177.856,169.956 173.800 C 172.054 168.429,172.396 167.592,172.847 166.705 C 173.041 166.323,173.200 165.736,173.200 165.400 C 173.200 165.064,173.380 164.432,173.600 163.995 C 173.820 163.558,174.180 162.842,174.400 162.405 C 174.620 161.968,174.800 161.336,174.800 161.000 C 174.800 160.664,174.959 160.077,175.153 159.695 C 175.535 158.945,175.926 158.002,177.558 153.900 C 179.108 150.004,183.447 141.305,185.659 137.659 C 186.506 136.262,187.200 135.037,187.200 134.937 C 187.200 134.695,190.468 129.855,190.803 129.600 C 190.948 129.490,191.682 128.485,192.433 127.366 C 196.295 121.620,205.058 112.165,210.386 107.997 C 211.368 107.229,212.538 106.260,212.986 105.845 C 216.107 102.951,230.406 94.680,236.400 92.303 C 236.950 92.085,237.713 91.748,238.095 91.553 C 238.477 91.359,239.064 91.200,239.400 91.200 C 239.993 91.200,240.416 91.034,242.295 90.062 C 242.787 89.808,243.631 89.600,244.171 89.600 C 244.711 89.600,245.251 89.441,245.371 89.246 C 245.492 89.051,246.087 88.793,246.695 88.671 C 247.303 88.549,248.610 88.248,249.600 88.003 C 253.575 87.017,257.404 86.263,262.000 85.562 C 263.430 85.344,268.691 85.064,273.691 84.940 L 282.782 84.715 282.332 83.857 C 281.539 82.349,280.088 80.745,273.324 73.900 L 266.703 67.200 187.262 67.200 L 107.821 67.200 99.211 75.954 M282.800 120.424 C 280.351 120.766,278.964 121.040,276.600 121.652 C 275.720 121.880,274.280 122.252,273.400 122.479 C 272.520 122.706,271.395 123.051,270.900 123.246 C 270.405 123.441,269.595 123.756,269.100 123.946 C 266.959 124.771,265.972 125.217,262.000 127.156 C 256.776 129.706,253.174 129.697,252.073 127.132 C 251.799 126.495,241.620 134.349,238.844 137.340 C 237.934 138.321,237.920 138.418,238.544 139.371 C 239.838 141.345,239.428 144.298,237.513 146.800 C 236.587 148.010,234.699 150.530,233.318 152.400 C 231.937 154.270,230.625 156.017,230.403 156.283 C 230.182 156.549,230.000 156.874,230.000 157.005 C 230.000 157.136,229.280 158.304,228.400 159.600 C 227.520 160.896,226.800 162.131,226.800 162.345 C 226.800 162.558,226.665 162.793,226.500 162.867 C 225.439 163.338,218.719 177.605,215.603 186.000 C 214.910 187.870,214.187 189.760,213.997 190.200 C 213.808 190.640,213.439 191.720,213.177 192.600 C 212.916 193.480,212.544 194.513,212.351 194.895 C 212.158 195.277,212.000 195.941,212.000 196.371 C 212.000 196.801,211.820 197.264,211.600 197.400 C 211.380 197.536,211.200 198.076,211.200 198.600 C 211.200 199.124,211.020 199.664,210.800 199.800 C 210.580 199.936,210.400 200.566,210.400 201.200 C 210.400 201.834,210.220 202.464,210.000 202.600 C 209.780 202.736,209.600 203.366,209.600 204.000 C 209.600 204.634,209.420 205.264,209.200 205.400 C 208.980 205.536,208.800 206.166,208.800 206.800 C 208.800 207.434,208.620 208.064,208.400 208.200 C 208.180 208.336,208.000 208.966,208.000 209.600 C 208.000 210.234,207.820 210.864,207.600 211.000 C 207.380 211.136,207.200 211.689,207.200 212.229 C 207.200 212.769,207.038 213.523,206.839 213.905 C 206.640 214.287,206.260 215.410,205.993 216.400 C 205.727 217.390,205.367 218.560,205.195 219.000 C 205.022 219.440,204.664 220.430,204.400 221.200 C 204.136 221.970,203.778 222.960,203.604 223.400 C 201.005 230.006,199.944 232.453,198.143 236.000 C 196.970 238.310,195.460 241.100,194.787 242.200 C 194.115 243.300,193.462 244.515,193.336 244.900 C 193.210 245.285,192.948 245.600,192.753 245.600 C 192.559 245.600,192.400 245.790,192.400 246.022 C 192.400 246.824,187.527 253.633,183.256 258.800 C 172.110 272.284,153.576 285.578,136.900 292.051 C 136.405 292.243,135.550 292.580,135.000 292.800 C 134.450 293.020,133.595 293.362,133.100 293.560 C 132.605 293.757,131.570 294.136,130.800 294.400 C 130.030 294.664,129.040 295.022,128.600 295.195 C 128.160 295.367,126.990 295.735,126.000 296.012 C 125.010 296.289,123.461 296.748,122.559 297.033 C 115.299 299.323,97.809 302.388,91.959 302.397 C 90.726 302.399,88.599 302.517,87.232 302.660 L 84.747 302.919 84.903 320.160 C 85.068 338.366,85.071 338.402,87.054 342.698 C 88.521 345.878,90.377 348.075,98.549 356.300 L 106.993 364.800 121.372 364.800 C 138.487 364.800,137.770 364.615,139.611 369.507 L 140.103 370.813 150.351 370.707 L 160.600 370.600 160.735 369.413 C 160.809 368.760,161.228 367.722,161.667 367.107 C 163.414 364.653,159.934 364.800,216.248 364.800 L 267.736 364.800 273.300 359.300 C 281.294 351.399,284.037 347.480,285.968 341.200 C 287.531 336.119,288.095 325.758,287.004 322.164 C 286.188 319.472,286.087 213.694,286.900 212.274 C 287.272 211.623,287.400 208.027,287.400 198.200 C 287.400 188.373,287.272 184.777,286.900 184.126 C 286.132 182.784,286.208 161.167,286.988 159.000 C 287.458 157.696,287.568 153.942,287.582 138.700 L 287.600 120.000 286.300 120.059 C 285.585 120.091,284.010 120.256,282.800 120.424 " stroke="none" fill="#e3636b" fill-rule="evenodd"></path><path id="path2" d="M246.801 38.395 C 246.177 40.686,244.291 43.200,243.194 43.200 C 242.783 43.200,242.336 43.380,242.200 43.600 C 242.037 43.864,220.078 44.000,177.622 44.000 L 113.292 44.000 112.646 44.986 C 112.155 45.736,112.000 46.980,112.000 50.186 L 112.000 54.400 199.600 54.400 L 287.200 54.400 287.200 49.771 C 287.200 43.614,287.770 44.000,278.677 44.000 C 269.038 44.000,266.043 42.755,265.987 38.726 C 265.956 36.465,265.680 36.400,256.128 36.400 L 247.345 36.400 246.801 38.395 M267.200 97.647 C 260.055 98.597,257.884 98.962,254.200 99.836 C 245.506 101.898,236.895 105.232,231.000 108.819 C 229.900 109.488,228.685 110.138,228.300 110.264 C 227.915 110.390,227.600 110.623,227.600 110.782 C 227.600 110.941,227.159 111.272,226.620 111.518 C 225.286 112.126,220.064 116.016,216.843 118.801 C 210.121 124.614,205.327 130.158,199.721 138.600 C 196.338 143.696,190.800 153.915,190.800 155.064 C 190.800 155.359,190.620 155.600,190.400 155.600 C 190.180 155.600,190.000 155.872,190.000 156.205 C 190.000 156.538,189.841 157.123,189.647 157.505 C 189.273 158.240,188.524 159.999,187.946 161.500 C 187.756 161.995,187.432 162.805,187.226 163.300 C 187.020 163.795,186.363 165.640,185.766 167.400 C 182.383 177.368,176.864 189.777,172.779 196.600 C 172.121 197.700,171.461 198.870,171.314 199.200 C 170.804 200.345,166.049 207.542,163.741 210.663 C 152.221 226.240,136.126 239.113,120.500 245.247 C 120.005 245.441,119.195 245.772,118.700 245.983 C 111.872 248.891,100.054 251.308,90.100 251.833 L 84.800 252.113 84.800 271.314 L 84.800 290.515 87.900 290.227 C 96.844 289.393,98.816 289.183,101.200 288.810 C 104.153 288.348,106.934 287.827,109.700 287.218 C 110.745 286.988,112.365 286.634,113.300 286.430 C 114.235 286.227,115.630 285.882,116.400 285.665 C 117.170 285.447,118.865 284.978,120.167 284.622 C 125.197 283.247,134.892 279.542,138.741 277.523 C 139.918 276.905,141.133 276.400,141.441 276.400 C 141.748 276.400,142.000 276.220,142.000 276.000 C 142.000 275.780,142.360 275.600,142.800 275.600 C 143.240 275.600,143.600 275.441,143.600 275.247 C 143.600 275.052,143.915 274.787,144.300 274.658 C 145.874 274.128,153.011 269.537,158.000 265.846 C 161.686 263.120,172.033 253.139,174.731 249.707 C 180.722 242.089,187.523 230.545,189.993 223.800 C 190.155 223.360,190.672 222.218,191.143 221.262 C 191.614 220.306,192.000 219.192,192.000 218.786 C 192.000 218.380,192.180 217.936,192.400 217.800 C 192.620 217.664,192.800 217.124,192.800 216.600 C 192.800 216.076,192.980 215.536,193.200 215.400 C 193.420 215.264,193.600 214.801,193.600 214.371 C 193.600 213.941,193.762 213.277,193.961 212.895 C 194.160 212.513,194.540 211.390,194.807 210.400 C 195.074 209.410,195.431 208.150,195.600 207.600 C 195.769 207.050,196.106 205.880,196.348 205.000 C 199.560 193.348,202.095 185.531,204.746 179.100 C 204.996 178.495,205.357 177.595,205.549 177.100 C 206.972 173.434,210.900 165.207,214.000 159.400 C 215.591 156.420,222.976 144.846,223.572 144.400 C 223.718 144.290,224.271 143.570,224.800 142.800 C 225.329 142.030,225.866 141.310,225.994 141.200 C 226.122 141.090,226.904 140.162,227.731 139.137 C 230.371 135.869,233.916 135.131,236.787 137.254 L 237.960 138.121 241.215 135.058 C 243.006 133.374,245.998 130.886,247.864 129.530 C 250.704 127.467,251.216 126.929,251.002 126.232 C 249.070 119.949,251.211 117.466,262.200 113.244 C 263.520 112.737,264.960 112.171,265.400 111.987 C 265.840 111.803,266.920 111.436,267.800 111.171 C 268.680 110.906,269.760 110.548,270.200 110.375 C 271.029 110.049,272.531 109.699,274.600 109.349 C 275.260 109.237,276.160 108.988,276.600 108.795 C 277.040 108.603,278.210 108.347,279.200 108.228 C 280.190 108.108,282.620 107.795,284.600 107.531 C 289.108 106.932,300.574 106.927,305.600 107.522 C 312.246 108.309,314.187 108.610,314.700 108.933 C 315.079 109.171,315.200 108.674,315.200 106.878 L 315.200 104.509 313.500 103.882 C 299.370 98.674,279.555 96.006,267.200 97.647 M139.580 372.500 C 139.279 373.435,138.413 374.830,137.657 375.600 L 136.281 377.000 124.141 377.131 L 112.000 377.262 112.013 381.531 C 112.026 385.967,112.243 386.666,113.874 387.535 C 114.530 387.884,135.907 388.000,199.812 388.000 L 284.877 388.000 286.038 387.173 L 287.200 386.346 287.200 381.773 L 287.200 377.200 226.900 377.196 C 193.735 377.193,165.918 377.079,165.085 376.941 C 163.149 376.621,160.800 374.373,160.800 372.840 C 160.800 370.846,160.554 370.800,149.984 370.800 L 140.128 370.800 139.580 372.500 " stroke="none" fill="#f6f0dd" fill-rule="evenodd"></path><path id="path3" d="M273.324 73.900 C 280.085 80.742,281.539 82.350,282.330 83.854 C 282.700 84.557,283.259 84.748,285.490 84.933 C 291.922 85.466,298.601 86.547,304.200 87.960 C 305.080 88.182,306.340 88.476,307.000 88.612 C 307.660 88.749,308.560 89.002,309.000 89.175 C 310.181 89.639,312.617 90.400,312.922 90.400 C 313.205 90.400,312.233 88.561,310.726 86.245 C 310.217 85.463,305.834 80.858,300.988 76.011 L 292.175 67.200 279.439 67.200 L 266.703 67.200 273.324 73.900 M287.508 138.763 C 287.436 151.658,287.532 157.843,287.800 157.493 C 290.369 154.138,295.944 154.500,298.233 158.170 C 299.038 159.461,299.634 178.838,299.000 183.117 C 298.714 185.048,296.768 187.600,295.582 187.600 C 295.178 187.600,294.736 187.780,294.600 188.000 C 293.974 189.012,289.898 187.996,288.205 186.405 L 287.400 185.648 287.400 198.206 L 287.400 210.763 288.619 209.582 C 289.290 208.932,290.134 208.400,290.495 208.400 C 290.857 208.400,291.264 208.220,291.400 208.000 C 291.536 207.780,292.166 207.600,292.800 207.600 C 293.434 207.600,294.064 207.780,294.200 208.000 C 294.336 208.220,294.770 208.400,295.164 208.400 C 296.269 208.400,298.303 210.588,298.774 212.280 C 299.235 213.943,299.403 318.885,298.948 321.162 C 298.581 322.997,296.371 325.038,294.413 325.351 C 292.578 325.645,289.600 325.272,289.600 324.749 C 289.600 324.557,289.404 324.400,289.164 324.400 C 288.924 324.400,288.429 324.031,288.064 323.580 C 287.435 322.803,287.408 322.943,287.542 326.211 C 288.117 340.158,285.218 347.163,274.258 358.300 L 268.255 364.400 280.930 364.400 L 293.605 364.400 301.610 356.279 C 306.012 351.812,309.916 347.717,310.284 347.179 C 310.652 346.640,311.055 346.110,311.180 346.000 C 311.943 345.325,313.735 341.198,314.409 338.566 C 315.400 334.691,315.687 122.348,314.702 121.739 C 314.205 121.432,312.709 121.155,307.400 120.384 C 305.860 120.160,300.778 119.872,296.108 119.744 L 287.615 119.511 287.508 138.763 " stroke="none" fill="#d82b3b" fill-rule="evenodd"></path><path id="path4" d="M265.813 37.899 C 265.889 38.285,266.057 39.097,266.185 39.705 C 266.313 40.313,266.980 41.348,267.668 42.005 C 269.516 43.770,269.764 43.458,267.953 41.647 C 266.826 40.520,266.400 39.759,266.400 38.871 C 266.400 38.198,266.237 37.546,266.037 37.423 C 265.838 37.300,265.737 37.514,265.813 37.899 M244.278 42.213 C 243.660 42.756,243.314 43.200,243.508 43.200 C 243.702 43.200,244.283 42.750,244.800 42.200 C 245.995 40.928,245.731 40.934,244.278 42.213 M177.600 43.600 L 113.400 43.804 177.676 43.902 C 220.202 43.967,242.036 43.865,242.200 43.600 C 242.336 43.380,242.302 43.244,242.124 43.298 C 241.946 43.352,212.910 43.488,177.600 43.600 M270.537 43.694 C 270.792 43.856,274.420 43.959,278.600 43.924 C 287.132 43.852,286.243 43.674,276.537 43.509 C 272.982 43.449,270.282 43.532,270.537 43.694 M287.285 49.700 L 287.200 54.400 199.614 54.400 L 112.028 54.400 111.891 50.300 L 111.754 46.200 111.777 50.400 L 111.800 54.600 199.512 54.701 C 271.747 54.784,287.260 54.709,287.426 54.275 C 287.538 53.986,287.570 51.780,287.499 49.374 L 287.370 45.000 287.285 49.700 M274.117 97.097 C 275.611 97.174,277.951 97.174,279.317 97.096 C 280.682 97.018,279.460 96.955,276.600 96.955 C 273.740 96.956,272.622 97.020,274.117 97.097 M267.700 97.476 C 268.085 97.576,268.715 97.576,269.100 97.476 C 269.485 97.375,269.170 97.293,268.400 97.293 C 267.630 97.293,267.315 97.375,267.700 97.476 M283.905 97.483 C 284.402 97.579,285.122 97.575,285.505 97.475 C 285.887 97.375,285.480 97.296,284.600 97.301 C 283.720 97.305,283.407 97.387,283.905 97.483 M263.700 97.887 C 264.305 97.978,265.295 97.978,265.900 97.887 C 266.505 97.795,266.010 97.720,264.800 97.720 C 263.590 97.720,263.095 97.795,263.700 97.887 M287.300 97.887 C 287.905 97.978,288.895 97.978,289.500 97.887 C 290.105 97.795,289.610 97.720,288.400 97.720 C 287.190 97.720,286.695 97.795,287.300 97.887 M291.600 98.387 C 292.591 98.717,295.487 98.935,295.167 98.654 C 295.075 98.574,294.010 98.406,292.800 98.281 C 291.380 98.134,290.954 98.171,291.600 98.387 M258.500 98.676 C 258.885 98.776,259.515 98.776,259.900 98.676 C 260.285 98.575,259.970 98.493,259.200 98.493 C 258.430 98.493,258.115 98.575,258.500 98.676 M250.400 100.406 C 249.978 100.682,250.215 100.723,251.200 100.542 C 252.925 100.225,253.251 99.998,251.967 100.006 C 251.435 100.009,250.730 100.189,250.400 100.406 M300.833 100.143 C 300.925 100.221,301.630 100.401,302.400 100.542 C 303.385 100.723,303.622 100.682,303.200 100.406 C 302.658 100.050,300.437 99.803,300.833 100.143 M304.033 100.944 C 304.125 101.023,304.740 101.208,305.400 101.356 C 306.276 101.552,306.438 101.515,306.000 101.218 C 305.460 100.853,303.632 100.598,304.033 100.944 M314.677 104.279 C 314.940 104.466,315.226 105.695,315.313 107.010 L 315.470 109.400 315.435 106.832 C 315.409 104.909,315.249 104.223,314.800 104.101 C 314.380 103.988,314.343 104.041,314.677 104.279 M287.676 107.140 C 287.168 107.283,290.464 107.400,295.000 107.400 C 299.536 107.400,302.832 107.283,302.324 107.140 C 301.816 106.997,298.520 106.880,295.000 106.880 C 291.480 106.880,288.184 106.997,287.676 107.140 M281.000 108.010 C 280.466 108.247,280.798 108.286,282.000 108.127 C 282.990 107.996,283.875 107.824,283.967 107.744 C 284.314 107.443,281.764 107.672,281.000 108.010 M306.433 107.744 C 306.525 107.824,307.410 108.006,308.400 108.150 C 309.658 108.333,310.019 108.291,309.600 108.012 C 309.060 107.653,306.032 107.397,306.433 107.744 M276.600 108.800 C 276.308 109.273,276.699 109.273,277.800 108.800 C 278.571 108.469,278.569 108.455,277.724 108.428 C 277.242 108.413,276.736 108.580,276.600 108.800 M312.433 108.544 C 312.525 108.623,313.140 108.808,313.800 108.956 C 314.676 109.152,314.838 109.115,314.400 108.818 C 313.860 108.453,312.032 108.198,312.433 108.544 M223.400 113.232 C 221.027 115.026,220.708 115.532,222.933 113.972 C 224.614 112.794,225.529 111.975,225.124 112.011 C 225.056 112.017,224.280 112.567,223.400 113.232 M255.100 116.427 C 254.275 116.863,253.600 117.308,253.600 117.418 C 253.600 117.527,254.320 117.249,255.200 116.800 C 256.080 116.351,256.800 115.897,256.800 115.792 C 256.800 115.530,256.797 115.531,255.100 116.427 M214.581 120.500 L 213.000 122.200 214.700 120.619 C 216.281 119.148,216.584 118.800,216.281 118.800 C 216.216 118.800,215.451 119.565,214.581 120.500 M250.419 124.081 C 250.409 124.456,250.606 125.215,250.859 125.769 C 251.217 126.556,251.200 126.932,250.781 127.488 C 250.280 128.152,250.292 128.156,250.955 127.553 C 251.615 126.952,251.622 126.780,251.052 125.153 C 250.714 124.189,250.430 123.707,250.419 124.081 M206.575 128.900 L 205.400 130.200 206.700 129.025 C 207.415 128.379,208.000 127.794,208.000 127.725 C 208.000 127.416,207.670 127.688,206.575 128.900 M204.744 131.100 C 203.593 132.489,203.106 133.200,203.304 133.200 C 203.414 133.200,203.986 132.570,204.573 131.800 C 205.663 130.371,205.795 129.832,204.744 131.100 M201.297 135.607 C 199.612 138.185,199.908 138.180,201.762 135.600 C 202.552 134.500,203.064 133.603,202.899 133.607 C 202.735 133.611,202.014 134.511,201.297 135.607 M232.305 136.283 C 232.802 136.379,233.522 136.375,233.905 136.275 C 234.287 136.175,233.880 136.096,233.000 136.101 C 232.120 136.105,231.807 136.187,232.305 136.283 M235.451 136.906 C 238.055 138.417,238.194 138.466,237.000 137.450 C 236.340 136.888,235.530 136.425,235.200 136.420 C 234.808 136.415,234.895 136.583,235.451 136.906 M199.046 139.000 C 198.691 139.550,198.109 140.495,197.753 141.100 L 197.105 142.200 197.910 141.226 C 198.860 140.076,200.121 138.000,199.869 138.000 C 199.771 138.000,199.401 138.450,199.046 139.000 M194.586 146.500 L 193.952 147.800 194.767 146.800 C 195.552 145.837,195.808 145.200,195.410 145.200 C 195.306 145.200,194.935 145.785,194.586 146.500 M217.753 152.900 C 216.376 155.236,216.286 155.435,216.987 154.600 C 217.800 153.632,218.500 152.400,218.238 152.400 C 218.133 152.400,217.915 152.625,217.753 152.900 M215.400 156.800 C 215.059 157.460,214.869 158.000,214.979 158.000 C 215.089 158.000,215.459 157.460,215.800 156.800 C 216.141 156.140,216.331 155.600,216.221 155.600 C 216.111 155.600,215.741 156.140,215.400 156.800 M182.501 175.292 C 182.053 176.451,181.293 178.390,180.814 179.600 C 180.335 180.810,180.109 181.620,180.312 181.400 C 180.805 180.866,183.680 173.547,183.477 173.344 C 183.389 173.256,182.950 174.132,182.501 175.292 M202.491 184.900 C 201.810 186.784,201.904 187.294,202.626 185.630 C 202.953 184.877,203.166 184.099,203.101 183.902 C 203.035 183.705,202.760 184.154,202.491 184.900 M166.655 206.000 C 165.631 207.540,164.878 208.800,164.982 208.800 C 165.085 208.800,165.866 207.765,166.715 206.500 C 168.598 203.699,168.895 203.200,168.682 203.200 C 168.592 203.200,167.680 204.460,166.655 206.000 M162.175 212.268 C 161.559 213.076,161.259 213.611,161.509 213.456 C 162.021 213.140,163.753 210.800,163.475 210.800 C 163.376 210.800,162.791 211.461,162.175 212.268 M158.175 217.300 L 157.000 218.600 158.300 217.425 C 159.512 216.330,159.784 216.000,159.475 216.000 C 159.406 216.000,158.821 216.585,158.175 217.300 M151.793 224.100 L 147.400 228.600 151.900 224.207 C 156.080 220.126,156.582 219.600,156.293 219.600 C 156.234 219.600,154.209 221.625,151.793 224.100 M145.771 229.703 L 144.600 230.997 145.800 229.999 C 146.460 229.449,147.075 228.955,147.167 228.900 C 147.258 228.845,147.245 228.712,147.138 228.604 C 147.030 228.496,146.415 228.991,145.771 229.703 M186.309 231.709 C 185.495 233.278,184.888 234.621,184.959 234.692 C 185.031 234.764,185.761 233.544,186.582 231.982 C 187.403 230.419,188.010 229.077,187.932 228.998 C 187.853 228.920,187.123 230.140,186.309 231.709 M142.600 232.244 L 141.000 233.676 142.700 232.404 C 144.163 231.310,144.691 230.783,144.300 230.806 C 144.245 230.809,143.480 231.456,142.600 232.244 M138.687 234.968 C 136.326 236.602,135.764 237.175,137.506 236.172 C 138.850 235.399,141.156 233.623,140.800 233.636 C 140.690 233.641,139.739 234.240,138.687 234.968 M182.553 238.500 C 181.176 240.836,181.086 241.035,181.787 240.200 C 182.600 239.232,183.300 238.000,183.038 238.000 C 182.933 238.000,182.715 238.225,182.553 238.500 M178.175 245.068 C 177.559 245.876,177.259 246.411,177.509 246.256 C 178.021 245.940,179.753 243.600,179.475 243.600 C 179.376 243.600,178.791 244.261,178.175 245.068 M111.600 248.018 C 111.162 248.315,111.324 248.352,112.200 248.156 C 113.671 247.827,113.990 247.598,112.967 247.606 C 112.545 247.609,111.930 247.795,111.600 248.018 M108.600 248.800 C 107.581 249.238,108.632 249.238,110.000 248.800 C 110.804 248.543,110.843 248.477,110.200 248.468 C 109.760 248.462,109.040 248.611,108.600 248.800 M101.200 250.400 C 99.856 250.831,101.308 250.831,103.000 250.400 C 104.078 250.126,104.098 250.094,103.200 250.087 C 102.650 250.083,101.750 250.224,101.200 250.400 M97.300 251.076 C 97.685 251.176,98.315 251.176,98.700 251.076 C 99.085 250.975,98.770 250.893,98.000 250.893 C 97.230 250.893,96.915 250.975,97.300 251.076 M94.500 251.476 C 94.885 251.576,95.515 251.576,95.900 251.476 C 96.285 251.375,95.970 251.293,95.200 251.293 C 94.430 251.293,94.115 251.375,94.500 251.476 M84.496 271.100 L 84.592 290.600 84.700 271.317 L 84.808 252.034 87.904 251.897 L 91.000 251.761 87.700 251.680 L 84.400 251.600 84.496 271.100 M168.008 257.000 L 163.417 261.800 168.191 257.116 C 170.816 254.539,172.883 252.379,172.782 252.316 C 172.682 252.252,170.534 254.360,168.008 257.000 M161.570 263.100 L 160.600 264.200 161.800 263.200 C 162.460 262.650,163.075 262.155,163.167 262.100 C 163.258 262.045,163.155 262.000,162.936 262.000 C 162.718 262.000,162.103 262.495,161.570 263.100 M156.600 266.832 C 154.227 268.626,153.908 269.132,156.133 267.572 C 157.814 266.394,158.729 265.575,158.324 265.611 C 158.256 265.617,157.480 266.167,156.600 266.832 M150.993 270.656 C 148.952 272.009,148.232 272.723,149.826 271.814 C 151.230 271.014,153.101 269.622,152.793 269.609 C 152.679 269.604,151.869 270.075,150.993 270.656 M118.000 285.218 C 117.562 285.515,117.724 285.552,118.600 285.356 C 120.071 285.027,120.390 284.798,119.367 284.806 C 118.945 284.809,118.330 284.995,118.000 285.218 M115.200 286.018 C 114.762 286.315,114.924 286.352,115.800 286.156 C 117.271 285.827,117.590 285.598,116.567 285.606 C 116.145 285.609,115.530 285.795,115.200 286.018 M111.600 286.806 C 111.178 287.082,111.415 287.123,112.400 286.942 C 114.125 286.625,114.451 286.398,113.167 286.406 C 112.635 286.409,111.930 286.589,111.600 286.806 M108.000 287.606 C 107.578 287.882,107.815 287.923,108.800 287.742 C 110.525 287.425,110.851 287.198,109.567 287.206 C 109.035 287.209,108.330 287.389,108.000 287.606 M103.800 288.419 C 103.242 288.671,103.485 288.707,104.600 288.538 C 105.480 288.404,106.275 288.228,106.367 288.147 C 106.710 287.844,104.568 288.071,103.800 288.419 M98.600 289.203 C 98.085 289.426,98.513 289.467,99.800 289.318 C 100.900 289.191,101.875 289.023,101.967 288.944 C 102.314 288.645,99.364 288.872,98.600 289.203 M90.400 290.022 C 89.535 290.217,90.223 290.255,92.200 290.120 C 93.960 290.001,95.475 289.835,95.567 289.751 C 95.861 289.484,91.849 289.694,90.400 290.022 M139.400 371.600 C 139.250 372.073,139.217 372.550,139.327 372.660 C 139.437 372.770,139.650 372.473,139.800 372.000 C 139.950 371.527,139.983 371.050,139.873 370.940 C 139.763 370.830,139.550 371.127,139.400 371.600 M117.500 377.099 C 120.635 377.167,125.765 377.167,128.900 377.099 C 132.035 377.032,129.470 376.976,123.200 376.976 C 116.930 376.976,114.365 377.032,117.500 377.099 M226.300 377.099 L 287.200 377.203 287.200 381.768 C 287.200 386.283,287.188 386.342,286.100 387.154 C 285.495 387.605,285.194 387.980,285.430 387.987 C 287.040 388.035,287.630 386.215,287.514 381.560 L 287.400 377.000 226.400 376.998 L 165.400 376.996 226.300 377.099 M111.744 381.200 C 111.744 383.290,111.812 384.145,111.894 383.100 C 111.976 382.055,111.976 380.345,111.894 379.300 C 111.812 378.255,111.744 379.110,111.744 381.200 M112.222 386.511 C 112.523 387.299,113.936 388.197,114.301 387.832 C 114.429 387.705,114.330 387.600,114.082 387.600 C 113.834 387.600,113.253 387.195,112.791 386.700 C 112.151 386.015,112.016 385.970,112.222 386.511 " stroke="none" fill="#acacb4" fill-rule="evenodd"></path><path id="path5" d="M266.433 39.286 C 266.287 42.353,269.874 43.595,278.884 43.598 C 285.656 43.600,286.005 43.639,286.784 44.475 C 287.233 44.957,287.600 45.141,287.600 44.885 C 287.600 43.408,285.615 43.004,277.359 42.800 C 268.456 42.580,268.180 42.500,266.994 39.803 C 266.667 39.060,266.453 38.862,266.433 39.286 M245.413 40.359 C 244.580 42.984,249.992 42.779,178.474 42.895 L 114.059 43.000 112.929 43.840 C 112.308 44.302,111.752 45.112,111.694 45.640 C 111.607 46.426,111.694 46.364,112.175 45.300 C 112.497 44.585,112.815 43.957,112.881 43.905 C 112.946 43.852,142.168 43.717,177.818 43.605 C 238.870 43.412,242.698 43.359,243.712 42.694 C 244.889 41.924,246.238 40.104,245.891 39.757 C 245.771 39.638,245.556 39.909,245.413 40.359 M287.593 50.000 L 287.400 54.600 199.538 54.600 C 151.214 54.600,111.760 54.735,111.862 54.900 C 112.115 55.309,286.869 55.271,287.514 54.862 C 287.895 54.620,287.996 53.360,287.906 49.968 L 287.785 45.400 287.593 50.000 M265.000 97.219 C 264.295 97.409,265.369 97.452,267.600 97.321 C 269.690 97.199,271.475 97.031,271.567 96.949 C 271.886 96.663,266.191 96.897,265.000 97.219 M281.633 96.947 C 281.725 97.028,283.420 97.196,285.400 97.322 C 287.542 97.457,288.595 97.414,288.000 97.215 C 287.033 96.891,281.296 96.649,281.633 96.947 M259.400 98.000 C 258.336 98.457,260.003 98.457,261.800 98.000 L 263.000 97.695 261.600 97.675 C 260.830 97.665,259.840 97.811,259.400 98.000 M291.400 98.000 C 292.060 98.168,293.050 98.309,293.600 98.313 L 294.600 98.320 293.600 98.000 C 293.050 97.824,292.060 97.683,291.400 97.687 L 290.200 97.695 291.400 98.000 M255.400 98.800 L 254.600 99.144 255.400 99.132 C 255.840 99.126,256.650 98.976,257.200 98.800 L 258.200 98.480 257.200 98.468 C 256.650 98.462,255.840 98.611,255.400 98.800 M296.000 98.800 C 296.550 98.976,297.450 99.120,298.000 99.120 L 299.000 99.120 298.000 98.800 C 297.450 98.624,296.550 98.480,296.000 98.480 L 295.000 98.480 296.000 98.800 M252.200 99.600 L 251.400 99.944 252.200 99.944 C 252.640 99.944,253.360 99.789,253.800 99.600 L 254.600 99.256 253.800 99.256 C 253.360 99.256,252.640 99.411,252.200 99.600 M299.800 99.600 C 300.984 100.109,302.387 100.109,301.600 99.600 C 301.270 99.387,300.550 99.222,300.000 99.234 C 299.084 99.254,299.067 99.285,299.800 99.600 M249.200 100.400 C 248.667 100.745,248.667 100.788,249.200 100.788 C 249.530 100.788,250.070 100.613,250.400 100.400 C 250.933 100.055,250.933 100.012,250.400 100.012 C 250.070 100.012,249.530 100.187,249.200 100.400 M303.200 100.400 C 303.530 100.613,304.160 100.778,304.600 100.766 L 305.400 100.744 304.600 100.400 C 303.404 99.886,302.405 99.886,303.200 100.400 M243.262 102.401 C 224.863 109.406,205.216 125.730,198.007 140.000 C 197.205 141.589,198.120 140.457,200.388 137.054 C 202.761 133.497,202.502 133.836,206.524 129.000 C 217.070 116.318,231.455 106.471,246.300 101.773 C 247.455 101.407,248.400 101.039,248.400 100.954 C 248.400 100.572,247.110 100.935,243.262 102.401 M306.000 101.200 C 306.330 101.413,306.960 101.578,307.400 101.566 L 308.200 101.544 307.400 101.200 C 306.204 100.686,305.205 100.686,306.000 101.200 M308.400 101.754 C 308.400 102.006,312.473 103.260,312.666 103.068 C 312.763 102.970,311.992 102.600,310.950 102.245 C 309.042 101.595,308.400 101.471,308.400 101.754 M313.400 103.516 C 313.620 103.740,314.160 103.987,314.600 104.065 C 315.286 104.188,315.417 104.573,315.520 106.758 L 315.641 109.308 314.320 109.023 C 307.227 107.493,294.381 106.834,286.800 107.613 C 284.766 107.821,285.861 107.863,290.200 107.742 C 296.532 107.566,305.181 108.032,310.600 108.843 C 316.066 109.660,315.783 109.760,315.917 106.963 C 316.042 104.373,315.806 103.935,314.000 103.404 C 313.325 103.206,313.130 103.242,313.400 103.516 M280.800 108.256 C 278.490 108.595,275.336 109.321,269.800 110.787 C 261.581 112.964,250.800 118.597,250.800 120.714 C 250.800 121.046,251.205 120.707,251.700 119.959 C 253.364 117.447,266.208 111.805,274.400 109.988 C 275.610 109.720,277.122 109.343,277.760 109.150 C 278.398 108.958,279.568 108.782,280.360 108.760 C 281.152 108.738,282.250 108.576,282.800 108.400 L 283.800 108.080 282.800 108.094 C 282.250 108.102,281.350 108.175,280.800 108.256 M250.800 124.553 C 250.800 124.982,251.990 127.200,252.221 127.200 C 252.331 127.200,252.123 126.615,251.759 125.900 C 251.017 124.440,250.800 124.136,250.800 124.553 M232.105 136.687 C 232.714 136.779,233.614 136.777,234.105 136.682 C 234.597 136.587,234.100 136.511,233.000 136.514 C 231.900 136.517,231.497 136.595,232.105 136.687 M228.764 138.390 C 226.326 140.953,219.894 149.736,218.212 152.800 C 217.441 154.204,218.818 152.409,220.820 149.400 C 223.781 144.949,226.551 141.368,228.940 138.900 C 230.058 137.745,230.816 136.800,230.624 136.800 C 230.433 136.800,229.596 137.515,228.764 138.390 M236.000 137.600 C 236.550 138.030,237.159 138.386,237.354 138.391 C 237.549 138.396,237.250 138.040,236.691 137.600 C 236.131 137.160,235.522 136.804,235.337 136.809 C 235.152 136.814,235.450 137.170,236.000 137.600 M195.819 143.621 C 194.426 145.999,193.880 147.340,194.938 145.789 C 196.028 144.190,197.669 141.200,197.457 141.200 C 197.337 141.200,196.600 142.290,195.819 143.621 M193.523 147.700 C 193.211 148.195,192.487 149.590,191.915 150.800 C 190.927 152.891,190.414 154.038,188.444 158.562 C 187.975 159.641,187.672 160.605,187.772 160.705 C 187.922 160.855,189.200 158.220,189.200 157.761 C 189.200 157.522,191.524 152.530,193.005 149.590 C 194.388 146.843,194.637 145.937,193.523 147.700 M216.202 156.050 C 215.413 157.397,214.850 158.583,214.951 158.684 C 215.052 158.786,215.354 158.448,215.623 157.934 C 215.891 157.420,216.552 156.235,217.093 155.300 C 217.634 154.365,217.978 153.600,217.857 153.600 C 217.737 153.600,216.992 154.702,216.202 156.050 M213.922 160.100 C 212.233 162.765,206.275 175.608,206.584 175.917 C 206.690 176.024,206.958 175.635,207.179 175.054 C 208.020 172.843,209.342 170.018,212.026 164.700 C 214.612 159.576,215.279 157.958,213.922 160.100 M185.843 165.243 C 185.039 167.482,184.449 169.382,184.533 169.466 C 184.616 169.549,184.995 168.759,185.375 167.709 C 185.755 166.659,186.435 164.849,186.885 163.686 C 187.336 162.523,187.615 161.481,187.505 161.372 C 187.395 161.262,186.647 163.004,185.843 165.243 M183.800 170.800 C 183.650 171.273,183.617 171.750,183.727 171.860 C 183.837 171.970,184.050 171.673,184.200 171.200 C 184.350 170.727,184.383 170.250,184.273 170.140 C 184.163 170.030,183.950 170.327,183.800 170.800 M179.588 181.433 C 179.348 182.062,178.522 183.905,177.751 185.530 C 176.980 187.154,176.424 188.557,176.514 188.648 C 176.605 188.738,177.526 186.989,178.560 184.760 C 179.594 182.531,180.347 180.613,180.232 180.498 C 180.117 180.383,179.827 180.804,179.588 181.433 M203.400 183.200 C 203.250 183.673,203.217 184.150,203.327 184.260 C 203.437 184.370,203.650 184.073,203.800 183.600 C 203.950 183.127,203.983 182.650,203.873 182.540 C 203.763 182.430,203.550 182.727,203.400 183.200 M201.800 187.600 C 201.650 188.073,201.617 188.550,201.727 188.660 C 201.837 188.770,202.050 188.473,202.200 188.000 C 202.350 187.527,202.383 187.050,202.273 186.940 C 202.163 186.830,201.950 187.127,201.800 187.600 M175.154 190.900 C 173.499 194.166,171.449 197.823,169.604 200.800 C 167.288 204.538,166.906 205.276,167.946 204.000 C 169.646 201.914,176.770 189.200,176.239 189.200 C 176.116 189.200,175.628 189.965,175.154 190.900 M201.000 190.000 C 200.850 190.473,200.817 190.950,200.927 191.060 C 201.037 191.170,201.250 190.873,201.400 190.400 C 201.550 189.927,201.583 189.450,201.473 189.340 C 201.363 189.230,201.150 189.527,201.000 190.000 M200.200 192.400 C 200.050 192.873,200.017 193.350,200.127 193.460 C 200.237 193.570,200.450 193.273,200.600 192.800 C 200.750 192.327,200.783 191.850,200.673 191.740 C 200.563 191.630,200.350 191.927,200.200 192.400 M199.473 194.553 C 199.323 194.945,199.211 195.566,199.225 195.933 C 199.242 196.375,199.381 196.274,199.637 195.634 C 199.849 195.103,199.961 194.482,199.885 194.254 C 199.809 194.027,199.624 194.161,199.473 194.553 M198.673 197.353 C 198.523 197.745,198.411 198.366,198.425 198.733 C 198.442 199.175,198.581 199.074,198.837 198.434 C 199.049 197.903,199.161 197.282,199.085 197.054 C 199.009 196.827,198.824 196.961,198.673 197.353 M197.873 200.153 C 197.723 200.545,197.611 201.166,197.625 201.533 C 197.642 201.975,197.781 201.874,198.037 201.234 C 198.249 200.703,198.361 200.082,198.285 199.854 C 198.209 199.627,198.024 199.761,197.873 200.153 M196.986 203.453 C 196.847 204.084,196.637 204.870,196.520 205.200 C 196.404 205.530,196.159 206.340,195.976 207.000 C 195.794 207.660,195.465 208.830,195.245 209.600 C 195.025 210.370,194.671 211.630,194.457 212.400 C 194.244 213.170,193.337 215.858,192.441 218.374 C 191.545 220.890,190.967 222.780,191.157 222.574 C 191.674 222.012,193.841 215.875,195.525 210.200 C 197.260 204.355,197.667 202.734,197.456 202.523 C 197.337 202.403,197.125 202.822,196.986 203.453 M165.365 207.300 C 162.981 210.632,160.683 213.688,159.600 214.968 C 154.235 221.308,148.279 227.295,144.526 230.120 C 143.590 230.824,142.819 231.550,142.812 231.734 C 142.726 234.053,160.285 215.487,165.542 207.700 C 167.590 204.667,167.460 204.373,165.365 207.300 M189.215 226.298 C 188.159 228.558,187.595 230.000,187.765 230.000 C 188.061 230.000,190.120 225.587,189.918 225.385 C 189.815 225.281,189.498 225.692,189.215 226.298 M186.678 231.805 C 186.312 232.572,186.095 233.200,186.196 233.200 C 186.470 233.200,187.684 230.751,187.501 230.568 C 187.414 230.481,187.044 231.038,186.678 231.805 M138.800 234.451 C 135.152 237.041,131.447 239.295,127.600 241.264 C 125.274 242.454,124.468 243.047,125.900 242.514 C 126.564 242.267,127.643 241.699,131.809 239.403 C 135.549 237.341,143.351 231.862,142.324 232.019 C 142.256 232.029,140.670 233.124,138.800 234.451 M184.181 236.279 C 173.169 256.110,153.887 272.317,130.498 281.401 C 128.901 282.021,127.671 282.605,127.764 282.698 C 128.232 283.165,141.704 277.091,146.200 274.385 C 147.300 273.723,148.470 273.064,148.800 272.920 C 154.528 270.425,168.502 258.304,175.061 250.141 C 179.852 244.177,186.393 234.260,185.876 233.743 C 185.775 233.642,185.012 234.783,184.181 236.279 M122.853 243.453 C 122.113 243.776,121.601 244.134,121.716 244.249 C 121.831 244.364,122.616 244.093,123.462 243.647 C 125.235 242.711,124.841 242.586,122.853 243.453 M116.600 246.029 C 115.720 246.452,115.450 246.686,116.000 246.550 C 117.505 246.175,119.484 245.266,118.800 245.262 C 118.470 245.261,117.480 245.606,116.600 246.029 M113.000 247.200 L 112.200 247.544 113.000 247.566 C 113.440 247.578,114.070 247.413,114.400 247.200 C 115.195 246.686,114.196 246.686,113.000 247.200 M110.400 248.000 C 109.867 248.345,109.867 248.388,110.400 248.388 C 110.730 248.388,111.270 248.213,111.600 248.000 C 112.133 247.655,112.133 247.612,111.600 247.612 C 111.270 247.612,110.730 247.787,110.400 248.000 M107.200 248.800 C 106.405 249.314,107.404 249.314,108.600 248.800 L 109.400 248.456 108.600 248.434 C 108.160 248.422,107.530 248.587,107.200 248.800 M103.600 249.600 L 102.600 249.920 103.600 249.932 C 104.150 249.938,104.960 249.789,105.400 249.600 L 106.200 249.256 105.400 249.268 C 104.960 249.274,104.150 249.424,103.600 249.600 M98.600 250.400 L 97.400 250.705 98.800 250.713 C 99.570 250.717,100.650 250.576,101.200 250.400 C 102.599 249.952,100.361 249.952,98.600 250.400 M88.800 251.200 L 84.600 251.443 89.000 251.492 C 91.420 251.519,94.210 251.397,95.200 251.220 L 97.000 250.900 95.000 250.928 C 93.900 250.944,91.110 251.066,88.800 251.200 M84.194 271.200 L 84.200 290.600 87.665 290.715 C 89.571 290.778,92.001 290.669,93.065 290.472 C 94.437 290.219,93.460 290.174,89.704 290.318 L 84.408 290.520 84.298 271.160 L 84.188 251.800 84.194 271.200 M125.600 283.200 C 125.067 283.545,125.067 283.588,125.600 283.588 C 125.930 283.588,126.470 283.413,126.800 283.200 C 127.333 282.855,127.333 282.812,126.800 282.812 C 126.470 282.812,125.930 282.987,125.600 283.200 M123.200 284.000 C 122.667 284.345,122.667 284.388,123.200 284.388 C 123.530 284.388,124.070 284.213,124.400 284.000 C 124.933 283.655,124.933 283.612,124.400 283.612 C 124.070 283.612,123.530 283.787,123.200 284.000 M120.600 284.800 L 119.800 285.144 120.600 285.166 C 121.040 285.178,121.670 285.013,122.000 284.800 C 122.795 284.286,121.796 284.286,120.600 284.800 M117.800 285.600 L 117.000 285.944 117.800 285.966 C 118.240 285.978,118.870 285.813,119.200 285.600 C 119.995 285.086,118.996 285.086,117.800 285.600 M114.800 286.400 L 113.800 286.720 114.800 286.754 C 115.350 286.773,116.070 286.613,116.400 286.400 C 117.164 285.906,116.342 285.906,114.800 286.400 M111.200 287.200 C 110.220 287.514,110.224 287.521,111.400 287.554 C 112.060 287.573,112.870 287.413,113.200 287.200 C 113.958 286.710,112.730 286.710,111.200 287.200 M107.400 288.000 L 106.200 288.305 107.600 288.347 C 108.370 288.369,109.270 288.213,109.600 288.000 C 110.339 287.523,109.276 287.523,107.400 288.000 M103.200 288.800 L 101.800 289.095 103.200 289.119 C 103.970 289.133,104.960 288.989,105.400 288.800 L 106.200 288.456 105.400 288.481 C 104.960 288.494,103.970 288.638,103.200 288.800 M97.400 289.600 L 95.400 289.874 97.600 289.897 C 98.810 289.910,100.250 289.776,100.800 289.600 C 102.108 289.181,100.454 289.181,97.400 289.600 M139.214 371.174 C 138.986 371.599,138.800 372.236,138.800 372.588 C 138.800 373.475,137.656 375.136,136.643 375.716 C 136.059 376.052,132.127 376.261,123.833 376.400 C 114.582 376.555,111.843 376.716,111.763 377.110 C 111.706 377.390,111.751 377.436,111.863 377.210 C 111.995 376.944,116.178 376.800,123.774 376.800 C 137.822 376.800,137.873 376.784,139.511 371.700 C 139.980 370.246,139.842 370.001,139.214 371.174 M160.818 371.839 C 160.791 373.107,161.887 375.031,163.109 375.860 C 164.156 376.570,166.712 376.608,225.800 376.800 L 287.400 377.000 287.627 381.600 L 287.854 386.200 287.827 381.400 L 287.800 376.600 226.183 376.499 L 164.567 376.397 163.264 375.299 C 162.548 374.694,161.708 373.480,161.399 372.600 C 161.050 371.611,160.828 371.320,160.818 371.839 M111.634 385.651 C 111.615 386.229,111.905 386.949,112.277 387.251 C 112.812 387.685,112.887 387.689,112.634 387.269 C 112.458 386.976,112.169 386.256,111.991 385.669 L 111.669 384.600 111.634 385.651 M286.601 387.199 C 285.875 388.001,285.582 388.003,199.575 387.902 C 152.111 387.846,113.360 387.935,113.462 388.100 C 113.952 388.893,285.756 388.416,286.794 387.618 C 287.341 387.198,287.685 386.751,287.558 386.625 C 287.432 386.499,287.001 386.757,286.601 387.199 " stroke="none" fill="#887673" fill-rule="evenodd"></path><path id="path6" d="M98.765 75.735 C 84.217 90.236,84.701 89.004,84.411 112.219 C 84.219 127.543,84.136 129.135,83.478 130.138 C 82.615 131.453,80.531 132.796,79.349 132.799 C 78.881 132.799,78.274 133.070,78.000 133.400 C 77.371 134.158,77.383 134.157,79.957 133.216 C 82.196 132.397,83.356 131.562,84.137 130.204 C 84.457 129.649,84.672 124.148,84.834 112.400 L 85.068 95.400 86.097 92.743 C 88.322 86.999,88.225 87.122,99.211 75.954 L 107.821 67.200 199.998 67.200 L 292.175 67.200 300.988 76.011 C 305.834 80.858,310.217 85.463,310.726 86.245 C 312.233 88.561,313.205 90.400,312.922 90.400 C 312.617 90.400,310.181 89.639,309.000 89.175 C 308.560 89.002,307.660 88.749,307.000 88.612 C 306.340 88.476,305.080 88.182,304.200 87.960 C 295.049 85.650,289.369 85.035,277.000 85.016 C 264.488 84.997,259.544 85.536,249.600 88.003 C 248.610 88.248,247.303 88.549,246.695 88.671 C 246.087 88.793,245.492 89.051,245.371 89.246 C 245.251 89.441,244.711 89.600,244.171 89.600 C 243.631 89.600,242.832 89.780,242.395 90.000 C 241.958 90.220,241.242 90.580,240.805 90.800 C 240.368 91.020,239.736 91.200,239.400 91.200 C 239.064 91.200,238.477 91.359,238.095 91.553 C 237.713 91.748,236.950 92.085,236.400 92.303 C 230.406 94.680,216.107 102.951,212.986 105.845 C 212.538 106.260,211.368 107.229,210.386 107.997 C 205.058 112.165,196.295 121.620,192.433 127.366 C 191.682 128.485,190.948 129.490,190.803 129.600 C 190.468 129.855,187.200 134.695,187.200 134.937 C 187.200 135.037,186.506 136.262,185.659 137.659 C 183.445 141.309,178.885 150.454,177.612 153.800 C 177.444 154.240,177.103 155.095,176.854 155.700 C 176.604 156.305,176.199 157.295,175.953 157.900 C 175.708 158.505,175.348 159.313,175.153 159.695 C 174.959 160.077,174.800 160.664,174.800 161.000 C 174.800 161.336,174.620 161.968,174.400 162.405 C 174.180 162.842,173.820 163.558,173.600 163.995 C 173.380 164.432,173.200 165.064,173.200 165.400 C 173.200 165.736,173.041 166.323,172.847 166.705 C 172.396 167.592,172.054 168.429,169.956 173.800 C 168.370 177.856,161.825 191.540,161.250 192.000 C 160.863 192.310,159.576 194.519,159.329 195.300 C 159.207 195.685,158.948 196.000,158.753 196.000 C 158.559 196.000,158.400 196.193,158.400 196.428 C 158.400 196.836,156.130 200.381,155.600 200.800 C 155.461 200.910,154.741 201.900,154.000 203.000 C 153.259 204.100,152.546 205.090,152.416 205.200 C 152.286 205.310,151.557 206.210,150.796 207.200 C 146.455 212.848,138.252 220.606,132.600 224.408 C 131.500 225.148,130.540 225.899,130.467 226.077 C 130.393 226.255,130.156 226.400,129.939 226.400 C 129.722 226.400,128.792 226.907,127.872 227.528 C 124.314 229.927,114.157 234.571,110.100 235.653 C 109.385 235.844,108.125 236.192,107.300 236.427 C 101.563 238.058,97.139 238.761,88.300 239.447 L 84.800 239.718 84.800 199.446 C 84.800 165.916,84.707 158.951,84.242 157.840 C 83.621 156.353,81.528 154.608,80.000 154.303 C 79.450 154.193,78.640 153.975,78.200 153.819 C 77.411 153.539,77.411 153.544,78.176 154.167 C 78.604 154.515,79.307 154.800,79.739 154.800 C 80.914 154.800,83.209 156.724,83.842 158.240 C 84.307 159.351,84.400 166.308,84.400 199.787 L 84.400 240.000 87.584 240.000 C 91.637 240.000,99.399 239.009,103.800 237.929 C 108.417 236.797,112.945 235.412,114.095 234.781 C 114.477 234.571,114.993 234.400,115.242 234.400 C 116.175 234.400,125.534 229.653,129.000 227.421 C 138.903 221.046,149.113 211.217,155.198 202.200 C 155.940 201.100,156.668 200.110,156.816 200.000 C 157.109 199.782,159.702 195.604,161.905 191.800 C 165.535 185.532,170.260 175.022,173.639 165.700 C 175.546 160.438,176.204 158.717,177.884 154.600 C 191.272 121.781,216.261 97.939,246.000 89.611 C 246.990 89.334,248.250 88.965,248.800 88.792 C 250.021 88.407,252.660 87.806,255.600 87.245 C 270.416 84.414,284.291 84.492,299.200 87.491 C 304.908 88.639,305.486 88.778,310.686 90.256 C 313.698 91.112,313.953 90.927,312.811 88.717 C 311.276 85.749,309.634 83.880,300.787 75.023 L 292.175 66.400 200.152 66.400 L 108.130 66.400 98.765 75.735 M288.400 119.228 C 278.591 120.049,271.153 122.089,262.092 126.442 C 259.393 127.739,256.886 128.800,256.521 128.800 C 255.553 128.800,253.200 127.893,253.200 127.520 C 253.200 127.344,252.888 127.200,252.507 127.200 C 252.058 127.200,252.331 127.551,253.286 128.200 C 255.530 129.725,257.128 129.534,262.000 127.156 C 264.310 126.028,266.560 124.971,267.000 124.806 C 267.440 124.642,268.295 124.303,268.900 124.054 C 271.198 123.106,271.846 122.879,273.400 122.479 C 274.280 122.252,275.720 121.880,276.600 121.652 C 283.736 119.806,298.299 119.149,306.600 120.299 C 312.491 121.115,314.177 121.415,314.702 121.739 C 315.687 122.348,315.400 334.691,314.409 338.566 C 313.735 341.198,311.943 345.325,311.180 346.000 C 311.055 346.110,310.652 346.640,310.284 347.179 C 309.916 347.717,306.042 351.782,301.675 356.213 L 293.735 364.268 274.402 364.534 C 263.769 364.680,234.749 364.800,209.914 364.800 C 160.443 364.800,163.412 364.655,161.632 367.156 C 161.174 367.798,160.804 368.746,160.809 369.262 C 160.816 370.013,160.964 369.881,161.552 368.600 C 163.187 365.039,155.571 365.414,228.773 365.295 L 293.462 365.191 302.445 356.095 C 311.897 346.525,312.802 345.322,314.863 339.600 L 315.800 337.000 315.913 230.000 C 315.975 171.150,315.934 122.625,315.822 122.166 C 315.529 120.969,310.564 120.000,300.678 119.210 C 295.048 118.759,293.980 118.761,288.400 119.228 M237.622 138.600 C 237.624 138.820,237.890 139.349,238.213 139.776 C 239.430 141.386,238.972 144.153,237.100 146.499 C 230.249 155.086,226.857 160.415,221.886 170.404 C 218.612 176.984,217.250 179.961,216.120 183.000 C 215.793 183.880,215.379 184.960,215.200 185.400 C 214.007 188.331,210.705 198.146,209.616 202.000 C 209.336 202.990,208.969 204.250,208.800 204.800 C 208.631 205.350,208.296 206.520,208.055 207.400 C 204.697 219.672,202.757 225.060,198.478 234.000 C 191.408 248.772,181.339 261.949,169.800 271.528 C 168.040 272.989,166.510 274.278,166.400 274.392 C 165.391 275.439,154.688 282.800,154.175 282.800 C 154.037 282.800,153.446 283.135,152.862 283.543 C 151.027 284.828,145.154 287.868,141.200 289.579 C 139.110 290.484,136.950 291.423,136.400 291.665 C 134.535 292.489,129.973 294.171,128.000 294.763 C 127.230 294.994,125.520 295.522,124.200 295.938 C 117.750 297.967,109.890 299.679,100.800 301.034 C 99.810 301.181,96.570 301.523,93.600 301.794 C 88.802 302.231,88.534 302.292,91.200 302.340 C 97.397 302.451,114.626 299.535,122.559 297.033 C 123.461 296.748,125.010 296.289,126.000 296.012 C 126.990 295.735,128.160 295.367,128.600 295.195 C 129.040 295.022,130.030 294.664,130.800 294.400 C 132.409 293.848,133.350 293.492,134.900 292.854 C 135.505 292.604,136.405 292.243,136.900 292.051 C 153.576 285.578,172.110 272.284,183.256 258.800 C 187.527 253.633,192.400 246.824,192.400 246.022 C 192.400 245.790,192.559 245.600,192.753 245.600 C 192.948 245.600,193.210 245.285,193.336 244.900 C 193.462 244.515,194.115 243.300,194.787 242.200 C 195.460 241.100,196.970 238.310,198.143 236.000 C 199.944 232.453,201.005 230.006,203.604 223.400 C 203.778 222.960,204.136 221.970,204.400 221.200 C 204.664 220.430,205.022 219.440,205.195 219.000 C 205.367 218.560,205.727 217.390,205.993 216.400 C 206.260 215.410,206.640 214.287,206.839 213.905 C 207.038 213.523,207.200 212.769,207.200 212.229 C 207.200 211.689,207.380 211.136,207.600 211.000 C 207.820 210.864,208.000 210.234,208.000 209.600 C 208.000 208.966,208.180 208.336,208.400 208.200 C 208.620 208.064,208.800 207.434,208.800 206.800 C 208.800 206.166,208.980 205.536,209.200 205.400 C 209.420 205.264,209.600 204.634,209.600 204.000 C 209.600 203.366,209.780 202.736,210.000 202.600 C 210.220 202.464,210.400 201.834,210.400 201.200 C 210.400 200.566,210.580 199.936,210.800 199.800 C 211.020 199.664,211.200 199.124,211.200 198.600 C 211.200 198.076,211.380 197.536,211.600 197.400 C 211.820 197.264,212.000 196.801,212.000 196.371 C 212.000 195.941,212.158 195.277,212.351 194.895 C 212.544 194.513,212.916 193.480,213.177 192.600 C 213.439 191.720,213.808 190.640,213.997 190.200 C 214.187 189.760,214.910 187.870,215.603 186.000 C 218.719 177.605,225.439 163.338,226.500 162.867 C 226.665 162.793,226.800 162.558,226.800 162.345 C 226.800 162.131,227.520 160.896,228.400 159.600 C 229.280 158.304,230.000 157.136,230.000 157.005 C 230.000 156.874,230.182 156.549,230.403 156.283 C 230.625 156.017,231.937 154.270,233.318 152.400 C 234.699 150.530,236.587 148.010,237.513 146.800 C 239.509 144.192,239.872 141.082,238.400 139.200 C 237.970 138.650,237.620 138.380,237.622 138.600 M289.304 156.125 C 286.601 157.950,286.400 159.030,286.400 171.747 C 286.400 183.683,286.560 184.935,288.282 186.493 C 289.970 188.021,293.994 188.981,294.600 188.000 C 294.736 187.780,295.178 187.600,295.582 187.600 C 296.768 187.600,298.714 185.048,299.000 183.117 C 299.634 178.838,299.038 159.461,298.233 158.170 C 296.395 155.223,292.098 154.238,289.304 156.125 M295.199 156.200 C 295.837 156.529,296.818 157.401,297.379 158.137 L 298.400 159.476 298.400 171.776 C 298.400 183.591,298.367 184.123,297.568 185.244 C 295.422 188.259,290.767 188.436,288.199 185.599 C 287.177 184.470,286.943 160.176,287.937 158.319 C 289.152 156.047,292.830 154.974,295.199 156.200 M291.400 208.000 C 291.264 208.220,290.839 208.400,290.455 208.400 C 289.617 208.400,287.535 210.562,286.875 212.119 C 286.086 213.977,286.201 319.849,286.993 321.651 C 287.745 323.359,288.559 324.400,289.144 324.400 C 289.395 324.400,289.600 324.557,289.600 324.749 C 289.600 325.272,292.578 325.645,294.413 325.351 C 296.371 325.038,298.581 322.997,298.948 321.162 C 299.403 318.885,299.235 213.943,298.774 212.280 C 298.303 210.588,296.269 208.400,295.164 208.400 C 294.770 208.400,294.336 208.220,294.200 208.000 C 294.064 207.780,293.434 207.600,292.800 207.600 C 292.166 207.600,291.536 207.780,291.400 208.000 M295.487 209.068 C 298.653 210.570,298.397 205.504,298.399 266.720 C 298.400 314.672,298.327 321.381,297.793 322.413 C 295.985 325.911,289.509 325.745,287.806 322.157 C 287.179 320.835,286.836 215.522,287.449 212.456 C 288.104 209.178,292.137 207.479,295.487 209.068 M84.400 319.180 C 84.400 343.174,84.215 342.668,98.130 356.700 L 106.559 365.200 120.654 365.200 C 137.124 365.200,138.234 365.459,138.987 369.471 C 139.126 370.214,139.391 370.729,139.575 370.616 C 140.352 370.135,138.735 366.982,137.046 365.686 C 135.904 364.809,135.744 364.800,121.443 364.800 L 106.993 364.800 98.549 356.300 C 90.377 348.075,88.521 345.878,87.054 342.698 C 85.071 338.401,85.068 338.369,84.903 320.124 L 84.747 302.849 86.473 302.694 L 88.200 302.540 86.300 302.470 L 84.400 302.400 84.400 319.180 " stroke="none" fill="#a5373c" fill-rule="evenodd"></path></g></svg>