<svg id="svg" version="1.1" xmlns="http://www.w3.org/2000/svg" xmlns:xlink="http://www.w3.org/1999/xlink" width="30" height="30" viewBox="0, 0, 400,400"><g id="svgg"><path id="path0" d="M179.297 15.661 L 155.078 31.192 133.203 31.238 C 102.494 31.303,99.236 33.290,99.223 51.966 L 99.219 58.229 90.173 67.200 C 73.505 83.732,72.696 85.797,72.673 111.858 C 72.655 131.557,72.734 131.988,76.567 133.205 C 78.018 133.665,78.123 134.381,78.095 143.607 L 78.065 153.516 75.556 155.094 L 73.047 156.673 72.819 247.282 C 72.542 357.745,70.909 346.593,90.145 365.612 L 99.219 374.584 99.219 380.119 C 99.219 390.070,102.633 396.831,108.840 399.171 C 110.344 399.738,139.252 400.000,200.285 400.000 L 289.531 400.000 292.838 397.856 C 297.678 394.717,300.000 389.630,300.000 382.164 L 300.000 376.354 310.352 365.703 C 329.893 345.596,328.098 360.702,328.098 216.406 C 328.098 72.012,329.916 87.617,310.846 68.326 L 300.000 57.355 300.000 50.527 C 300.000 35.918,294.975 31.298,279.050 31.267 C 267.192 31.244,264.154 33.247,266.722 39.395 C 268.242 43.033,268.851 43.257,278.516 43.725 L 287.109 44.141 287.340 49.414 L 287.571 54.688 199.645 54.688 L 111.719 54.688 111.731 50.195 C 111.737 47.725,112.017 45.272,112.352 44.744 C 112.823 44.002,127.637 43.737,177.943 43.572 C 241.759 43.363,242.953 43.331,244.433 41.797 C 246.797 39.347,247.223 35.759,245.416 33.527 L 243.889 31.641 211.484 31.250 L 179.078 30.859 193.964 21.484 C 213.165 9.392,212.500 9.941,212.500 6.193 C 212.500 2.126,210.378 -0.022,206.445 0.065 C 204.024 0.119,199.312 2.826,179.297 15.661 M274.098 75.342 C 282.515 83.993,283.482 85.599,279.785 84.787 C 272.531 83.194,247.635 87.598,235.886 92.554 C 206.416 104.982,187.537 126.720,173.442 164.453 C 155.913 211.379,128.119 236.889,92.390 238.848 L 84.389 239.286 84.187 197.979 L 83.984 156.673 81.475 155.094 L 78.966 153.516 78.936 143.649 L 78.906 133.783 81.260 132.808 C 84.261 131.565,84.254 131.607,84.577 112.109 C 84.927 90.894,85.089 90.486,98.619 76.801 L 108.123 67.188 187.144 67.188 L 266.164 67.187 274.098 75.342 M296.875 98.798 C 300.098 99.454,305.635 100.913,309.180 102.041 L 315.625 104.090 315.625 106.817 C 315.625 109.253,315.437 109.498,313.867 109.110 C 289.289 103.029,248.262 113.293,251.150 124.800 C 252.411 129.826,255.742 130.180,264.177 126.184 C 270.167 123.346,280.673 120.313,284.511 120.313 L 286.740 120.313 286.534 230.273 L 286.328 340.234 284.031 344.922 C 282.502 348.040,279.260 352.159,274.342 357.227 L 266.951 364.844 215.237 364.844 C 156.394 364.844,160.458 364.333,160.845 371.680 C 161.117 376.843,157.383 376.563,225.781 376.563 L 287.500 376.563 287.500 381.484 C 287.500 384.271,287.093 386.813,286.563 387.344 C 285.202 388.704,114.017 388.704,112.656 387.344 C 112.125 386.813,111.719 384.271,111.719 381.484 L 111.719 376.563 124.098 376.563 C 137.758 376.562,138.351 376.364,139.397 371.433 C 139.777 369.641,139.490 368.510,138.255 366.941 L 136.605 364.844 122.001 364.844 L 107.397 364.844 98.263 355.664 C 85.115 342.451,84.932 341.979,84.513 320.170 L 84.188 303.231 86.821 302.828 C 88.268 302.606,92.273 302.229,95.719 301.990 C 147.503 298.401,190.530 265.330,205.500 217.611 C 218.666 175.643,222.030 168.236,237.969 146.113 C 241.174 141.664,238.622 136.775,233.074 136.736 C 224.673 136.677,206.318 170.823,196.967 203.906 C 182.023 256.774,146.238 286.108,91.602 290.275 L 84.375 290.827 84.375 271.312 L 84.375 251.797 91.992 251.293 C 133.457 248.546,164.972 220.828,184.349 170.060 C 192.900 147.660,199.120 136.672,209.754 125.186 C 230.748 102.511,264.662 92.238,296.875 98.798 " stroke="none" fill="#000000" fill-rule="evenodd"></path></g></svg>